<svg width="128" height="128" viewBox="0 0 128 128" fill="none" xmlns="http://www.w3.org/2000/svg">
<path opacity="0.1" d="M104.952 125.827C98.4915 126.802 91.9695 127.383 85.4385 127.721C82.1747 127.879 78.905 127.97 75.6292 127.993C72.3654 128.022 69.0836 127.957 65.8108 127.848C64.1753 127.793 62.5392 127.721 60.9025 127.633C59.2707 127.54 57.6388 127.423 56.007 127.294C52.7432 127.035 49.4795 126.703 46.2158 126.299C42.9521 125.895 39.7005 125.381 36.4609 124.756C34.8399 124.439 33.2208 124.09 31.6052 123.694C29.9897 123.297 28.3741 122.859 26.7586 122.327C25.9517 122.058 25.1449 121.767 24.3362 121.434C23.4899 121.092 22.6689 120.691 21.8793 120.234C21.4322 119.968 21.0077 119.665 20.6101 119.329C20.5031 119.244 20.3889 119.132 20.2801 119.031C20.1713 118.929 20.0553 118.801 19.9447 118.669C19.6844 118.364 19.4672 118.025 19.2992 117.661C19.0775 117.163 18.9834 116.619 19.0254 116.076C19.0724 115.537 19.2531 115.019 19.5512 114.567C19.6147 114.467 19.6781 114.386 19.7434 114.299L19.845 114.172L19.9429 114.066C20.0081 113.995 20.077 113.921 20.1441 113.858L20.3399 113.677C20.4017 113.621 20.4665 113.568 20.5339 113.519L20.7153 113.376C20.8422 113.288 20.9637 113.212 21.0779 113.13C21.5225 112.865 21.9883 112.637 22.4704 112.448C22.9183 112.267 23.3553 112.119 23.7868 111.988C24.6499 111.724 25.4948 111.523 26.3252 111.35C28.0042 111.006 29.6597 110.771 31.3151 110.581C32.1401 110.49 32.9651 110.4 33.7901 110.333L36.2071 110.116C37.816 109.966 39.42 109.8 41.0192 109.618C42.6203 109.437 44.2159 109.233 45.8042 109.014C47.3925 108.795 48.9773 108.554 50.542 108.27C52.1068 107.986 53.6589 107.66 55.1457 107.25C55.8686 107.055 56.5804 106.821 57.278 106.549C57.5872 106.425 57.8898 106.285 58.1846 106.13C58.3169 106.055 58.4384 105.983 58.5345 105.916C58.5984 105.872 58.659 105.824 58.7159 105.771C58.6859 105.84 58.6634 105.911 58.6488 105.985C58.6279 106.084 58.6279 106.187 58.6488 106.287C58.662 106.358 58.6871 106.427 58.7231 106.49C58.7775 106.566 58.7612 106.526 58.7068 106.477C58.6242 106.403 58.535 106.336 58.4402 106.278C58.1655 106.113 57.8781 105.969 57.5808 105.849C57.2581 105.715 56.9117 105.59 56.5545 105.476C55.0642 105.025 53.5465 104.669 52.0107 104.411C48.883 103.844 45.6773 103.506 42.4643 103.215C40.8579 103.072 39.2459 102.958 37.6322 102.853C36.0185 102.748 34.3993 102.672 32.782 102.59C32.5467 102.578 32.3259 102.473 32.1679 102.299C32.0098 102.125 31.9275 101.895 31.9388 101.66C31.95 101.438 32.0444 101.228 32.2032 101.072C32.362 100.916 32.5737 100.825 32.7965 100.817C34.4283 100.763 36.0602 100.741 37.692 100.73C39.3239 100.719 40.9558 100.752 42.6021 100.797C44.2485 100.842 45.8804 100.927 47.5213 101.043C49.1622 101.159 50.8086 101.313 52.4586 101.53C53.2836 101.637 54.1086 101.771 54.939 101.924C55.7694 102.078 56.6017 102.261 57.4466 102.496C57.8673 102.616 58.2934 102.748 58.7267 102.909C59.1898 103.076 59.6385 103.279 60.0685 103.519C60.3242 103.665 60.5668 103.832 60.7937 104.02C61.1057 104.27 61.3678 104.577 61.5662 104.925C61.7017 105.165 61.7978 105.425 61.8508 105.695C61.905 105.994 61.905 106.301 61.8508 106.6C61.754 107.073 61.5395 107.513 61.2271 107.881C60.8337 108.334 60.3666 108.716 59.8455 109.014C59.4364 109.255 59.0125 109.47 58.5762 109.658C57.7688 110.001 56.9432 110.299 56.1031 110.552C54.4712 111.051 52.8394 111.435 51.2202 111.779C49.601 112.122 47.971 112.415 46.3464 112.683C44.7218 112.951 43.0953 113.177 41.4689 113.391C39.8425 113.604 38.2161 113.798 36.5878 113.977L34.1527 114.238C33.3586 114.321 32.568 114.414 31.7811 114.516C30.2091 114.728 28.6443 114.961 27.1412 115.283C26.3905 115.444 25.6544 115.629 24.9654 115.846C24.619 115.953 24.289 116.072 23.9844 116.197C23.7098 116.306 23.4442 116.437 23.1903 116.588L23.0543 116.68L23.0035 116.72L22.9763 116.74L22.9618 116.754C22.9518 116.765 22.9409 116.774 22.9292 116.782C22.9292 116.782 22.9292 116.792 22.9292 116.794C22.9292 116.794 22.9292 116.785 22.9437 116.773C23.0139 116.659 23.0555 116.53 23.0652 116.396C23.079 116.259 23.0578 116.121 23.0035 115.994C22.9854 115.944 22.9854 115.96 23.0235 116.004L23.105 116.09C23.1467 116.125 23.1739 116.159 23.2265 116.197C23.4551 116.381 23.6976 116.547 23.9518 116.693C24.5714 117.046 25.2148 117.356 25.8774 117.621C26.5718 117.903 27.2953 118.164 28.0296 118.406C29.5019 118.895 31.0268 119.311 32.5626 119.697C34.0983 120.082 35.6613 120.42 37.2297 120.733C40.3647 121.367 43.5377 121.875 46.7235 122.329C49.9092 122.783 53.1095 123.16 56.3188 123.469C57.9235 123.625 59.5318 123.761 61.1401 123.887C62.7484 124.014 64.3566 124.135 65.9686 124.236C78.8824 125.029 91.8347 124.962 104.74 124.037C104.856 124.029 104.973 124.044 105.084 124.08C105.195 124.117 105.297 124.175 105.385 124.252C105.474 124.328 105.546 124.421 105.598 124.525C105.65 124.629 105.682 124.743 105.69 124.859C105.712 125.083 105.649 125.308 105.512 125.488C105.375 125.667 105.175 125.789 104.952 125.827Z" fill="white"/>
<g clip-path="url(#clip0_753_2663)">
<path d="M64.6158 47.528C60.0829 37.7752 53.9181 40.6738 42.8831 31.6756C23.0705 15.5139 39.1606 1.9469 39.1606 1.9469C13.816 8.44814 18.0969 54.7511 33.4636 67.0172C41.6139 73.5311 47.1495 72.3966 47.1495 72.3966L35.3094 74.3597C35.3094 74.3597 53.8165 101.807 79.8103 92.7579C78.4302 93.948 77.423 95.5097 76.9092 97.2561L96.9466 96.7875C96.9466 96.7875 101.795 61.9146 86.1654 56.4104C82.8709 64.4641 83.7902 64.8911 83.7902 64.8911C83.7902 64.8911 81.9335 46.607 64.605 41.2782C65.3012 44.4954 64.6158 47.528 64.6158 47.528Z" fill="#BA8EC7"/>
<path d="M63.5843 51.6154C63.6713 50.7741 63.733 49.9019 63.7837 49.046C63.8345 48.1902 63.849 47.3271 63.8544 46.4712C63.8599 45.6154 63.8182 44.7668 63.7674 43.9254C63.7099 43.0943 63.6082 42.2668 63.4628 41.4465C63.4106 41.1509 63.4781 40.8467 63.6505 40.6008C63.8228 40.3548 64.086 40.1871 64.3821 40.1346C64.5837 40.0995 64.7911 40.1196 64.9822 40.1926L65.0638 40.2233C66.4745 40.7662 67.867 41.3669 69.2341 42.0328C69.9123 42.382 70.5958 42.724 71.2595 43.1076L71.7599 43.3916C71.9249 43.4893 72.0881 43.5925 72.2513 43.692C72.5776 43.8946 72.9113 44.0846 73.2304 44.3036C75.8105 45.9809 78.2185 48.0653 80.1005 50.6094C80.5731 51.242 81.009 51.9011 81.406 52.5835L81.7034 53.0956L81.979 53.6203C82.1603 53.9659 82.3253 54.3259 82.4903 54.6842C83.1289 56.1097 83.621 57.5963 83.959 59.1209C84.5899 62.0989 84.8295 65.1463 84.6715 68.1861C84.6683 68.2685 84.6487 68.3494 84.614 68.4243C84.5793 68.4991 84.5302 68.5664 84.4693 68.6222C84.4085 68.678 84.3372 68.7213 84.2596 68.7495C84.182 68.7778 84.0995 68.7904 84.017 68.7868C83.8709 68.7808 83.7314 68.7243 83.6225 68.6269C83.5137 68.5295 83.4422 68.3973 83.4204 68.253C82.9853 65.3344 82.5139 62.452 81.6435 59.7487C80.8352 57.0661 79.545 54.5523 77.8359 52.3301C76.1351 50.1335 73.9992 48.268 71.6529 46.6468C71.3664 46.4351 71.0618 46.2468 70.7663 46.046C70.6158 45.9483 70.4689 45.847 70.3184 45.7511L69.8597 45.4688C69.2559 45.0798 68.6285 44.7234 68.003 44.3615C66.7465 43.6377 65.4518 42.9845 64.1464 42.3259L65.7474 41.1027C65.843 42.0175 65.8883 42.9369 65.8834 43.8567C65.8725 44.7614 65.8181 45.6661 65.7329 46.5599C65.6477 47.4538 65.5244 48.3403 65.3703 49.2197C65.2959 49.6594 65.2161 50.0973 65.1218 50.5352C65.0276 50.9731 64.9405 51.4019 64.8172 51.847C64.7746 52.0077 64.6701 52.1451 64.5264 52.2291C64.3827 52.3132 64.2116 52.3371 64.0503 52.2957C63.9049 52.258 63.778 52.1696 63.6925 52.0464C63.607 51.9232 63.5686 51.7735 63.5843 51.6244V51.6154Z" fill="black"/>
<path d="M82.9854 64.1149C82.9854 63.7367 83.0216 63.3911 83.0542 63.0292L83.1105 62.5009L83.1848 61.9725C83.2887 61.2676 83.4303 60.5688 83.6091 59.879C83.7832 59.1793 83.9987 58.4905 84.2546 57.8163C84.5156 57.1314 84.8183 56.4631 85.1612 55.8151C85.2828 55.5803 85.487 55.3986 85.7346 55.3048C85.9822 55.2109 86.2558 55.2116 86.5029 55.3066L86.6117 55.3501C88.3743 56.0316 90.0287 56.964 91.5236 58.1185C92.2755 58.7092 92.9788 59.3591 93.6269 60.0618C94.2733 60.7688 94.8626 61.5256 95.3893 62.3254C95.9081 63.1242 96.3698 63.9586 96.771 64.8223C97.1624 65.6798 97.5015 66.5603 97.7863 67.4587C98.3336 69.2288 98.7136 71.0461 98.9214 72.8869C99.3493 76.5311 99.2496 80.1445 99.0211 83.6927C98.9613 84.5812 98.8869 85.4641 98.818 86.3471L98.7147 87.6662L98.6005 88.9835C98.5279 89.8611 98.4626 90.735 98.3992 91.6072C98.3357 92.4793 98.294 93.3514 98.2632 94.2236C98.2604 94.3058 98.2413 94.3867 98.2072 94.4616C98.173 94.5365 98.1245 94.6039 98.0642 94.66C98.0039 94.7162 97.9331 94.7599 97.8559 94.7887C97.7786 94.8175 97.6965 94.8308 97.6141 94.8279C97.4657 94.8228 97.3239 94.7656 97.2137 94.6663C97.1035 94.567 97.0321 94.4319 97.0121 94.2851C96.8943 93.3912 96.8163 92.4938 96.7655 91.5999C96.7147 90.7061 96.6839 89.8122 96.6658 88.9238L96.6404 87.5902V86.2621L96.6277 83.6168C96.615 80.1047 96.5588 76.6216 96.0946 73.2452C95.8754 71.5767 95.5176 69.9293 95.0248 68.3199C94.7805 67.5313 94.4893 66.758 94.1527 66.0039C93.8218 65.2573 93.4389 64.5348 93.0068 63.8416C92.1503 62.4565 91.0857 61.211 89.8501 60.1487C88.5859 59.076 87.1893 58.1693 85.6942 57.4508L87.1448 56.9858C86.7943 57.5211 86.4764 58.077 86.1929 58.6504C85.9064 59.2294 85.629 59.8229 85.3969 60.4381C85.1648 61.0533 84.9381 61.6776 84.7441 62.3127C84.6498 62.6312 84.5628 62.9514 84.4703 63.2717C84.3779 63.5919 84.3035 63.9248 84.2346 64.227V64.256C84.2162 64.3362 84.1822 64.4121 84.1344 64.4792C84.0866 64.5462 84.026 64.6032 83.9561 64.6469C83.8862 64.6906 83.8084 64.7201 83.7271 64.7338C83.6458 64.7474 83.5625 64.7449 83.4822 64.7265C83.3419 64.6963 83.2161 64.6193 83.1258 64.5081C83.0354 64.3968 82.9859 64.2581 82.9854 64.1149V64.1149Z" fill="black"/>
<path d="M47.3218 73.2416L47.1894 73.267L47.0824 73.285C47.0117 73.2977 46.9428 73.3068 46.8757 73.3158C46.7397 73.3339 46.6074 73.3466 46.475 73.3575C46.2121 73.3774 45.951 73.3882 45.6935 73.3864C45.1808 73.3842 44.6687 73.3528 44.1596 73.2923C43.6537 73.2325 43.1551 73.1476 42.6601 73.0444C42.1651 72.9413 41.6773 72.811 41.1987 72.6626C39.2925 72.0693 37.4659 71.2466 35.7591 70.2126C34.9106 69.7024 34.0874 69.1541 33.286 68.5842L32.6894 68.1463C32.4918 67.9961 32.2851 67.8351 32.0893 67.6741C31.6922 67.352 31.3132 67.0118 30.9451 66.6644C29.5028 65.2648 28.2204 63.7101 27.1211 62.0286C26.0317 60.3775 25.068 58.6471 24.2382 56.8519C23.419 55.0682 22.7034 53.2389 22.095 51.373C20.8808 47.6538 20.0378 43.8239 19.5783 39.9393C19.1026 36.0469 19.009 32.1175 19.2991 28.207C19.6237 24.2896 20.3471 20.3633 21.7161 16.5906C22.3985 14.6872 23.2555 12.8506 24.2763 11.1044C24.7982 10.2243 25.3677 9.37323 25.9825 8.55497C26.605 7.73046 27.2778 6.9449 27.9969 6.20273C29.4464 4.70445 31.0992 3.4163 32.907 2.37583C34.716 1.34437 36.6577 0.564523 38.6783 0.0579548C38.9267 -0.00504758 39.185 -0.0186313 39.4386 0.0180204C39.6923 0.0546722 39.9361 0.140862 40.1564 0.271586C40.3766 0.40231 40.5689 0.574978 40.7222 0.779866C40.8755 0.984755 40.9869 1.21779 41.05 1.46564C41.1388 1.81157 41.1304 2.17524 41.0258 2.51675C40.9212 2.85825 40.7245 3.16445 40.4571 3.40175L40.4226 3.4325L40.2993 3.54108L40.1488 3.68041C40.0473 3.77631 39.9458 3.87581 39.8424 3.97895C39.6375 4.1816 39.4362 4.39511 39.2386 4.61224C38.8433 5.04831 38.4662 5.50429 38.1126 5.97655C37.405 6.9145 36.791 7.9193 36.2795 8.97658C35.778 10.0153 35.3977 11.1081 35.1463 12.2335C34.9022 13.3477 34.8035 14.4886 34.8525 15.628C34.8814 16.1978 34.9419 16.7656 35.0339 17.3288C35.1347 17.8963 35.266 18.4581 35.4273 19.0116C35.7718 20.137 36.2324 21.2236 36.8017 22.2541C37.9494 24.3457 39.4979 26.2728 41.2512 28.0297C43.0212 29.8058 44.9412 31.4264 46.9899 32.8735C49.0568 34.318 51.2401 35.5889 53.5174 36.6733C54.6688 37.2342 55.8546 37.7698 57.0513 38.3705C58.2891 38.9733 59.4649 39.6957 60.5616 40.5273C61.6721 41.3909 62.6447 42.4177 63.4464 43.5726C64.2197 44.6979 64.8712 45.9019 65.3901 47.1643C65.4338 47.2686 65.4565 47.3804 65.4568 47.4935C65.4571 47.6065 65.4351 47.7186 65.392 47.8231C65.3489 47.9277 65.2855 48.0227 65.2055 48.1027C65.1255 48.1828 65.0305 48.2464 64.9259 48.2898C64.7263 48.3732 64.5026 48.3787 64.2991 48.3053C64.0956 48.2319 63.9271 48.085 63.8271 47.8935V47.8935C63.2731 46.7888 62.6092 45.7425 61.8453 44.7704C61.0985 43.8333 60.2183 43.0103 59.2325 42.3277C58.2124 41.6474 57.1292 41.0664 55.9978 40.5925C54.8428 40.0805 53.6407 39.6009 52.4204 39.0798C51.2002 38.5587 49.9871 38.0033 48.7941 37.3844C47.601 36.7656 46.4369 36.0798 45.3091 35.347C43.052 33.8774 40.9285 32.2131 38.963 30.3729C36.9993 28.5056 35.1916 26.3922 33.7737 23.9658C33.0527 22.7388 32.4626 21.4398 32.0131 20.09C31.793 19.4028 31.6114 18.7038 31.4691 17.9965C31.3315 17.2792 31.2395 16.554 31.1935 15.8252C31.1079 14.3705 31.2109 12.9109 31.5 11.4826C31.7905 10.0673 32.2438 8.69035 32.8508 7.37885C33.4495 6.08613 34.174 4.85524 35.0139 3.70391C35.4285 3.12972 35.8709 2.57601 36.3412 2.04284C36.5769 1.77504 36.818 1.5127 37.0664 1.25395C37.1915 1.12368 37.3221 0.997039 37.4544 0.86857L37.6593 0.674906L37.7681 0.577279L37.9005 0.461451L39.6502 3.836C37.9811 4.2681 36.379 4.92621 34.8888 5.79199C33.4054 6.66302 32.0481 7.73201 30.8545 8.96933C30.2534 9.59447 29.6903 10.2548 29.1682 10.947C28.6461 11.6487 28.1619 12.3778 27.7177 13.131C26.8174 14.6624 26.0612 16.2736 25.4585 17.9441C24.2467 21.3623 23.483 24.9226 23.1865 28.5363C22.8557 32.1949 22.883 35.8771 23.2681 39.5304C23.6411 43.1937 24.3482 46.8155 25.3805 50.3507C25.8998 52.1093 26.5203 53.8366 27.239 55.5238C27.9392 57.2035 28.7641 58.8286 29.7067 60.3857C30.6292 61.9225 31.7169 63.3544 32.9505 64.6559C33.2569 64.9744 33.5688 65.2856 33.897 65.5787C34.0602 65.7271 34.2215 65.8646 34.3956 66.0112L34.925 66.4491C35.6376 67.0208 36.3756 67.5691 37.1208 68.0775C38.6124 69.1015 40.2166 69.9514 41.9022 70.6107C42.7349 70.9292 43.5924 71.1791 44.466 71.358C44.8966 71.444 45.3319 71.5044 45.7697 71.5389C45.9854 71.557 46.1994 71.5661 46.4116 71.5697C46.5167 71.5697 46.6219 71.5697 46.7234 71.5697H46.8721H46.9392H46.97C46.9791 71.5697 46.9918 71.5697 46.9845 71.5697C47.2056 71.5277 47.4344 71.5734 47.6223 71.6971C47.8102 71.8207 47.9424 72.0126 47.9908 72.232C48.0343 72.4542 47.9885 72.6846 47.8634 72.8735C47.7382 73.0623 47.5437 73.1946 47.3218 73.2416Z" fill="black"/>
<path d="M48.9173 72.3587C47.8561 73.007 46.7127 73.5109 45.5176 73.8568C44.3501 74.2092 43.1572 74.4711 41.9493 74.6403C40.7542 74.8206 39.5504 74.9372 38.3429 74.9896C37.7385 75.0173 37.1341 75.033 36.5297 75.0366C36.2287 75.0366 35.9259 75.0366 35.6231 75.0366C35.3203 75.0366 35.0248 75.0239 34.6912 75.0058L35.915 72.9268C36.0547 73.1077 36.2233 73.3339 36.3847 73.5366L36.8833 74.1572C37.2187 74.568 37.565 74.975 37.9114 75.3804C38.6076 76.1892 39.3311 76.9781 40.0636 77.7561C41.5347 79.3062 43.0723 80.7863 44.6763 82.1964C47.882 84.9992 51.3524 87.489 55.0894 89.4341C58.8264 91.3792 62.8444 92.7291 67.0056 93.2122C69.0939 93.4629 71.2031 93.4901 73.2973 93.2936C75.4186 93.0895 77.5167 92.6922 79.5655 92.1066H79.5854C79.6747 92.0818 79.768 92.0749 79.86 92.0862C79.952 92.0974 80.0408 92.1267 80.1215 92.1722C80.2022 92.2178 80.273 92.2787 80.3301 92.3516C80.3871 92.4245 80.4292 92.5078 80.4539 92.5969C80.4996 92.7615 80.4838 92.9371 80.4094 93.0909C80.335 93.2447 80.2072 93.3662 80.0496 93.4329L79.2754 93.7604L78.8855 93.9233L78.4921 94.0717L77.6997 94.363L76.8928 94.6218L76.4903 94.7502L76.0824 94.8642C75.8086 94.9384 75.5384 95.0162 75.2628 95.0867C74.7188 95.2062 74.1586 95.3473 73.5983 95.4486C73.3173 95.4975 73.0398 95.5572 72.757 95.5952L71.9121 95.7164C71.631 95.7598 71.3463 95.7743 71.0617 95.805C70.777 95.8358 70.4942 95.8593 70.2095 95.872C69.0679 95.9444 67.9232 95.9517 66.7808 95.8937C65.6368 95.8326 64.4975 95.7052 63.3684 95.512C62.2388 95.324 61.1207 95.0726 60.0194 94.7592C57.8219 94.1389 55.6876 93.3145 53.6443 92.2966C49.5647 90.2755 45.8639 87.612 42.5422 84.5921C40.8803 83.0831 39.3063 81.4803 37.8279 79.7917C37.0882 78.9521 36.3774 78.0854 35.6884 77.2043C35.3421 76.7628 35.0066 76.3122 34.6766 75.8581C34.511 75.6301 34.3472 75.4003 34.1853 75.1687C34.0221 74.9316 33.868 74.7109 33.6957 74.4449L33.6558 74.3834C33.4676 74.0921 33.4025 73.7382 33.4749 73.3992C33.5473 73.0601 33.7511 72.7635 34.042 72.574C34.3014 72.4053 34.6123 72.3335 34.9196 72.3713C35.1716 72.4021 35.4636 72.4293 35.7428 72.4528C36.022 72.4763 36.3085 72.498 36.5914 72.5143C37.1583 72.5505 37.727 72.5746 38.2976 72.5866C38.8669 72.5993 39.4362 72.5866 40.0037 72.5866C40.5713 72.5866 41.1406 72.5613 41.7063 72.5233C42.272 72.4853 42.8359 72.44 43.3944 72.3695C43.9529 72.2989 44.5113 72.2248 45.0589 72.1144C46.1471 71.9158 47.2087 71.5927 48.2229 71.1517H48.2392C48.3243 71.1139 48.416 71.0933 48.5091 71.091C48.6022 71.0888 48.6948 71.1049 48.7817 71.1386C48.8685 71.1722 48.9478 71.2227 49.0149 71.2871C49.0821 71.3515 49.1358 71.4284 49.173 71.5136C49.2333 71.6624 49.2409 71.8274 49.1944 71.9811C49.1479 72.1348 49.0501 72.2681 48.9173 72.3587V72.3587Z" fill="black"/>
<path d="M96.4807 97.3683C96.3501 97.4298 96.2595 97.475 96.1507 97.5239L95.8425 97.6596C95.6376 97.75 95.4345 97.8405 95.2296 97.9147C94.818 98.074 94.4101 98.2332 93.9948 98.3689C93.168 98.6494 92.3321 98.899 91.4872 99.1107C89.7934 99.5327 88.0693 99.8224 86.3305 99.9774C84.5815 100.133 82.8224 100.139 81.0723 99.9955C79.3185 99.8518 77.5844 99.5274 75.8975 99.0275L75.7615 98.9877C75.458 98.8965 75.1983 98.6977 75.0314 98.4288C74.8644 98.1599 74.8016 97.8393 74.8549 97.5275C74.8632 97.4769 74.8741 97.4269 74.8876 97.3774C74.8966 97.334 74.9075 97.3013 74.9184 97.2633C74.9383 97.1891 74.9601 97.1204 74.9819 97.0535C75.0272 96.916 75.0761 96.7893 75.1269 96.6626C75.2264 96.4153 75.3397 96.1737 75.466 95.9389C75.7089 95.4805 75.9929 95.0451 76.3145 94.6379C76.4777 94.4425 76.6336 94.2416 76.815 94.0625L77.0779 93.7911L77.3535 93.536C77.5348 93.3641 77.7397 93.2175 77.9319 93.0637C78.1241 92.9099 78.338 92.7814 78.5429 92.6493C78.6064 92.6081 78.6773 92.5798 78.7518 92.5659C78.8262 92.5521 78.9027 92.5529 78.9767 92.5686C79.0508 92.5842 79.1211 92.6143 79.1836 92.657C79.246 92.6997 79.2994 92.7543 79.3407 92.8176C79.4001 92.9106 79.4317 93.0186 79.4317 93.1289C79.4317 93.2392 79.4001 93.3471 79.3407 93.4401L79.3172 93.4763C79.0778 93.8508 78.8403 94.2108 78.6409 94.5872C78.4365 94.9508 78.2549 95.3267 78.0969 95.7127C77.9476 96.0843 77.8222 96.465 77.7216 96.8526C77.6726 97.0335 77.6345 97.229 77.6037 97.4117C77.5892 97.5022 77.5747 97.5927 77.5675 97.6795C77.5675 97.723 77.5584 97.7645 77.5566 97.8025C77.5548 97.8405 77.5566 97.8442 77.5566 97.8569C77.5566 97.8695 77.5566 97.8967 77.5566 97.875L76.5067 96.3731C78.0675 96.6054 79.643 96.7264 81.221 96.735C82.8022 96.7457 84.3825 96.6533 85.9516 96.4582C87.527 96.2651 89.0914 95.9915 90.6386 95.6385C91.4129 95.4575 92.1853 95.2766 92.9486 95.0559C93.3294 94.9491 93.7102 94.8423 94.0873 94.7265L94.6458 94.5456L95.168 94.3774L95.2622 94.3466C95.6739 94.2138 96.1215 94.2496 96.5067 94.446C96.8919 94.6425 97.1833 94.9835 97.3166 95.3942C97.4402 95.7685 97.4236 96.1748 97.2699 96.5378C97.1162 96.9008 96.8358 97.1959 96.4807 97.3683V97.3683Z" fill="black"/>
<path d="M28.929 16.9452C22.2438 63.1468 89.3586 72.7494 106.738 107.387C106.738 107.387 108.477 116.136 104.8 124.481C101.121 115.627 98.9558 111.008 98.9558 111.008C94.4319 77.4737 22.2402 63.1468 28.929 16.9452Z" fill="white"/>
<path d="M29.3733 17.0085C29.0208 19.563 28.8995 22.144 29.0106 24.7203C29.1231 27.2863 29.5053 29.8335 30.1511 32.3198C30.8012 34.8034 31.7128 37.2113 32.8709 39.5033C34.03 41.7957 35.3917 43.9805 36.9397 46.0316C40.033 50.1481 43.7536 53.7741 47.7226 57.089C51.6917 60.4038 55.9309 63.4219 60.2444 66.317C68.877 72.1234 77.8703 77.4648 86.3705 83.6675C90.6134 86.7743 94.7347 90.1018 98.4807 93.8799C100.365 95.7712 102.122 97.7852 103.739 99.9088C105.369 102.052 106.81 104.332 108.045 106.723V106.738C108.101 106.849 108.141 106.968 108.163 107.09L108.219 107.403L108.265 107.693C108.294 107.887 108.319 108.077 108.343 108.267C108.39 108.646 108.431 109.025 108.464 109.403C108.533 110.159 108.573 110.916 108.591 111.672C108.626 113.186 108.565 114.701 108.41 116.208C108.328 116.963 108.228 117.715 108.094 118.464C107.96 119.213 107.806 119.961 107.614 120.699C107.238 122.184 106.741 123.637 106.129 125.042C105.975 125.393 105.689 125.669 105.332 125.809C104.975 125.95 104.577 125.944 104.225 125.792C103.882 125.644 103.61 125.368 103.465 125.023V125.013C102.527 122.758 101.575 120.51 100.609 118.269C100.126 117.148 99.6376 116.031 99.1444 114.916C98.653 113.805 98.1508 112.685 97.6467 111.599V111.589C97.586 111.459 97.5456 111.32 97.527 111.178C97.3682 109.983 97.1228 108.802 96.7927 107.642C96.4547 106.477 96.0373 105.336 95.5434 104.228C94.5285 101.99 93.277 99.8672 91.8101 97.895C88.8691 93.8943 85.2573 90.3425 81.4514 87.015C77.6455 83.6874 73.6003 80.5734 69.5316 77.4883C65.4628 74.4032 61.3414 71.3562 57.298 68.1898C53.2546 65.0233 49.2838 61.7391 45.545 58.1764C41.8062 54.6136 38.3104 50.7578 35.3785 46.4623C33.9055 44.3152 32.6079 42.0534 31.4983 39.6987C30.389 37.3353 29.5115 34.8702 28.8783 32.3379C28.2514 29.8047 27.8868 27.2139 27.7904 24.6063C27.6983 22.0045 27.8489 19.3998 28.24 16.8258C28.2678 16.6413 28.3678 16.4754 28.5181 16.3644C28.6683 16.2535 28.8566 16.2066 29.0415 16.2341C29.2251 16.261 29.3906 16.3592 29.502 16.5073C29.6133 16.6554 29.6616 16.8414 29.6362 17.0249V17.0249C29.2889 19.5113 29.1735 22.0244 29.2917 24.5321C29.4158 27.0335 29.7961 29.5157 30.4267 31.9398C31.0638 34.3614 31.9346 36.7156 33.0268 38.9694C34.1244 41.2267 35.402 43.3923 36.8472 45.4454C39.7338 49.569 43.1933 53.2874 46.8976 56.7397C50.602 60.1921 54.571 63.3876 58.618 66.4817C62.665 69.5758 66.8118 72.5667 70.935 75.6101C75.0581 78.6536 79.1686 81.7477 83.105 85.097C85.0723 86.7743 86.9943 88.5168 88.8292 90.366C90.6813 92.2176 92.4059 94.1919 93.9913 96.2755C95.6005 98.3903 96.9791 100.67 98.1036 103.077C98.6647 104.298 99.1415 105.555 99.5306 106.841C99.9188 108.135 100.21 109.455 100.401 110.792L100.278 110.373C100.803 111.505 101.302 112.62 101.802 113.747C102.303 114.875 102.791 115.996 103.278 117.124C104.245 119.378 105.202 121.638 106.149 123.903L103.48 123.876C104.028 122.617 104.473 121.316 104.809 119.984C104.99 119.317 105.119 118.64 105.244 117.96C105.369 117.279 105.456 116.59 105.532 115.9C105.674 114.518 105.729 113.128 105.697 111.739C105.681 111.042 105.645 110.347 105.583 109.656C105.552 109.312 105.514 108.969 105.472 108.628C105.451 108.458 105.427 108.288 105.402 108.122L105.364 107.874L105.325 107.651L105.451 108.013C103.229 103.49 100.122 99.4076 96.5805 95.72C93.0394 92.0324 89.0631 88.7067 84.9363 85.5873C76.6646 79.343 67.7655 73.8604 59.1692 67.8785C54.8738 64.8839 50.6473 61.7681 46.6583 58.3321C42.6693 54.896 38.9324 51.1324 35.8191 46.8495C34.2571 44.7092 32.8894 42.4341 31.7322 40.0515C30.5754 37.6656 29.6746 35.1644 29.0451 32.5895C28.4216 30.0175 28.0703 27.3872 27.9971 24.742C27.9264 22.1056 28.0945 19.4683 28.4993 16.862C28.5082 16.8039 28.5284 16.748 28.5589 16.6977C28.5894 16.6474 28.6296 16.6036 28.6771 16.5688C28.7246 16.534 28.7785 16.5089 28.8357 16.4949C28.893 16.481 28.9524 16.4784 29.0106 16.4874C29.1268 16.5049 29.2315 16.5673 29.302 16.661C29.3726 16.7548 29.4034 16.8724 29.3878 16.9886L29.3733 17.0085Z" fill="black"/>
<path d="M104.401 112.144C104.568 113.179 104.698 114.196 104.812 115.22C104.926 116.244 105.015 117.274 105.082 118.296C105.15 119.318 105.184 120.359 105.193 121.39C105.202 122.422 105.157 123.457 105.068 124.486C105.065 124.521 105.055 124.556 105.039 124.587C105.022 124.619 105 124.647 104.973 124.67C104.946 124.692 104.915 124.71 104.881 124.72C104.847 124.731 104.811 124.735 104.776 124.732C104.708 124.726 104.645 124.695 104.599 124.645C104.554 124.594 104.529 124.529 104.529 124.461V124.461C104.54 123.449 104.502 122.436 104.426 121.426C104.35 120.417 104.232 119.407 104.092 118.401C103.953 117.395 103.788 116.394 103.601 115.397C103.414 114.4 103.211 113.407 102.981 112.43V112.421C102.959 112.328 102.956 112.232 102.972 112.138C102.987 112.044 103.021 111.954 103.072 111.873C103.122 111.792 103.188 111.722 103.266 111.667C103.344 111.611 103.432 111.572 103.525 111.551C103.618 111.529 103.715 111.525 103.809 111.541C103.903 111.556 103.994 111.59 104.075 111.64C104.156 111.691 104.227 111.757 104.282 111.835C104.338 111.912 104.378 112 104.399 112.093C104.4 112.11 104.401 112.127 104.401 112.144V112.144Z" fill="black"/>
<path d="M103.967 113.459C104.698 113.254 105.082 112.343 104.823 111.426C104.564 110.508 103.761 109.93 103.029 110.136C102.298 110.341 101.914 111.252 102.173 112.17C102.432 113.087 103.235 113.665 103.967 113.459Z" fill="black"/>
<path d="M95.8317 103.471C96.6 102.305 97.6393 101.342 98.861 100.663C100.083 99.9842 101.451 99.61 102.849 99.5722C99.4816 95.5444 73.5296 74.6022 57.5192 64.996C44.7164 55.8475 54.5909 65.1425 54.5909 65.1425C54.5909 65.1425 91.8173 92.8447 95.8317 103.471Z" fill="black"/>
<path d="M69.8578 57.4689C70.3941 58.1279 70.8041 58.8799 71.0672 59.6872C71.3303 60.4853 71.5042 61.31 71.5858 62.1462C71.7199 63.7665 71.6956 65.3961 71.5132 67.0117C71.4407 67.8031 71.3621 68.5835 71.2775 69.3531C71.2376 69.7367 71.1995 70.1204 71.1705 70.4967C71.1524 70.6867 71.1361 70.8748 71.1234 71.0612C71.1107 71.2476 71.0962 71.4358 71.0889 71.6185C71.0817 71.8013 71.0708 71.9804 71.0708 72.1613V72.4328V72.6988C71.0751 73.0417 71.0975 73.3841 71.1379 73.7247C71.1899 74.3074 71.3761 74.8703 71.6819 75.3694L71.7544 75.4835C71.9085 75.7254 71.9605 76.0183 71.899 76.2983C71.8375 76.5783 71.6675 76.8226 71.4262 76.978C71.2027 77.1193 70.9352 77.1745 70.6739 77.1332C70.4126 77.0919 70.1753 76.957 70.0065 76.7537C69.9231 76.6542 69.8415 76.551 69.7599 76.4478C69.7218 76.3954 69.6783 76.343 69.642 76.2905L69.5423 76.1258C69.477 76.0154 69.4099 75.905 69.3501 75.791L69.1978 75.4509C69.1467 75.3393 69.1031 75.2245 69.0672 75.1071L68.9566 74.7633C68.9059 74.5372 68.8442 74.3055 68.8098 74.083C68.7753 73.8604 68.7336 73.6324 68.7209 73.4153C68.7082 73.1982 68.6847 72.9738 68.681 72.7603L68.6702 72.4382V72.1197C68.6702 71.908 68.6829 71.7 68.6937 71.4919C68.7046 71.2838 68.7191 71.0776 68.7354 70.8731C68.7518 70.6686 68.7699 70.4659 68.7898 70.2651C68.8333 69.8598 68.8859 69.4617 68.9403 69.0672C69.0437 68.2765 69.1742 67.5021 69.303 66.7331C69.5296 65.1987 69.7689 63.6933 69.8306 62.2095C69.8922 60.7258 69.7871 59.253 69.2177 57.8669C69.1794 57.7729 69.1801 57.6675 69.2195 57.5739C69.2589 57.4803 69.3339 57.4061 69.4281 57.3676C69.5015 57.3389 69.582 57.3332 69.6588 57.3513C69.7356 57.3694 69.805 57.4104 69.8578 57.4689V57.4689Z" fill="black"/>
<path d="M89.8753 75.9611C90.1625 76.5544 90.3809 77.1785 90.5262 77.8212C90.6738 78.459 90.7744 79.1067 90.8272 79.7591C90.9126 81.0187 90.9175 82.2823 90.8417 83.5425C90.7674 84.6873 90.7674 85.8357 90.8417 86.9804C90.8707 87.2428 90.9015 87.4998 90.9487 87.7459C90.9948 87.9846 91.0553 88.2202 91.13 88.4515C91.2707 88.8987 91.4713 89.3247 91.7265 89.7181L91.761 89.7706C91.8514 89.9108 91.9133 90.0674 91.9429 90.2315C91.9726 90.3957 91.9694 90.564 91.9337 90.7269C91.898 90.8898 91.8304 91.0441 91.7348 91.1809C91.6392 91.3176 91.5175 91.4342 91.3766 91.5239C91.1297 91.6843 90.8345 91.754 90.5417 91.721C90.249 91.6879 89.9768 91.5543 89.7719 91.343C89.2436 90.7797 88.8292 90.1198 88.5517 89.3996C88.5172 89.311 88.4809 89.2187 88.4483 89.1337L88.3667 88.8659C88.3087 88.685 88.2706 88.504 88.2271 88.3231C88.1836 88.1421 88.1564 87.9612 88.122 87.7803C88.0875 87.5993 88.0766 87.4274 88.0549 87.2501C87.9243 85.846 88.0694 84.5468 88.2362 83.3073C88.403 82.0679 88.6133 80.8846 88.7692 79.7102C88.8454 79.124 88.9179 78.5395 88.9506 77.9514C88.9832 77.3634 89.0086 76.7735 89.0086 76.1638V76.1529C89.0086 76.0936 89.0203 76.0349 89.0431 75.9801C89.0659 75.9253 89.0994 75.8755 89.1415 75.8337C89.1836 75.7918 89.2336 75.7587 89.2886 75.7361C89.3436 75.7136 89.4024 75.7022 89.4619 75.7024C89.5483 75.7019 89.6331 75.7259 89.7063 75.7718C89.7795 75.8176 89.8381 75.8832 89.8753 75.9611V75.9611Z" fill="black"/>
<path d="M47.4705 46.5111C48.3499 47.5117 48.9066 48.7693 49.2837 50.0196C49.6289 51.2545 49.8793 52.5139 50.0326 53.7868L50.2864 55.5962C50.3299 55.8929 50.3789 56.1842 50.4333 56.4719C50.4877 56.7596 50.5366 57.0455 50.6019 57.3224C50.8055 58.371 51.21 59.3706 51.7931 60.2663L51.8095 60.2898C51.8908 60.4074 51.9481 60.54 51.978 60.6798C52.0079 60.8196 52.0099 60.9638 51.9838 61.1044C51.9577 61.2449 51.904 61.379 51.8259 61.4988C51.7477 61.6186 51.6466 61.7217 51.5284 61.8025C51.314 61.9505 51.0535 62.0167 50.7942 61.9891C50.535 61.9616 50.2943 61.842 50.116 61.6523C49.6204 61.1125 49.2151 60.4967 48.9156 59.8284L48.8032 59.5841C48.7688 59.5009 48.7397 59.4195 48.7089 59.3362C48.6436 59.1716 48.5856 59.007 48.5276 58.8405C48.4199 58.5152 48.3303 58.1841 48.2593 57.8489C48.1831 57.5177 48.1233 57.1902 48.0779 56.8645C48.0326 56.5388 47.9891 56.215 47.9547 55.8947C47.8821 55.2524 47.8404 54.6281 47.8023 53.9985C47.728 52.7554 47.6827 51.5467 47.5576 50.3651C47.4516 49.1814 47.2045 48.0145 46.8214 46.8892V46.8892C46.8045 46.8416 46.7972 46.7911 46.7999 46.7406C46.8026 46.6902 46.8152 46.6408 46.8371 46.5952C46.859 46.5496 46.8898 46.5088 46.9275 46.4751C46.9653 46.4415 47.0093 46.4155 47.0571 46.3989C47.1294 46.3748 47.2073 46.3726 47.2808 46.3925C47.3544 46.4125 47.4204 46.4538 47.4705 46.5111Z" fill="black"/>
<path d="M35.5489 56.1445C36.3864 56.4709 37.2543 56.7134 38.1399 56.8682C38.9832 56.9817 39.8386 56.9701 40.6784 56.8339C40.8942 56.8049 41.1208 56.7687 41.3456 56.7289L42.0401 56.6149L42.7654 56.5046L43.5214 56.4304C44.5735 56.3464 45.6319 56.4693 46.6365 56.7923C46.7498 56.83 46.8544 56.8898 46.9445 56.9681C47.0346 57.0463 47.1083 57.1416 47.1613 57.2483C47.2144 57.3551 47.2458 57.4712 47.2538 57.5902C47.2617 57.7091 47.246 57.8284 47.2076 57.9413C47.1394 58.1451 47.0006 58.3181 46.8163 58.4291C46.6319 58.5402 46.4139 58.5821 46.2013 58.5474H46.1814C45.3479 58.4073 44.5006 58.3666 43.6574 58.4262L42.9974 58.4858L42.3121 58.5601C41.8461 58.6162 41.3638 58.6741 40.8615 58.6976L40.4825 58.7156H40.0927C39.8301 58.7136 39.568 58.6955 39.3076 58.6614C39.0444 58.6327 38.7833 58.5869 38.5261 58.5239L38.3321 58.4822C38.2687 58.4659 38.207 58.4425 38.1508 58.4226L37.7773 58.2978C36.8224 57.9388 35.9507 57.3895 35.2153 56.6837C35.1846 56.6548 35.16 56.6202 35.1428 56.5817C35.1257 56.5433 35.1163 56.5019 35.1153 56.4598C35.1143 56.4177 35.1217 56.3758 35.137 56.3366C35.1522 56.2974 35.1752 56.2616 35.2044 56.2313C35.2467 56.1861 35.3013 56.1541 35.3615 56.1394C35.4217 56.1246 35.4849 56.1276 35.5435 56.1481L35.5489 56.1445Z" fill="black"/>
<path d="M58.5961 80.7633C59.4374 81.0275 60.2624 81.2881 61.091 81.4871C61.9068 81.6917 62.7355 81.841 63.5714 81.9341C65.2253 82.1044 66.894 82.0704 68.5395 81.8327C70.2258 81.621 71.9846 81.279 73.8558 81.1668C75.751 81.0216 77.6572 81.1842 79.5002 81.6482C79.8341 81.7369 80.119 81.9542 80.2924 82.2524C80.4658 82.5506 80.5134 82.9054 80.4249 83.2387C80.3434 83.5456 80.1522 83.8121 79.8873 83.9881C79.6225 84.164 79.3023 84.2373 78.9871 84.194V84.194C77.3509 83.9679 75.6958 83.9109 74.048 84.0239C72.3762 84.1325 70.6356 84.3858 68.7898 84.4998C67.8526 84.5622 66.9123 84.5586 65.9757 84.489C65.0267 84.4159 64.0869 84.2529 63.1689 84.0022C61.3712 83.5015 59.6811 82.6754 58.1827 81.5649C58.134 81.5293 58.0929 81.4845 58.0617 81.433C58.0305 81.3816 58.0097 81.3244 58.0006 81.2649C57.9915 81.2054 57.9943 81.1447 58.0087 81.0863C58.0231 81.0278 58.049 80.9729 58.0848 80.9244C58.1414 80.8478 58.2205 80.7906 58.3111 80.7608C58.4017 80.731 58.4994 80.73 58.5906 80.758L58.5961 80.7633Z" fill="black"/>
</g>
<defs>
<clipPath id="clip0_753_2663">
<rect width="89.6" height="128" fill="white" transform="translate(19)"/>
</clipPath>
</defs>
</svg>
