<svg width="128" height="128" viewBox="0 0 128 128" fill="none" xmlns="http://www.w3.org/2000/svg">
<g clip-path="url(#clip0_736_2253)">
<path d="M31.4865 38.8963C29.8762 37.5004 29.7285 35.0296 31.1547 33.3598C32.5809 31.6899 35.0425 31.4596 36.6528 32.8468" fill="black"/>
<path d="M31.4864 40.2922C31.1543 40.2922 30.8333 40.1727 30.5813 39.9555C30.0542 39.5022 29.6242 38.9462 29.3172 38.3212C29.0103 37.6962 28.8328 37.015 28.7955 36.3191C28.7104 34.9079 29.1787 33.5194 30.1001 32.4507C32.0232 30.198 35.3689 29.9014 37.5577 31.7876C37.6963 31.907 37.8102 32.0526 37.8927 32.2162C37.9753 32.3798 38.0249 32.5581 38.0389 32.7409C38.0528 32.9238 38.0308 33.1076 37.974 33.2819C37.9173 33.4562 37.8269 33.6175 37.708 33.7567C37.5892 33.8959 37.4442 34.0103 37.2813 34.0932C37.1185 34.1761 36.941 34.226 36.7589 34.24C36.5769 34.254 36.3939 34.2319 36.2204 34.1749C36.0469 34.1179 35.8862 34.0271 35.7476 33.9077C34.7227 33.023 33.1419 33.1853 32.209 34.2689C31.7593 34.7878 31.5298 35.463 31.5698 36.1498C31.5862 36.4722 31.6675 36.788 31.8087 37.078C31.9499 37.368 32.1481 37.6262 32.3914 37.8372C32.6068 38.0229 32.7604 38.2704 32.8315 38.5464C32.9027 38.8224 32.888 39.1137 32.7894 39.381C32.6909 39.6484 32.5132 39.879 32.2802 40.0419C32.0473 40.2048 31.7702 40.2922 31.4864 40.2922V40.2922Z" fill="black"/>
<path d="M20.4816 73.1642C20.4816 73.1642 15.5585 92.3579 38.5811 95.7081C44.5187 109.667 51.9416 107.79 60.1045 108.149C63.1966 119.125 68.7468 115.668 71.1841 113.396C76.9167 113.998 78.4193 114.689 81.9545 110.58C86.9401 112.288 89.4989 110.543 89.9332 103.66C94.2761 102.438 103.351 94.3017 94.9536 86.2107C94.7122 80.5869 104.751 60.8557 92.9733 57.8022C92.0578 52.3232 84.3344 43.4941 69.7092 44.5183C55.0841 45.5426 20.4816 73.1642 20.4816 73.1642Z" fill="#FEF3E6"/>
<path d="M81.8763 49.1178C74.9276 24.5865 60.8566 17.155 33.5571 35.9684C9.97171 52.2255 11.5039 77.891 26.5147 89.5748C23.4086 85.6855 25.2848 81.2971 32.5478 74.0453C42.6668 63.9215 61.8711 50.9238 81.8763 49.1178Z" fill="black"/>
<path d="M55.9091 103.136C56.2361 103.202 56.5578 103.293 56.8715 103.407C57.1923 103.527 57.5035 103.672 57.8026 103.839C58.4123 104.187 58.9615 104.633 59.4286 105.158C59.8853 105.679 60.2752 106.254 60.589 106.872C60.8886 107.459 61.1469 108.065 61.3621 108.688C61.7877 109.889 62.0899 111.072 62.493 112.063C62.6618 112.511 62.8915 112.934 63.1757 113.319C63.2382 113.403 63.3059 113.476 63.372 113.55C63.4067 113.583 63.438 113.619 63.4744 113.651C63.5109 113.682 63.5422 113.714 63.5891 113.752C63.7636 113.898 63.9495 114.029 64.145 114.145C64.5343 114.381 64.9598 114.552 65.4044 114.651C65.8517 114.755 66.3125 114.787 66.7698 114.747C67.7217 114.661 68.6277 114.297 69.3756 113.7C70.1834 113.036 70.8358 112.202 71.2865 111.257C71.7807 110.229 72.1454 109.144 72.3722 108.025V108.015C72.4053 107.873 72.4881 107.747 72.6054 107.662C72.7228 107.576 72.8669 107.535 73.0116 107.547C73.1564 107.559 73.2921 107.622 73.3941 107.726C73.496 107.83 73.5575 107.967 73.5673 108.113C73.6526 109.421 73.502 110.734 73.1226 111.988C72.7202 113.331 71.9857 114.55 70.9877 115.532C69.9185 116.57 68.5473 117.238 67.0738 117.439C65.5629 117.64 64.0285 117.323 62.7188 116.54C62.3949 116.344 62.0876 116.121 61.7998 115.874C61.7286 115.814 61.6522 115.745 61.5757 115.671C61.4993 115.598 61.4281 115.525 61.3568 115.452C61.219 115.303 61.0897 115.146 60.9695 114.982C60.5436 114.38 60.2077 113.718 59.9723 113.017C59.7622 112.403 59.5847 111.778 59.4408 111.145C59.2948 110.543 59.1715 109.96 59.0308 109.4C58.7546 108.278 58.421 107.244 57.8704 106.369C57.598 105.928 57.2619 105.53 56.8732 105.188C56.4602 104.832 56.0065 104.526 55.5217 104.277H55.5096C55.3815 104.209 55.2821 104.097 55.2294 103.961C55.1767 103.825 55.1742 103.675 55.2223 103.538C55.2705 103.4 55.3661 103.285 55.4917 103.212C55.6174 103.139 55.7649 103.114 55.9074 103.141L55.9091 103.136Z" fill="black"/>
<path d="M72.7511 111.66C72.8115 111.793 72.8811 111.921 72.9595 112.044C72.994 112.104 73.0317 112.162 73.0725 112.218C73.1194 112.271 73.1593 112.323 73.201 112.374C73.2448 112.424 73.2918 112.471 73.3417 112.515C73.3853 112.564 73.4343 112.608 73.4876 112.646C73.5415 112.684 73.5884 112.726 73.6388 112.764L73.8125 112.867C74.0355 113.002 74.2757 113.105 74.5265 113.174C74.6481 113.216 74.7818 113.237 74.9086 113.267C74.9736 113.279 75.0391 113.287 75.1049 113.291C75.1704 113.303 75.2366 113.31 75.303 113.312C75.838 113.343 76.3741 113.276 76.8855 113.115C77.0106 113.061 77.1409 113.028 77.2642 112.974C77.3876 112.92 77.5161 112.869 77.6325 112.799C77.8767 112.673 78.1092 112.525 78.3274 112.358C78.5577 112.19 78.7743 112.004 78.9753 111.801C79.0743 111.695 79.1821 111.597 79.2793 111.485C79.3766 111.374 79.4669 111.255 79.5677 111.136C79.9444 110.642 80.2797 110.116 80.57 109.566C81.1642 108.416 81.6123 107.123 82.0744 105.762V105.752C82.1188 105.619 82.2069 105.505 82.3242 105.429C82.4414 105.353 82.5809 105.32 82.7197 105.334C82.8585 105.348 82.9884 105.409 83.088 105.507C83.1876 105.605 83.251 105.735 83.2678 105.874C83.4519 107.431 83.2996 109.009 82.8214 110.501C82.5595 111.285 82.1993 112.032 81.7496 112.724C81.6262 112.899 81.4994 113.073 81.3709 113.248C81.2423 113.422 81.0912 113.574 80.9505 113.736C80.6504 114.055 80.3238 114.346 79.9742 114.609C79.6156 114.873 79.2335 115.103 78.8329 115.296C78.6331 115.397 78.4177 115.471 78.2092 115.551C78.0008 115.631 77.7784 115.684 77.5613 115.743C76.6715 115.949 75.7464 115.945 74.8583 115.732C74.4101 115.623 73.9792 115.451 73.578 115.223C73.3754 115.108 73.1814 114.979 72.9978 114.836C72.9053 114.763 72.8171 114.686 72.7337 114.603C72.6441 114.527 72.561 114.444 72.4853 114.354C72.1673 114.006 71.9179 113.6 71.7505 113.159C71.5927 112.728 71.5259 112.268 71.5542 111.81C71.5605 111.682 71.6077 111.559 71.6888 111.459C71.7699 111.36 71.8807 111.289 72.0048 111.257C72.1289 111.226 72.2598 111.235 72.3782 111.284C72.4966 111.333 72.5963 111.419 72.6625 111.529L72.7511 111.66Z" fill="black"/>
<path opacity="0.25" d="M88.7537 102.398C87.668 105.272 85.7502 109.416 83.1792 107.633C81.9492 109.85 81.9631 110.578 81.9631 110.578C81.9631 110.578 87.3831 113.668 88.7954 109.196C90.2077 104.724 88.7537 102.398 88.7537 102.398Z" fill="black"/>
<path opacity="0.25" d="M81.9492 106.326C80.8635 109.198 76.3382 113.344 73.4059 110.725C72.1742 112.942 72.8708 113.417 72.8708 113.417C72.8708 113.417 79.8855 116.507 81.2978 112.033C82.7101 107.559 81.9492 106.326 81.9492 106.326Z" fill="black"/>
<path opacity="0.25" d="M72.2838 108.325C71.4621 111.573 65.8042 114.689 62.4011 111.852C60.4416 113.457 61.0391 112.862 61.0391 112.862C61.0391 112.862 66.8291 118.575 69.7857 114.944C72.7424 111.313 72.2838 108.325 72.2838 108.325Z" fill="black"/>
<path d="M91.7641 99.6411C91.4271 100.184 91.269 100.822 91.1631 101.527C91.0571 102.232 91.0137 102.976 90.9668 103.747C90.9199 104.518 90.8712 105.317 90.7844 106.136C90.7392 106.546 90.6813 106.963 90.6107 107.387C90.5308 107.824 90.427 108.257 90.2997 108.683C90.1597 109.142 89.9777 109.587 89.756 110.013C89.5097 110.483 89.1933 110.912 88.8179 111.286C88.6181 111.481 88.4006 111.656 88.1682 111.81C88.0526 111.888 87.9325 111.96 87.8086 112.025L87.482 112.183C87.0238 112.398 86.5388 112.549 86.0402 112.634C85.5042 112.722 84.9563 112.706 84.4264 112.586C83.9038 112.46 83.4132 112.225 82.9863 111.897C82.5968 111.596 82.2618 111.229 81.9961 110.814C81.8696 110.619 81.7576 110.414 81.6608 110.203C81.6139 110.096 81.5687 109.99 81.5288 109.882C81.4888 109.774 81.4576 109.674 81.4159 109.533C81.3797 109.408 81.3853 109.274 81.4319 109.153C81.4784 109.031 81.5633 108.928 81.6735 108.859C81.7838 108.791 81.9134 108.76 82.0425 108.772C82.1716 108.785 82.2932 108.839 82.3887 108.927L82.512 109.043C82.5554 109.083 82.6197 109.159 82.6753 109.217C82.7309 109.275 82.7952 109.343 82.849 109.404C82.9724 109.526 83.0992 109.638 83.2277 109.742C83.4667 109.939 83.733 110.099 84.0181 110.219C84.4971 110.42 85.0347 110.43 85.5208 110.247C85.7922 110.151 86.0526 110.027 86.2973 109.875L86.4936 109.751C86.5422 109.714 86.5874 109.681 86.6308 109.643C86.7214 109.569 86.8051 109.487 86.881 109.398C87.234 108.939 87.491 108.413 87.6366 107.851C87.7357 107.531 87.8225 107.189 87.8955 106.833C87.9684 106.478 88.0431 106.113 88.1109 105.736C88.2481 104.986 88.3715 104.2 88.5434 103.4C88.7076 102.565 88.9489 101.747 89.2644 100.957C89.4403 100.531 89.661 100.126 89.9227 99.7475C90.2011 99.3465 90.5553 99.0044 90.965 98.7407C91.0816 98.668 91.2192 98.637 91.3555 98.6528C91.4918 98.6685 91.6188 98.7302 91.7158 98.8276C91.8129 98.9251 91.8742 99.0526 91.8899 99.1895C91.9056 99.3265 91.8748 99.4647 91.8023 99.5818L91.7641 99.6411Z" fill="black"/>
<path d="M87.2196 65.3907C96.6003 66.3015 89.1583 78.6169 90.5897 84.7345L83.7106 85.1236C83.7106 85.1236 75.3131 66.2806 87.2196 65.3907Z" fill="white"/>
<path d="M93.1712 65.8566C91.906 65.793 90.6382 65.7994 89.3737 65.8758C88.1815 65.9417 87.0079 66.2028 85.8994 66.6487C84.8676 67.0722 83.9442 67.7241 83.1981 68.5559C83.1037 68.6559 83.0166 68.7626 82.9376 68.8752C82.8559 68.9869 82.7638 69.0916 82.6874 69.205L82.4703 69.554C82.3923 69.6695 82.3232 69.7909 82.2635 69.9169C82.1331 70.1659 82.0171 70.4222 81.9161 70.6847L81.7615 71.0807L81.6382 71.4943C81.3212 72.6291 81.1811 73.8063 81.223 74.9841L81.2734 75.8862L81.3793 76.7883L81.527 77.6904L81.7233 78.589C82.022 79.7875 82.4212 80.9585 82.9167 82.0893C83.4166 83.2299 83.9971 84.3332 84.6539 85.3906V85.4063C84.8382 85.696 84.9003 86.0473 84.8267 86.3831C84.7531 86.7188 84.5497 87.0114 84.2613 87.1965C83.9729 87.3817 83.623 87.4441 83.2888 87.3701C82.9545 87.2962 82.6632 87.0919 82.4789 86.8022C80.9407 84.4885 79.8069 81.928 79.1262 79.2311L78.9004 78.2034L78.7267 77.1565L78.6172 76.1095L78.5703 75.0434C78.5406 73.5907 78.7352 72.1421 79.1471 70.7492C79.5688 69.2973 80.3185 67.9627 81.3376 66.8494C81.5985 66.5714 81.8783 66.3119 82.1749 66.0729L82.6197 65.724L83.0974 65.4151C83.7349 65.0225 84.4181 64.7101 85.1316 64.4851C86.5059 64.0707 87.9462 63.9233 89.3755 64.0506C90.7407 64.1687 92.0821 64.4824 93.3588 64.9824C93.4582 65.0214 93.5409 65.0943 93.5922 65.1884C93.6436 65.2824 93.6604 65.3916 93.6397 65.4968C93.619 65.6021 93.5621 65.6966 93.479 65.764C93.3959 65.8314 93.2918 65.8672 93.1851 65.8653L93.1712 65.8566Z" fill="black"/>
<path d="M90.3257 86.1514C90.091 86.1509 89.8633 86.0709 89.6795 85.9243C89.4957 85.7776 89.3666 85.573 89.313 85.3435C88.7831 83.0891 89.313 80.2606 89.8654 77.2664C90.5342 73.6615 91.2273 69.9379 89.7785 67.9818C89.1167 67.0867 87.9997 66.5685 86.3667 66.3922C86.0963 66.3576 85.8501 66.2179 85.6809 66.003C85.5118 65.7881 85.4333 65.5153 85.4622 65.2429C85.491 64.9705 85.625 64.7204 85.8353 64.5461C86.0457 64.3718 86.3157 64.2873 86.5874 64.3106C88.8005 64.5479 90.4369 65.3575 91.4514 66.7308C93.4439 69.4196 92.6674 73.6039 91.9135 77.6503C91.4219 80.3007 90.9129 83.0385 91.342 84.8636C91.4051 85.1336 91.3589 85.4178 91.2137 85.6536C91.0684 85.8895 90.8359 86.0578 90.5672 86.1217C90.4881 86.1409 90.4071 86.1509 90.3257 86.1514Z" fill="black"/>
<path d="M83.7038 86.4463L83.6639 86.3695C83.4988 86.4463 83.7038 86.4463 83.7038 86.4463Z" fill="black"/>
<path d="M87.8833 78.0393C88.2793 75.4761 84.5236 75.9874 84.7911 73.7679C85.0743 71.4315 89.3251 72.8588 87.9944 69.0235C87.5118 67.9529 86.6778 67.0813 85.6319 66.5545C75.1447 67.3135 83.1026 85.2876 83.6637 86.3572C83.8843 86.2368 84.772 85.9367 87.7304 85.1847C87.2127 82.9756 87.508 80.4874 87.8833 78.0393Z" fill="black"/>
<path d="M81.4385 87.891C82.6595 86.8315 84.019 85.9444 85.4791 85.2545C87.0076 84.5223 88.6684 84.1103 90.3605 84.0435C91.2462 84.0224 92.1305 84.1234 92.9888 84.3436C93.8678 84.5734 94.7055 84.9402 95.4712 85.4307C95.8574 85.6776 96.2218 85.9572 96.5605 86.2665C96.9015 86.5721 97.217 86.9054 97.5037 87.2628C98.0724 87.9772 98.5304 88.7737 98.8622 89.6254C99.5132 91.3163 99.6746 93.1577 99.3277 94.9369C99.1599 95.8092 98.879 96.6557 98.4922 97.4547C98.1071 98.2395 97.6301 98.9753 97.0712 99.6463C96.5179 100.3 95.8952 100.892 95.2142 101.41C94.5401 101.934 93.8592 102.325 93.3033 102.731C92.7335 103.138 92.216 103.614 91.7624 104.148C91.2855 104.717 90.8401 105.312 90.4283 105.93V105.93C90.3445 106.054 90.218 106.142 90.0731 106.178C89.9282 106.214 89.7753 106.194 89.6439 106.123C89.5125 106.052 89.412 105.935 89.3618 105.794C89.3115 105.652 89.3152 105.498 89.3721 105.359C89.6708 104.604 90.0317 103.875 90.4509 103.18C90.8975 102.454 91.4391 101.791 92.0612 101.21C92.6848 100.63 93.305 100.177 93.7984 99.6952C94.3039 99.2216 94.7623 98.6997 95.1672 98.137C95.5568 97.5859 95.8864 96.9945 96.1505 96.3729C96.4012 95.7628 96.5791 95.1249 96.6803 94.4727C96.8869 93.184 96.7484 91.8633 96.279 90.6462C96.1655 90.3455 96.0296 90.0539 95.8725 89.7737C95.72 89.4973 95.5458 89.2336 95.3514 88.985C95.1608 88.7347 94.9493 88.5012 94.7191 88.2871C94.4918 88.0693 94.2479 87.8697 93.9895 87.6903C93.465 87.3269 92.8902 87.043 92.2836 86.8476C91.9733 86.7477 91.6563 86.6701 91.3351 86.6155C91.0078 86.5553 90.6771 86.5162 90.3449 86.4986C88.9408 86.4525 87.5397 86.6575 86.207 87.1041C84.8172 87.5263 83.4709 88.1771 82.1281 88.8821C81.9967 88.9505 81.8448 88.9681 81.7014 88.9316C81.5579 88.8951 81.4327 88.8069 81.3496 88.6839C81.2665 88.5608 81.2312 88.4114 81.2505 88.264C81.2698 88.1166 81.3422 87.9814 81.4541 87.884L81.4385 87.891Z" fill="black"/>
<path d="M32.4488 83.5253C32.9263 83.578 33.3961 83.6857 33.849 83.8464C34.3128 84.0156 34.7535 84.2431 35.1605 84.5234C35.9582 85.1001 36.6293 85.8354 37.1322 86.6835C38.1363 88.3325 38.6574 90.107 39.1508 91.8205C39.3923 92.6807 39.6042 93.5357 39.83 94.3767C40.0559 95.2178 40.2852 96.0484 40.5249 96.8597C41.0252 98.4772 41.6176 100.025 42.4358 101.367C43.2176 102.68 44.3064 103.781 45.6078 104.576C45.9308 104.769 46.2643 104.943 46.6067 105.099L47.1695 105.34L47.7376 105.563C48.4916 105.855 49.264 106.096 50.0497 106.286C50.8371 106.471 51.6347 106.61 52.4383 106.701C53.2513 106.797 54.0799 106.835 54.9485 106.875C55.8826 106.9 56.8142 106.982 57.7384 107.12C58.2648 107.207 58.7811 107.347 59.2793 107.538C59.8049 107.746 60.3004 108.024 60.7524 108.364C61.0423 108.58 61.2371 108.901 61.2955 109.259C61.3538 109.617 61.2711 109.984 61.065 110.282C60.8588 110.579 60.5453 110.785 60.191 110.854C59.8366 110.924 59.4691 110.853 59.1664 110.655L59.1368 110.636C58.5762 110.291 57.9445 110.081 57.2902 110.02C56.5589 109.929 55.7268 109.911 54.8443 109.894C53.0846 109.864 51.165 109.733 49.3323 109.273C48.4157 109.05 47.5155 108.765 46.638 108.418L45.9883 108.147L45.349 107.859C44.8978 107.645 44.4593 107.404 44.0357 107.139C43.1826 106.606 42.4049 105.961 41.7235 105.219C41.3887 104.851 41.0749 104.465 40.7837 104.061C40.5006 103.656 40.233 103.243 39.9951 102.82C39.0379 101.124 38.4559 99.3305 38.0216 97.5612C37.801 96.6782 37.6238 95.7971 37.4588 94.9246L36.9741 92.3387C36.8161 91.4872 36.6458 90.6479 36.4304 89.8383C36.2371 89.0409 35.9701 88.2634 35.633 87.5159C35.3211 86.8009 34.8712 86.155 34.3093 85.6157C33.7269 85.0844 33.0292 84.6966 32.2716 84.4832H32.263C32.1482 84.4472 32.0508 84.3697 31.9895 84.2658C31.9282 84.1619 31.9075 84.0388 31.9312 83.9204C31.955 83.802 32.0215 83.6966 32.1181 83.6246C32.2146 83.5526 32.3343 83.5191 32.454 83.5305L32.4488 83.5253Z" fill="black"/>
<path d="M22.5539 84.1779L22.8718 84.7764C22.9778 84.9753 23.0768 85.1812 23.1949 85.3696C23.4259 85.7535 23.6448 86.1479 23.9019 86.5108C24.3848 87.2498 24.9288 87.9467 25.5279 88.5942C26.704 89.8764 28.1209 90.9124 29.6971 91.6425C30.5078 92.0129 31.3438 92.3248 32.1986 92.576C33.0672 92.8395 33.9792 93.0629 34.9242 93.3176C35.3985 93.4502 35.8796 93.5811 36.3747 93.7538C36.8905 93.9237 37.3923 94.1337 37.8756 94.382C38.4035 94.6529 38.893 94.9932 39.3314 95.394C39.7804 95.818 40.1619 96.3088 40.4623 96.8493C40.6262 97.1412 40.6703 97.4859 40.5853 97.81C40.5003 98.1341 40.2927 98.4122 40.0069 98.5851C39.721 98.7579 39.3792 98.8121 39.0543 98.7359C38.7293 98.6597 38.4467 98.4593 38.2665 98.1771L38.2144 98.0951C38.0437 97.8011 37.8313 97.5337 37.5838 97.3012C37.3123 97.0623 37.011 96.8599 36.6874 96.6992C35.9926 96.3502 35.1431 96.099 34.2554 95.8616C33.3677 95.6243 32.4105 95.4045 31.4534 95.1253C30.4746 94.8462 29.5173 94.4963 28.5888 94.0784C26.6874 93.2167 24.9737 91.9869 23.5458 90.4595C22.8391 89.7102 22.1958 88.903 21.6228 88.0463C21.3257 87.6293 21.0721 87.1896 20.808 86.7551C20.6708 86.5405 20.5596 86.3154 20.438 86.0938L20.0784 85.4272C19.9846 85.2657 19.9241 85.0869 19.9004 84.9014C19.8768 84.7159 19.8904 84.5275 19.9406 84.3475C19.9909 84.1674 20.0766 83.9993 20.1927 83.8531C20.3088 83.707 20.453 83.5857 20.6167 83.4966C20.7804 83.4075 20.9602 83.3524 21.1455 83.3344C21.3308 83.3165 21.5179 83.3361 21.6955 83.3922C21.8731 83.4482 22.0377 83.5396 22.1795 83.6608C22.3212 83.7819 22.4374 83.9305 22.5209 84.0976V84.1081L22.5539 84.1779Z" fill="black"/>
<path d="M58.4054 69.5766C56.6075 69.0375 54.7887 68.6623 52.9872 68.6257C52.0983 68.5957 51.2086 68.6541 50.3311 68.8002C49.4749 68.9372 48.6368 69.1713 47.8331 69.4981C46.2655 70.128 44.8964 71.1716 43.8706 72.5185C43.3701 73.1822 42.9644 73.9128 42.665 74.6892C42.3638 75.474 42.1669 76.2954 42.0796 77.132C41.9882 77.9844 41.9958 78.8446 42.1022 79.6953C42.1489 80.1274 42.222 80.5563 42.3211 80.9795L42.394 81.2936L42.4826 81.6059C42.5382 81.8153 42.6094 82.0212 42.6772 82.2271C43.2435 83.8795 44.1816 85.4516 45.2326 87.0116C45.7624 87.7898 46.3096 88.582 46.8655 89.3707C47.4214 90.1594 47.9773 90.9742 48.4897 91.8257C49.532 93.5113 50.4197 95.3748 50.8227 97.3657C50.8555 97.5157 50.8302 97.6727 50.7518 97.8046C50.6735 97.9365 50.548 98.0334 50.401 98.0757C50.254 98.1179 50.0965 98.1023 49.9605 98.032C49.8246 97.9617 49.7204 97.842 49.6693 97.6973V97.6973C49.3454 96.8348 48.9497 96.0012 48.4863 95.2056C48.0123 94.4071 47.4944 93.6359 46.935 92.8953C46.3704 92.1485 45.778 91.4087 45.1735 90.6671C44.569 89.9255 43.9453 89.1787 43.3477 88.3987C42.7258 87.6051 42.1465 86.7786 41.6123 85.9228C41.0644 85.0372 40.5992 84.1026 40.2226 83.1309C40.1305 82.8832 40.0332 82.6371 39.9568 82.3824L39.8387 82.0003L39.7344 81.6129C39.5995 81.1004 39.4928 80.5808 39.4148 80.0564C39.2548 78.9933 39.2251 77.9145 39.3262 76.8441C39.5236 74.6494 40.351 72.5594 41.7079 70.8277C42.3868 69.9691 43.1888 69.2164 44.0878 68.5943C44.9753 67.9805 45.9435 67.4936 46.9645 67.1478C48.9866 66.4498 51.1337 66.3312 53.1557 66.5946C55.1549 66.8739 57.0892 67.506 58.8693 68.4617C59.0014 68.5321 59.1028 68.6493 59.1536 68.7907C59.2045 68.932 59.2013 69.0872 59.1445 69.2262C59.0878 69.3653 58.9816 69.4781 58.8466 69.5429C58.7116 69.6076 58.5575 69.6197 58.4141 69.5766H58.4054Z" fill="black"/>
<path d="M79.2011 62.618C80.4746 61.0919 81.9511 59.7491 83.5892 58.6275L83.9019 58.4146L84.2268 58.2209C84.4456 58.0918 84.6628 57.9592 84.8834 57.8336C85.3349 57.5891 85.7988 57.3683 86.2731 57.1722C86.7548 56.9737 87.2472 56.8024 87.748 56.6593L88.521 56.4848C88.7799 56.4254 89.0422 56.401 89.3114 56.3591C90.4018 56.2234 91.5074 56.2825 92.5773 56.5336C92.8509 56.594 93.1202 56.6727 93.3833 56.7692L93.7794 56.9158C93.8454 56.9419 93.9114 56.9646 93.9757 56.9925L94.1668 57.085C94.6774 57.3277 95.1632 57.6199 95.6173 57.9574C96.513 58.6288 97.2814 59.4562 97.8861 60.4003C98.4663 61.3201 98.9247 62.312 99.2497 63.3509L99.4704 64.1204C99.5381 64.3769 99.5867 64.6439 99.6441 64.8951L99.7257 65.2842L99.783 65.6733C99.8195 65.9316 99.8647 66.1968 99.8925 66.4516C99.9342 66.975 99.995 67.4985 99.9915 68.0097L100.004 68.7862L99.9776 69.5575C99.9776 70.0809 99.9064 70.5782 99.8664 71.0895C99.8491 71.3442 99.8039 71.599 99.7709 71.8555C99.7379 72.112 99.7031 72.365 99.6597 72.6197L99.5086 73.3753L99.4304 73.7539L99.3383 74.1256L99.1507 74.8707L98.9336 75.6017C98.8658 75.8478 98.7859 76.0851 98.706 76.3241C98.6261 76.5632 98.5497 76.804 98.4645 77.036C98.2908 77.5019 98.1171 77.9678 97.9434 78.4197C97.596 79.3271 97.2485 80.2118 96.9445 81.0685C96.6482 81.9004 96.4108 82.7523 96.234 83.6178C96.086 84.4573 96.0191 85.3093 96.0343 86.1618V86.2159C96.0429 86.3992 96.0156 86.5824 95.9537 86.7551C95.8919 86.9278 95.7968 87.0866 95.6739 87.2224C95.551 87.3582 95.4026 87.4683 95.2373 87.5465C95.072 87.6247 94.893 87.6694 94.7105 87.6781C94.528 87.6868 94.3456 87.6593 94.1737 87.5972C94.0017 87.5351 93.8437 87.4396 93.7085 87.3162C93.5733 87.1927 93.4637 87.0437 93.3858 86.8777C93.308 86.7116 93.2635 86.5318 93.2548 86.3485C93.1678 85.2775 93.1993 84.2002 93.3486 83.1362C93.5163 82.107 93.7655 81.0929 94.0938 80.1036C94.4013 79.1334 94.7626 78.2313 95.0892 77.3344C95.4158 76.4376 95.7285 75.5721 95.9995 74.7014L96.1941 74.0488L96.3678 73.3927L96.4512 73.0664L96.5189 72.7367L96.6527 72.0771L96.7586 71.4158C96.7917 71.1924 96.8368 70.9743 96.8542 70.7492C96.8959 70.3008 96.9636 69.8506 96.9741 69.4039L97.0105 68.7321V68.0656C97.0227 67.6172 96.974 67.1809 96.9584 66.7377C96.941 66.5196 96.9098 66.3033 96.8872 66.0851L96.8507 65.7588L96.7934 65.4395C96.7517 65.2266 96.7204 65.0103 96.6735 64.8009L96.5154 64.178C96.0447 62.5465 95.2456 61.0284 94.0122 60.0269C93.3992 59.5214 92.6949 59.1393 91.938 58.9014C91.1505 58.6624 90.3276 58.5627 89.506 58.6065C89.2941 58.624 89.0821 58.6205 88.8702 58.6519L88.2309 58.7444C87.8009 58.8297 87.3758 58.9386 86.9576 59.0707C86.532 59.1893 86.1185 59.3673 85.6964 59.5244C85.4914 59.6151 85.2864 59.7145 85.0797 59.8088L84.7705 59.9519L84.47 60.1141C82.8307 61.0063 81.2934 62.0759 79.8856 63.3038V63.3038C79.7922 63.3805 79.6738 63.4196 79.5534 63.4135C79.433 63.4074 79.319 63.3567 79.2338 63.271C79.1485 63.1854 79.0979 63.0709 79.0919 62.95C79.0859 62.829 79.1248 62.7101 79.2011 62.6163V62.618Z" fill="black"/>
<path d="M51.3093 86.455C51.4708 86.2927 51.6167 86.1688 51.7731 86.031C51.9294 85.8931 52.0893 85.7744 52.2526 85.6523C52.5757 85.408 52.9161 85.1899 53.2636 84.977C53.9672 84.5608 54.7075 84.2103 55.475 83.9301C57.0597 83.3401 58.7529 83.102 60.438 83.2322C61.3013 83.3019 62.152 83.4831 62.9691 83.7713C63.1741 83.8394 63.3721 83.9319 63.5736 84.0121C63.6726 84.0558 63.7734 84.0941 63.8707 84.1413L64.1573 84.2931L64.4439 84.4431C64.5406 84.4911 64.634 84.5453 64.7236 84.6054L65.2639 84.9544C65.4376 85.073 65.6113 85.2144 65.7711 85.3435L66.0195 85.5424C66.1029 85.6087 66.1759 85.6872 66.2523 85.7588C66.4052 85.9053 66.5581 86.0484 66.7075 86.1967C66.8569 86.345 66.9837 86.5091 67.1192 86.6678C67.3867 86.9821 67.6334 87.3138 67.8575 87.6607C68.0748 88.0057 68.2737 88.3622 68.4533 88.7285C68.5182 88.8536 68.538 88.9974 68.5093 89.1355C68.4806 89.2736 68.4053 89.3974 68.296 89.486C68.1867 89.5746 68.0503 89.6225 67.9099 89.6215C67.7694 89.6205 67.6337 89.5707 67.5257 89.4806L67.4979 89.4562C66.3461 88.493 65.217 87.6485 64.0062 87.0535C63.409 86.7674 62.7882 86.5338 62.1509 86.3555C61.9893 86.3189 61.8313 86.277 61.6732 86.2351C61.5151 86.1932 61.3501 86.1758 61.1902 86.1426C61.0304 86.1095 60.8654 86.092 60.7021 86.0693L60.4572 86.0362L60.2087 86.0188C58.8463 85.9215 57.477 86.0155 56.1403 86.2979C55.4455 86.4323 54.7506 86.605 54.0557 86.8022C53.7083 86.9052 53.3609 87.0081 53.0134 87.1215L51.9798 87.4705L51.9329 87.4862C51.8022 87.5304 51.6603 87.5288 51.5306 87.4815C51.4009 87.4343 51.291 87.3443 51.2188 87.2262C51.1466 87.1081 51.1164 86.9689 51.1332 86.8314C51.1499 86.6938 51.2126 86.5661 51.311 86.4689L51.3093 86.455Z" fill="black"/>
<path d="M91.3717 57.3153C91.1858 56.3714 90.7168 55.5321 90.1904 54.698C89.9316 54.2792 89.6415 53.8674 89.3479 53.4574C89.0543 53.0473 88.7486 52.639 88.4307 52.2359C87.8035 51.4263 87.1347 50.6307 86.4694 49.8315L85.4653 48.631C85.2916 48.4269 85.1283 48.2314 84.965 48.0273C84.8017 47.8231 84.628 47.6172 84.4838 47.4305L84.4491 47.3834C84.2289 47.1132 84.1175 46.7699 84.1369 46.4212C84.1564 46.0725 84.3052 45.7439 84.5541 45.5C84.803 45.2562 85.1338 45.1149 85.4813 45.104C85.8288 45.0932 86.1677 45.2135 86.4312 45.4414C86.6692 45.6368 86.8707 45.8165 87.0791 46.0119C87.2876 46.2074 87.4839 46.4028 87.6819 46.6017C88.0763 47.0013 88.4515 47.4183 88.8128 47.8493C89.5412 48.7173 90.2021 49.6401 90.7897 50.6097C91.0909 51.1028 91.3652 51.6118 91.6114 52.1348C91.8659 52.6685 92.0796 53.2209 92.2507 53.7872C92.43 54.3716 92.543 54.9745 92.5877 55.5844C92.6394 56.223 92.5504 56.8652 92.3271 57.4654C92.2857 57.5639 92.2141 57.6466 92.1227 57.7014C92.0313 57.7562 91.9248 57.7803 91.8189 57.7702C91.7129 57.7601 91.6129 57.7163 91.5334 57.6451C91.4539 57.574 91.3991 57.4792 91.3769 57.3747L91.3717 57.3153Z" fill="black"/>
<path d="M82.3558 95.1183C80.4258 90.114 75.4662 89.0287 73.8871 97.1145C73.8515 97.298 73.8713 97.4879 73.9441 97.66C74.0168 97.8321 74.1391 97.9783 74.2953 98.08C74.4514 98.1817 74.6343 98.2341 74.8203 98.2306C75.0064 98.2271 75.1872 98.1678 75.3394 98.0602L77.7332 96.3624C78.1315 96.0806 78.5945 95.905 79.0789 95.8522C79.5632 95.7994 80.053 95.8711 80.5022 96.0606L81.1259 96.324C81.2949 96.3954 81.4812 96.4151 81.6613 96.3807C81.8415 96.3464 82.0076 96.2594 82.1388 96.1308C82.27 96.0021 82.3606 95.8375 82.3992 95.6574C82.4378 95.4773 82.4227 95.2898 82.3558 95.1183Z" fill="white"/>
<path d="M74.8026 99.2799C74.5114 99.279 74.224 99.2136 73.9608 99.0883C73.6976 98.9631 73.4652 98.7811 73.2801 98.5553C73.095 98.3296 72.9617 98.0656 72.8897 97.7821C72.8178 97.4987 72.809 97.2028 72.8639 96.9156C73.9531 91.3319 76.4529 90.2955 77.8443 90.1733C80.0332 89.9796 82.1872 91.7734 83.3286 94.7449C83.4689 95.1079 83.4998 95.5044 83.4174 95.885C83.335 96.2655 83.1429 96.6132 82.865 96.8849C82.5872 97.1565 82.2359 97.34 81.855 97.4125C81.4741 97.4849 81.0803 97.4432 80.7228 97.2925L80.0974 97.029C79.8116 96.9071 79.4994 96.8609 79.1907 96.8948C78.882 96.9287 78.5871 97.0416 78.3342 97.2227L75.9404 98.9187C75.6074 99.1542 75.2099 99.2804 74.8026 99.2799V99.2799ZM78.1692 92.248C78.1223 92.248 78.0754 92.248 78.0285 92.248C76.7117 92.3649 75.5756 94.1482 74.9641 97.0377L77.1321 95.5005C77.6737 95.114 78.3048 94.8733 78.9653 94.8012C79.6258 94.7291 80.2936 94.8281 80.9052 95.0887L81.2874 95.2492C80.5248 93.4258 79.3088 92.248 78.1692 92.248V92.248Z" fill="black"/>
<path d="M77.7453 92.2724C78.6295 92.672 79.0256 95.6104 79.0256 95.6104L73.8679 97.9625C73.8679 97.9625 74.4273 94.1866 74.4916 94.0714C75.8344 91.6896 77.7453 92.2724 77.7453 92.2724Z" fill="black"/>
<path d="M20.4191 86.0763C17.961 81.4227 16.3246 77.6119 15.2649 74.0837C13.9082 69.5645 13.4722 65.4238 13.9325 61.4228C15.0235 51.9219 21.2564 43.2132 32.9892 34.7958C45.6565 25.7067 55.2422 22.189 63.1567 23.7245C72.5235 25.5427 78.1223 34.3404 84.0495 43.6529L84.4873 44.3508L82.1473 45.8549L81.7078 45.157C75.8675 35.9806 70.8245 28.0571 62.6303 26.4657C55.6122 25.1047 46.4452 28.5718 34.6047 37.0677C23.5477 44.9999 17.69 53.0718 16.6929 61.7439C15.7531 69.9449 19.2899 77.9713 22.8754 84.7764L20.4191 86.0763Z" fill="black"/>
<path d="M33.3156 38.5962C32.2472 40.7756 31.231 42.9584 30.7376 45.2023C30.2443 47.4463 30.2773 49.739 30.7376 52.0213C31.198 54.3037 32.0196 56.5354 32.9386 58.7496C33.8576 60.9639 34.919 63.1468 35.9283 65.3802C35.977 65.4828 35.9856 65.6 35.9524 65.7087C35.9192 65.8173 35.8466 65.9095 35.749 65.967C35.6514 66.0245 35.5358 66.043 35.4252 66.019C35.3146 65.995 35.217 65.9302 35.1517 65.8374C34.4239 64.8445 33.7446 63.8185 33.0967 62.7664C32.7701 62.2429 32.4696 61.7037 32.1569 61.1698C31.8442 60.6359 31.5645 60.0827 31.2883 59.5261C30.1626 57.3136 29.2141 54.9632 28.6965 52.4436C28.435 51.1739 28.3184 49.8784 28.349 48.5822C28.3822 47.2799 28.5926 45.9884 28.9744 44.7434C29.1589 44.1276 29.3799 43.5233 29.6363 42.934C29.8986 42.3529 30.173 41.7806 30.4823 41.231C31.0932 40.1406 31.7854 39.0983 32.553 38.1129C32.6226 38.0257 32.7217 37.9673 32.8314 37.9488C32.9411 37.9303 33.0537 37.9529 33.1479 38.0123C33.2421 38.0718 33.3112 38.164 33.3421 38.2713C33.373 38.3786 33.3636 38.4937 33.3156 38.5944V38.5962Z" fill="#4D4D4D"/>
<path d="M89.7752 56.2213C89.7959 56.3644 89.8478 56.5011 89.9272 56.6216C90.0066 56.7421 90.1116 56.8436 90.2346 56.9186C90.3576 56.9936 90.4956 57.0404 90.6387 57.0556C90.7818 57.0708 90.9265 57.0541 91.0624 57.0065C100.903 53.5883 107.109 45.1413 109.921 38.8597C122.18 11.4649 93.0445 0.533222 72.1534 27.2771C63.7768 38.6957 59.533 47.7097 43.8812 61.4437C33.6024 70.4631 27.2878 76.7168 21.7966 85.0957C36.0031 60.9203 86.9193 35.6596 89.7752 56.2213Z" fill="#333333"/>
<path d="M21.7949 86.4899C21.5501 86.4895 21.3098 86.4241 21.0982 86.3005C20.8867 86.1768 20.7114 85.9992 20.5901 85.7857C20.4688 85.5721 20.4058 85.3302 20.4075 85.0843C20.4092 84.8384 20.4755 84.5974 20.5997 84.3855C22.4377 81.257 24.8905 78.1039 27.7794 75.0085C31.9087 70.3531 36.7692 65.8287 42.9674 60.3899C54.834 49.9781 60.075 42.3006 65.6217 34.1764C67.3154 31.6951 69.0665 29.1302 71.0347 26.4483C71.0418 26.4365 71.05 26.4254 71.059 26.4151C76.684 19.214 83.2765 14.187 90.1261 11.875C96.4476 9.74272 102.46 10.1004 107.032 12.8818C113.128 16.5844 117.42 25.5008 111.187 39.4303C109.688 42.7804 103.839 54.0472 91.5158 58.3256C91.1861 58.4406 90.8351 58.4809 90.488 58.4435C90.141 58.4061 89.8065 58.2919 89.5086 58.1093C89.2106 57.9266 88.9567 57.68 88.7649 57.387C88.5731 57.0941 88.4483 56.7621 88.3994 56.415V56.415C87.9286 53.0247 85.9864 51.0338 82.4635 50.3271C75.7355 48.9765 63.8915 52.6373 51.5525 59.8821C43.0925 64.848 35.5411 70.7911 29.9161 76.7866C27.3631 79.623 25.0362 82.6568 22.9571 85.86C22.8306 86.0536 22.6581 86.2125 22.4552 86.3224C22.2524 86.4324 22.0254 86.4899 21.7949 86.4899ZM73.26 28.1216C71.3248 30.7599 69.5911 33.2987 67.9148 35.7555C63.2244 42.6286 58.746 49.1912 50.4111 57.3101C62.4827 50.252 75.0788 45.9963 83.009 47.5894C87.5256 48.495 90.305 51.2344 91.0711 55.5216C102.027 51.4874 107.287 41.3357 108.653 38.2856C113.244 28.0239 112.072 19.2052 105.596 15.2723C98.0823 10.7181 84.5654 13.6583 73.26 28.1216Z" fill="black"/>
<path opacity="0.25" d="M32.718 84.581C36.6266 88.1458 31.9693 93.623 27.7219 90.7142C29.8447 94.9805 38.5809 95.7081 38.5809 95.7081C38.5809 95.7081 37.9295 85.4552 32.718 84.581Z" fill="black"/>
<path opacity="0.25" d="M55.6192 104.338C56.4878 105.162 55.3777 107.392 51.1304 106.519C54.7993 108.943 60.2053 109.041 60.2053 109.041L57.3094 104.385L55.6192 104.338Z" fill="black"/>
<path d="M92.8447 32.2535C94.1633 31.8923 95.4939 31.6079 96.8142 31.3322L100.764 30.5418C102.074 30.28 103.37 30.0183 104.663 29.7077C105.955 29.3971 107.216 29.0708 108.404 28.5666H108.425C108.524 28.5245 108.634 28.5186 108.736 28.5499C108.838 28.5811 108.926 28.6475 108.985 28.7374C109.043 28.8273 109.068 28.9349 109.055 29.0415C109.043 29.1481 108.993 29.2468 108.915 29.3204C108.781 29.446 108.642 29.5681 108.502 29.6885L108.064 30.0166C107.915 30.1195 107.762 30.2172 107.609 30.3167L107.142 30.5871C106.516 30.9256 105.868 31.2212 105.203 31.4718C103.892 31.958 102.544 32.3368 101.173 32.6042C99.8159 32.8749 98.4439 33.062 97.0643 33.1644C95.6832 33.2769 94.2953 33.2769 92.9142 33.1644C92.8073 33.1549 92.7071 33.1078 92.6312 33.0315C92.5553 32.9552 92.5086 32.8545 92.4993 32.7471C92.49 32.6396 92.5186 32.5324 92.5802 32.444C92.6418 32.3557 92.7324 32.2919 92.8361 32.264L92.8447 32.2535Z" fill="black"/>
<path d="M91.6703 38.2629C92.9888 37.9017 94.3194 37.6173 95.6397 37.3433L99.59 36.5512C100.902 36.2894 102.196 36.0277 103.488 35.7171C104.781 35.4065 106.042 35.0802 107.23 34.5759H107.251C107.349 34.5339 107.459 34.528 107.561 34.5592C107.664 34.5904 107.752 34.6568 107.81 34.7467C107.869 34.8366 107.894 34.9443 107.881 35.0509C107.868 35.1575 107.819 35.2562 107.741 35.3297C107.607 35.4554 107.468 35.5775 107.327 35.6979L106.89 36.0277C106.74 36.1289 106.587 36.2266 106.436 36.3261L105.969 36.5965C105.342 36.9347 104.694 37.2302 104.028 37.4812C102.718 37.9679 101.37 38.3466 99.9982 38.6136C98.6414 38.8844 97.2694 39.0715 95.8898 39.1737C94.5093 39.2871 93.122 39.2871 91.7415 39.1737C91.6344 39.1645 91.534 39.1177 91.4579 39.0416C91.3818 38.9654 91.3348 38.8647 91.3253 38.7572C91.3158 38.6497 91.3442 38.5423 91.4057 38.4538C91.4672 38.3653 91.5578 38.3014 91.6616 38.2734L91.6703 38.2629Z" fill="black"/>
<path d="M94.5627 42.5693C94.8841 41.2467 95.2576 39.9398 95.6294 38.645L96.7359 34.7766C97.0834 33.4872 97.4308 32.2012 97.7522 30.9082C98.0736 29.6152 98.3289 28.3188 98.6034 26.9892V26.9735C98.6255 26.8686 98.6834 26.7749 98.7672 26.7084C98.8509 26.642 98.9552 26.6071 99.0618 26.6098C99.1685 26.6125 99.2709 26.6526 99.3512 26.7232C99.4315 26.7937 99.4847 26.8903 99.5015 26.9962C99.6962 28.3977 99.7132 29.8183 99.5519 31.224C99.3851 32.6147 99.1139 33.9906 98.7406 35.3402C98.3646 36.6796 97.9004 37.9923 97.3509 39.2697C96.809 40.555 96.1496 41.7869 95.381 42.9497C95.3207 43.0385 95.2314 43.1033 95.1285 43.1328C95.0256 43.1622 94.9157 43.1545 94.8179 43.1109C94.7201 43.0673 94.6406 42.9906 94.5934 42.8941C94.5461 42.7977 94.534 42.6877 94.5593 42.5833L94.5627 42.5693Z" fill="black"/>
<path d="M100.486 41.4578C100.768 40.1265 101.11 38.8108 101.456 37.5091L102.512 33.6215C102.859 32.3303 103.207 31.0391 103.546 29.7461C103.884 28.4532 104.185 27.1567 104.534 25.8376V25.8271C104.561 25.7231 104.624 25.632 104.711 25.5698C104.799 25.5076 104.905 25.4782 105.012 25.4867C105.119 25.4952 105.219 25.5411 105.296 25.6164C105.372 25.6917 105.42 25.7916 105.43 25.8986C105.553 27.2937 105.523 28.698 105.34 30.0864C105.159 31.465 104.885 32.8297 104.52 34.1712C104.155 35.5055 103.71 36.8166 103.188 38.0972C102.672 39.3871 102.045 40.629 101.313 41.8085C101.248 41.911 101.145 41.9832 101.027 42.0094C100.908 42.0356 100.785 42.0135 100.683 41.9481C100.605 41.8973 100.544 41.8242 100.508 41.7384C100.472 41.6525 100.463 41.5578 100.481 41.4665L100.486 41.4578Z" fill="black"/>
</g>
<defs>
<clipPath id="clip0_736_2253">
<rect width="100.476" height="107" fill="white" transform="translate(13.7622 10.5)"/>
</clipPath>
</defs>
</svg>
