<svg width="672" height="297" viewBox="0 0 672 297" fill="none" xmlns="http://www.w3.org/2000/svg">
<path fill-rule="evenodd" clip-rule="evenodd" d="M226.472 154.914C226.472 209.701 295.396 209.525 295.396 145.082C295.396 131.556 285 108.484 262.893 108.484C242.231 108.44 226.472 129.048 226.472 154.914ZM276.157 152.912C276.157 184.518 247.178 182.252 247.178 155.881C247.178 127.113 276.157 127.619 276.157 152.868V152.912ZM238.051 202.245L239.32 203.916C209.115 225.493 174.555 211.043 154.396 186.189C156.222 207.853 160.136 229.288 166.084 250.192C166.084 250.192 157.723 255.075 149.494 260.551C140.857 232.62 134.398 209.651 129.683 185.3C133.297 182.148 137.672 177.799 142.666 171.939C139.651 174.153 134.279 176.886 128.598 179.495C128.595 179.483 128.593 179.471 128.591 179.459C120.077 182.978 111.519 186.189 103.07 189.026C102.107 184.298 101.166 179.899 100.268 175.83C109.374 172.384 118.019 168.719 126.205 164.833C122.265 138.154 120.077 108.066 119.201 67.3329C131.789 60.7157 144.805 54.9549 158.161 50.0895C154.077 83.5499 152.197 117.245 152.536 150.955C237.701 100.368 253.066 32.4062 180.596 32.4062C135.136 32.4062 56.6255 67.8603 12.0623 98.8719C12.0834 98.8376 11.7792 97.2381 11.2411 94.4082L11.2411 94.4081L11.2411 94.408C9.69909 86.2983 6.23593 68.0849 3 47.6481C23.0709 37.2229 96.0222 3 167.157 3C227.742 3 253.788 28.0733 253.788 57.2595C253.788 101.094 209.006 139.892 156.41 166.658C170.725 186.915 194.691 192.304 218.067 177.655C221.375 188.107 228.521 196.9 238.051 202.245ZM12.0615 98.8725C12.0617 98.8723 12.062 98.8721 12.0623 98.8719C12.062 98.8723 12.0618 98.8725 12.0615 98.8725ZM367.603 174.928C370.184 141.139 371.647 120.185 372.673 105.491C374.065 85.5417 374.652 77.1282 376.14 63.7918C376.14 63.7918 360.205 65.9912 347.336 69.0484C347.664 74.7889 347.926 80.5733 348.123 86.4458C344.199 84.2192 339.76 83.0735 335.254 83.1247C291.281 83.1247 291.741 163.579 330.613 163.579C336.844 163.553 342.843 161.201 347.445 156.981C347.095 164.606 346.657 172.524 346.132 180.735C284.606 199.936 249.235 235.72 249.235 262.377C249.235 281.226 259.457 293.675 282.461 293.675C318.116 293.675 350.838 255.559 360.205 215.419C353.143 216.08 346.136 217.241 339.237 218.895C319.713 268.381 300.54 280.478 281.06 280.478C271.101 280.478 264.36 275.375 264.36 265.082C264.36 234.62 319.188 200.243 392.314 200.243C451.805 200.243 494.245 214.804 494.245 214.804C500.811 183.66 503 171.321 503 171.321C491.925 169.21 427.969 161.27 367.603 174.928ZM338.427 145.654C317.481 145.654 319.166 106.219 337.814 106.219C339.856 106.207 341.875 106.651 343.726 107.518C345.577 108.385 347.213 109.654 348.517 111.233C348.517 120.867 348.364 130.83 348.036 141.321C346.844 142.701 345.366 143.804 343.707 144.552C342.048 145.301 340.246 145.676 338.427 145.654ZM389.228 40.434C389.287 38.1523 389.807 35.9065 390.758 33.8336C391.709 31.7607 393.07 29.9042 394.758 28.3773C396.447 26.8504 398.427 25.6851 400.578 24.9526C402.73 24.2201 405.007 23.9356 407.271 24.1166C409.535 24.2976 411.739 24.9403 413.748 26.0054C415.757 27.0705 417.529 28.5357 418.956 30.3116C420.383 32.0875 421.435 34.1369 422.047 36.3348C422.66 38.5327 422.821 40.833 422.519 43.0953C422.461 45.377 421.94 47.6229 420.989 49.6958C420.039 51.7687 418.678 53.6252 416.989 55.1521C415.301 56.679 413.321 57.8442 411.169 58.5768C409.018 59.3093 406.741 59.5937 404.477 59.4127C402.212 59.2317 400.009 58.5891 398 57.524C395.991 56.4589 394.219 54.9937 392.792 53.2178C391.365 51.4418 390.313 49.3924 389.7 47.1945C389.088 44.9966 388.927 42.6964 389.228 40.434ZM419.521 103.711C422.495 105.291 425.56 106.687 428.701 107.893L428.703 107.881C429.111 108.042 429.518 108.199 429.925 108.352C430.272 108.479 430.62 108.604 430.968 108.726V108.734C440.855 112.277 450.215 113.298 456.62 113.587C477.598 113.607 496.762 101.706 496.762 81.3211C496.762 68.8725 487.285 59.7669 474.087 59.7669C454.388 59.7669 437.228 78.3739 432.391 98.0147C429.27 96.9184 426.215 95.6406 423.242 94.1877C422.541 95.8153 419.521 103.711 419.521 103.711ZM461.611 144.488C445.013 144.488 432.882 130.951 431.174 113.093L431.771 113.174C436.535 113.83 443.71 114.817 452.348 114.14C454.038 124.862 461.388 129.07 469.03 129.07C477.786 129.07 486.103 119.987 486.103 119.987L492.253 127.773C485.993 135.449 473.999 144.488 461.611 144.488ZM479.449 83.9165C479.449 91.9883 471.11 102.26 452.615 101.512C457.014 75.2288 479.449 68.7405 479.449 83.8725V83.9165ZM384.326 110.793C384.189 97.2764 385.837 83.801 389.228 70.72L390.082 70.566C398.854 73.522 408.403 73.1147 416.894 69.4223C410.459 86.8417 406.979 103.447 406.979 116.556C406.979 132.348 415.931 136.35 425.015 124.056C425.964 127.656 427.439 131.095 429.392 134.261C423.92 142.223 416.654 147.172 408.03 147.172C393.825 147.15 384.326 132.458 384.326 110.793Z" fill="#E9E1D7"/>
<path d="M262.893 108.484L262.887 111.484H262.893V108.484ZM239.32 203.916L241.064 206.358C241.724 205.886 242.165 205.168 242.286 204.366C242.408 203.565 242.2 202.748 241.709 202.102L239.32 203.916ZM238.051 202.245L240.44 200.43C240.191 200.103 239.877 199.83 239.518 199.628L238.051 202.245ZM154.396 186.189L156.726 184.299C155.897 183.277 154.497 182.914 153.276 183.406C152.054 183.898 151.296 185.129 151.407 186.441L154.396 186.189ZM166.084 250.192L167.597 252.783C168.78 252.092 169.345 250.688 168.97 249.371L166.084 250.192ZM149.494 260.551L146.628 261.438C146.907 262.342 147.597 263.061 148.488 263.378C149.379 263.695 150.368 263.573 151.156 263.049L149.494 260.551ZM129.683 185.3L127.711 183.04C126.906 183.742 126.535 184.821 126.738 185.871L129.683 185.3ZM142.666 171.939L144.949 173.885C145.937 172.726 145.899 171.011 144.862 169.896C143.825 168.781 142.117 168.62 140.89 169.521L142.666 171.939ZM128.598 179.495L125.645 180.027C125.809 180.94 126.387 181.726 127.209 182.155C128.032 182.584 129.006 182.609 129.849 182.221L128.598 179.495ZM128.591 179.459L131.543 178.927C131.383 178.034 130.826 177.262 130.03 176.827C129.234 176.391 128.284 176.34 127.445 176.686L128.591 179.459ZM103.07 189.026L100.13 189.625C100.302 190.468 100.827 191.196 101.572 191.626C102.317 192.055 103.21 192.144 104.025 191.87L103.07 189.026ZM100.268 175.83L99.2066 173.024C97.8133 173.551 97.018 175.021 97.3388 176.476L100.268 175.83ZM126.205 164.833L127.492 167.543C128.683 166.977 129.366 165.7 129.173 164.395L126.205 164.833ZM119.201 67.3329L117.805 64.6774C116.798 65.2067 116.177 66.26 116.202 67.3973L119.201 67.3329ZM158.161 50.0895L161.139 50.453C161.265 49.4171 160.845 48.3899 160.027 47.7407C159.21 47.0915 158.115 46.9135 157.134 47.2707L158.161 50.0895ZM152.536 150.955L149.536 150.985C149.547 152.058 150.13 153.043 151.065 153.569C152 154.095 153.145 154.082 154.068 153.534L152.536 150.955ZM11.2411 94.4082L8.28605 94.9253C8.28857 94.9397 8.2912 94.9542 8.29394 94.9686L11.2411 94.4082ZM11.2411 94.4081L14.1962 93.8909C14.1907 93.8592 14.1846 93.8277 14.1781 93.7962L11.2411 94.4081ZM11.2411 94.408L8.29391 94.9684C8.29718 94.9856 8.30059 95.0027 8.30416 95.0198L11.2411 94.408ZM3 47.6481L1.61716 44.9858C0.471503 45.5809 -0.164983 46.8422 0.0369138 48.1173L3 47.6481ZM156.41 166.658L155.049 163.985C154.273 164.38 153.707 165.093 153.498 165.938C153.289 166.784 153.457 167.678 153.96 168.39L156.41 166.658ZM218.067 177.655L220.928 176.75C220.648 175.865 219.974 175.16 219.102 174.84C218.231 174.519 217.261 174.62 216.474 175.113L218.067 177.655ZM12.0615 98.8725L10.3301 96.4225C9.26275 97.1768 8.80657 98.5352 9.20228 99.7808C9.59799 101.026 10.7545 101.872 12.0615 101.872V98.8725ZM372.673 105.491L369.68 105.282L369.68 105.282L372.673 105.491ZM367.603 174.928L364.612 174.7C364.54 175.649 364.922 176.577 365.643 177.199C366.363 177.821 367.337 178.064 368.265 177.854L367.603 174.928ZM376.14 63.7918L379.121 64.1243C379.224 63.2045 378.896 62.2888 378.233 61.643C377.57 60.9971 376.646 60.6934 375.729 60.82L376.14 63.7918ZM347.336 69.0484L346.642 66.1296C345.227 66.4657 344.257 67.768 344.34 69.2197L347.336 69.0484ZM348.123 86.4458L346.643 89.055C347.587 89.5908 348.747 89.5746 349.676 89.0125C350.605 88.4505 351.158 87.4304 351.122 86.3452L348.123 86.4458ZM335.254 83.1247V86.1247C335.265 86.1247 335.276 86.1246 335.288 86.1245L335.254 83.1247ZM330.613 163.579L330.613 166.579L330.626 166.579L330.613 163.579ZM347.445 156.981L350.442 157.119C350.498 155.905 349.816 154.778 348.715 154.263C347.615 153.749 346.313 153.949 345.417 154.77L347.445 156.981ZM346.132 180.735L347.025 183.598C348.211 183.228 349.046 182.166 349.126 180.926L346.132 180.735ZM360.205 215.419L363.127 216.101C363.346 215.162 363.1 214.174 362.466 213.447C361.832 212.72 360.887 212.343 359.926 212.432L360.205 215.419ZM339.237 218.895L338.538 215.977C337.586 216.205 336.806 216.883 336.446 217.794L339.237 218.895ZM494.245 214.804L493.271 217.641C494.085 217.92 494.978 217.837 495.726 217.413C496.473 216.988 497.003 216.264 497.18 215.423L494.245 214.804ZM503 171.321L505.954 171.845C506.241 170.229 505.175 168.682 503.562 168.374L503 171.321ZM337.814 106.219V109.219C337.82 109.219 337.825 109.218 337.831 109.218L337.814 106.219ZM338.427 145.654L338.464 142.654C338.452 142.654 338.44 142.654 338.427 142.654V145.654ZM348.517 111.233H351.517C351.517 110.536 351.275 109.86 350.83 109.323L348.517 111.233ZM348.036 141.321L350.306 143.282C350.756 142.762 351.013 142.103 351.034 141.415L348.036 141.321ZM343.707 144.552L344.94 147.287L344.94 147.287L343.707 144.552ZM389.228 40.434L392.202 40.8299C392.216 40.7241 392.225 40.6177 392.227 40.511L389.228 40.434ZM394.758 28.3773L392.746 26.1522L392.746 26.1522L394.758 28.3773ZM407.271 24.1166L407.51 21.1262L407.51 21.1262L407.271 24.1166ZM413.748 26.0054L412.343 28.6559L412.343 28.6559L413.748 26.0054ZM418.956 30.3116L416.617 32.1906L416.617 32.1906L418.956 30.3116ZM422.519 43.0953L419.546 42.6994C419.532 42.8052 419.523 42.9117 419.52 43.0184L422.519 43.0953ZM416.989 55.1521L419.002 57.3771L419.002 57.3771L416.989 55.1521ZM411.169 58.5768L412.136 61.4167L412.137 61.4166L411.169 58.5768ZM404.477 59.4127L404.238 62.4032L404.238 62.4032L404.477 59.4127ZM398 57.524L399.405 54.8735L399.405 54.8734L398 57.524ZM389.7 47.1945L386.811 48.0001L386.811 48.0001L389.7 47.1945ZM428.701 107.893L427.626 110.694C428.48 111.022 429.437 110.942 430.225 110.477C431.013 110.012 431.546 109.213 431.672 108.307L428.701 107.893ZM419.521 103.711L416.719 102.639C416.178 104.054 416.776 105.65 418.114 106.361L419.521 103.711ZM428.703 107.881L429.806 105.091C428.95 104.753 427.987 104.826 427.192 105.289C426.397 105.753 425.858 106.556 425.731 107.467L428.703 107.881ZM429.925 108.352L428.871 111.161C428.879 111.164 428.887 111.167 428.894 111.169L429.925 108.352ZM430.968 108.726H433.968C433.968 107.452 433.163 106.317 431.961 105.895L430.968 108.726ZM430.968 108.734H427.968C427.968 110.001 428.764 111.131 429.956 111.559L430.968 108.734ZM456.62 113.587L456.484 116.584C456.529 116.586 456.573 116.587 456.617 116.587L456.62 113.587ZM432.391 98.0147L431.396 100.845C432.194 101.125 433.074 101.056 433.818 100.654C434.562 100.251 435.101 99.5534 435.304 98.7321L432.391 98.0147ZM423.242 94.1877L424.559 91.4923C423.821 91.132 422.969 91.0895 422.199 91.3747C421.429 91.66 420.81 92.248 420.486 93.0019L423.242 94.1877ZM431.174 113.093L431.583 110.12C430.674 109.996 429.759 110.293 429.097 110.928C428.436 111.563 428.101 112.465 428.188 113.378L431.174 113.093ZM431.771 113.174L432.18 110.202L432.179 110.202L431.771 113.174ZM452.348 114.14L455.311 113.673C455.067 112.126 453.675 111.027 452.113 111.15L452.348 114.14ZM486.103 119.987L488.457 118.127C487.912 117.437 487.091 117.021 486.212 116.989C485.333 116.957 484.484 117.312 483.89 117.961L486.103 119.987ZM492.253 127.773L494.578 129.669C495.467 128.579 495.479 127.017 494.607 125.913L492.253 127.773ZM452.615 101.512L449.656 101.016C449.514 101.866 449.743 102.735 450.286 103.403C450.829 104.072 451.633 104.475 452.494 104.509L452.615 101.512ZM389.228 70.72L388.696 67.7676C387.544 67.9754 386.618 68.8341 386.324 69.9671L389.228 70.72ZM384.326 110.793H387.326C387.326 110.783 387.325 110.773 387.325 110.763L384.326 110.793ZM390.082 70.566L391.04 67.7231C390.56 67.5615 390.048 67.5238 389.549 67.6136L390.082 70.566ZM416.894 69.4223L419.708 70.4619C420.125 69.3346 419.828 68.0676 418.955 67.2421C418.082 66.4166 416.8 66.1919 415.698 66.6712L416.894 69.4223ZM425.015 124.056L427.915 123.291C427.621 122.175 426.713 121.327 425.579 121.109C424.445 120.892 423.288 121.345 422.602 122.273L425.015 124.056ZM429.392 134.261L431.864 135.96C432.537 134.981 432.569 133.697 431.945 132.686L429.392 134.261ZM408.03 147.172L408.025 150.172H408.03V147.172ZM292.396 145.082C292.396 176.205 275.947 190.611 260.717 191.717C252.978 192.279 245.235 189.503 239.398 183.467C233.567 177.439 229.472 167.972 229.472 154.914H223.472C223.472 169.249 227.993 180.305 235.085 187.639C242.171 194.966 251.659 198.39 261.151 197.701C280.383 196.305 298.396 178.402 298.396 145.082H292.396ZM262.893 111.484C272.755 111.484 280.054 116.584 284.999 123.462C290 130.418 292.396 138.957 292.396 145.082H298.396C298.396 137.681 295.594 127.92 289.87 119.959C284.09 111.92 275.138 105.484 262.893 105.484V111.484ZM229.472 154.914C229.472 129.957 244.546 111.445 262.887 111.484L262.9 105.484C239.916 105.435 223.472 128.14 223.472 154.914H229.472ZM244.178 155.881C244.178 170.009 252.142 179.254 261.704 179.138C271.42 179.02 279.157 169.382 279.157 152.912H273.157C273.157 168.048 266.405 173.08 261.631 173.138C256.704 173.198 250.178 168.125 250.178 155.881H244.178ZM279.157 152.868C279.157 139.11 271.012 130.711 261.538 131.121C252.078 131.53 244.178 140.582 244.178 155.881H250.178C250.178 142.413 256.767 137.333 261.797 137.115C266.812 136.898 273.157 141.377 273.157 152.868H279.157ZM279.157 152.912V152.868H273.157V152.912H279.157ZM241.709 202.102L240.44 200.43L235.662 204.059L236.931 205.731L241.709 202.102ZM152.066 188.079C162.468 200.903 176.659 211.146 192.311 215.361C208.05 219.599 225.179 217.705 241.064 206.358L237.576 201.475C223.257 211.704 208.003 213.373 193.871 209.567C179.651 205.738 166.483 196.329 156.726 184.299L152.066 188.079ZM168.97 249.371C163.075 228.653 159.195 207.409 157.386 185.937L151.407 186.441C153.249 208.298 157.198 229.923 163.199 251.013L168.97 249.371ZM151.156 263.049C155.227 260.34 159.339 257.772 162.439 255.878C163.988 254.932 165.28 254.157 166.184 253.618C166.636 253.349 166.991 253.139 167.232 252.997C167.353 252.926 167.445 252.872 167.506 252.836C167.537 252.818 167.56 252.804 167.575 252.796C167.583 252.791 167.589 252.788 167.592 252.786C167.594 252.785 167.596 252.784 167.596 252.783C167.597 252.783 167.597 252.783 167.597 252.783C167.597 252.783 167.597 252.783 167.597 252.783C167.597 252.783 167.597 252.783 166.084 250.192C164.572 247.602 164.571 247.602 164.571 247.602C164.571 247.602 164.571 247.602 164.571 247.602C164.571 247.602 164.57 247.602 164.569 247.603C164.568 247.604 164.566 247.605 164.564 247.606C164.56 247.608 164.553 247.612 164.545 247.617C164.528 247.627 164.503 247.642 164.471 247.661C164.406 247.699 164.31 247.755 164.186 247.828C163.938 247.974 163.575 248.189 163.115 248.463C162.194 249.011 160.882 249.799 159.311 250.758C156.173 252.675 151.99 255.287 147.832 258.054L151.156 263.049ZM126.738 185.871C131.484 210.381 137.98 233.471 146.628 261.438L152.36 259.665C143.733 231.768 137.313 208.921 132.629 184.73L126.738 185.871ZM131.655 187.561C135.393 184.301 139.871 179.844 144.949 173.885L140.382 169.993C135.473 175.754 131.201 179.995 127.711 183.04L131.655 187.561ZM140.89 169.521C138.153 171.531 133.045 174.152 127.346 176.769L129.849 182.221C135.514 179.62 141.149 176.775 144.441 174.357L140.89 169.521ZM125.639 179.991C125.64 179.998 125.641 180.004 125.642 180.01C125.643 180.016 125.644 180.022 125.645 180.027L131.55 178.963C131.549 178.957 131.548 178.95 131.546 178.944C131.545 178.938 131.544 178.932 131.543 178.927L125.639 179.991ZM104.025 191.87C112.541 189.011 121.163 185.775 129.737 182.232L127.445 176.686C118.991 180.181 110.496 183.368 102.115 186.183L104.025 191.87ZM97.3388 176.476C98.2333 180.532 99.171 184.915 100.13 189.625L106.01 188.428C105.043 183.681 104.098 179.266 103.198 175.184L97.3388 176.476ZM124.919 162.123C116.812 165.971 108.241 169.605 99.2066 173.024L101.33 178.636C110.506 175.163 119.227 171.466 127.492 167.543L124.919 162.123ZM116.202 67.3973C117.079 108.202 119.273 138.425 123.237 165.271L129.173 164.395C125.258 137.883 123.074 107.93 122.201 67.2684L116.202 67.3973ZM157.134 47.2707C143.652 52.1823 130.513 57.9976 117.805 64.6774L120.597 69.9883C133.066 63.4338 145.959 57.7276 159.188 52.9082L157.134 47.2707ZM155.536 150.924C155.199 117.346 157.07 83.7828 161.139 50.453L155.183 49.7259C151.083 83.317 149.196 117.144 149.536 150.985L155.536 150.924ZM180.596 35.4062C198.34 35.4062 210.052 39.5793 216.678 45.9742C223.159 52.2301 225.294 61.1329 222.757 72.0301C217.606 94.1524 193.333 123.232 151.004 148.375L154.068 153.534C196.903 128.09 222.895 97.896 228.601 73.3907C231.492 60.9742 229.203 49.7248 220.844 41.6571C212.63 33.7283 199.087 29.4062 180.596 29.4062V35.4062ZM13.7759 101.334C35.8553 85.9693 66.4276 69.4523 97.1368 56.7829C127.925 44.0811 158.472 35.4062 180.596 35.4062V29.4062C157.26 29.4062 125.821 38.4583 94.8486 51.2364C63.7968 64.0471 32.8325 80.7629 10.3487 96.4095L13.7759 101.334ZM8.29394 94.9686C8.56359 96.3867 8.77262 97.486 8.91177 98.2358C8.98176 98.6129 9.03123 98.8864 9.06128 99.0625C9.06858 99.1053 9.07414 99.1389 9.07822 99.1644C9.0825 99.1911 9.08407 99.2021 9.08402 99.2018C9.08395 99.2013 9.08282 99.1932 9.08118 99.1796C9.07978 99.1679 9.07634 99.1386 9.07296 99.0982C9.07069 99.0712 9.06252 98.9733 9.06336 98.8445C9.06376 98.7841 9.06616 98.6485 9.08874 98.4772C9.10023 98.39 9.12248 98.2499 9.16842 98.0814C9.2091 97.9323 9.30169 97.634 9.50679 97.3004L14.6178 100.443C14.9712 99.8685 15.029 99.3238 15.0373 99.2611C15.0602 99.0872 15.0628 98.9483 15.0632 98.8837C15.0641 98.7467 15.0554 98.6375 15.0519 98.5962C15.0437 98.4986 15.0322 98.4135 15.0262 98.3708C15.0124 98.2723 14.994 98.16 14.9758 98.0533C14.9379 97.8315 14.8817 97.5217 14.811 97.141C14.6689 96.3749 14.4568 95.2595 14.1883 93.8478L8.29394 94.9686ZM8.28603 94.9252L8.28605 94.9253L14.1962 93.891L14.1962 93.8909L8.28603 94.9252ZM8.30416 95.0198L8.30418 95.0199L14.1781 93.7962L14.178 93.7961L8.30416 95.0198ZM0.0369138 48.1173C3.2806 68.6031 6.75124 86.8552 8.29391 94.9684L14.1883 93.8476C12.6469 85.7414 9.19125 67.5667 5.96309 47.1789L0.0369138 48.1173ZM167.157 0C95.2614 0 21.7677 34.5193 1.61716 44.9858L4.38284 50.3104C24.3742 39.9265 96.7831 6 167.157 6V0ZM256.788 57.2595C256.788 41.6692 249.784 27.1981 234.919 16.7319C220.153 6.336 197.812 0 167.157 0V6C197.087 6 218.061 12.2007 231.465 21.6379C244.769 31.005 250.788 43.6637 250.788 57.2595H256.788ZM157.771 169.332C184.252 155.855 208.909 139.282 226.987 120.436C245.051 101.605 256.788 80.2412 256.788 57.2595H250.788C250.788 78.1122 240.134 98.0643 222.658 116.283C205.196 134.486 181.164 150.695 155.049 163.985L157.771 169.332ZM216.474 175.113C205.329 182.097 194.255 184.185 184.405 182.3C174.554 180.415 165.625 174.501 158.86 164.927L153.96 168.39C161.509 179.073 171.722 185.981 183.277 188.193C194.832 190.404 207.43 187.862 219.66 180.198L216.474 175.113ZM239.518 199.628C230.656 194.657 224.006 186.478 220.928 176.75L215.207 178.561C218.744 189.736 226.386 199.142 236.583 204.861L239.518 199.628ZM13.7929 101.322C13.7854 101.328 13.7793 101.332 13.7756 101.335C13.7723 101.337 13.7694 101.339 13.7699 101.338C13.7699 101.338 13.77 101.338 13.7701 101.338C13.7701 101.338 13.7702 101.338 13.7704 101.338C13.7706 101.338 13.771 101.338 13.7715 101.337C13.7725 101.337 13.7741 101.336 13.776 101.334C13.7799 101.332 13.7861 101.327 13.7937 101.322L10.3309 96.422C10.3383 96.4167 10.3444 96.4124 10.3481 96.4099C10.3515 96.4075 10.3543 96.4055 10.3538 96.4059C10.3538 96.4059 10.3537 96.406 10.3537 96.406C10.3536 96.406 10.3535 96.4061 10.3534 96.4062C10.3531 96.4064 10.3527 96.4067 10.3522 96.407C10.3512 96.4077 10.3497 96.4088 10.3477 96.4101C10.3439 96.4128 10.3377 96.4171 10.3301 96.4225L13.7929 101.322ZM9.50953 97.296C9.7894 96.8426 10.5992 95.8725 12.0615 95.8725V101.872C13.5244 101.872 14.3347 100.902 14.615 100.448L9.50953 97.296ZM369.68 105.282C368.654 119.974 367.192 140.919 364.612 174.7L370.595 175.157C373.176 141.358 374.639 120.397 375.665 105.7L369.68 105.282ZM373.158 63.4593C371.663 76.8662 371.072 85.339 369.68 105.282L375.665 105.7C377.058 85.7444 377.642 77.3902 379.121 64.1243L373.158 63.4593ZM348.029 71.9672C354.367 70.4615 361.492 69.1603 367.057 68.2328C369.834 67.77 372.211 67.4021 373.893 67.1501C374.734 67.0241 375.401 66.9272 375.856 66.8619C376.083 66.8292 376.258 66.8045 376.375 66.788C376.434 66.7798 376.478 66.7736 376.507 66.7695C376.522 66.7675 376.533 66.766 376.54 66.765C376.544 66.7645 376.546 66.7641 376.548 66.7639C376.549 66.7638 376.549 66.7637 376.549 66.7637C376.55 66.7636 376.55 66.7636 376.55 66.7636C376.55 66.7636 376.55 66.7636 376.14 63.7918C375.729 60.82 375.729 60.82 375.729 60.82C375.729 60.8201 375.728 60.8201 375.728 60.8202C375.728 60.8202 375.727 60.8204 375.726 60.8205C375.723 60.8208 375.72 60.8213 375.716 60.8218C375.708 60.823 375.695 60.8247 375.68 60.8269C375.648 60.8313 375.601 60.8379 375.54 60.8465C375.417 60.8637 375.237 60.8892 375.004 60.9227C374.537 60.9896 373.858 61.0884 373.004 61.2164C371.296 61.4723 368.886 61.8453 366.071 62.3145C360.451 63.251 353.174 64.5781 346.642 66.1296L348.029 71.9672ZM351.122 86.3452C350.924 80.4494 350.66 74.6413 350.331 68.8771L344.34 69.2197C344.667 74.9364 344.929 80.6973 345.125 86.5463L351.122 86.3452ZM335.288 86.1245C339.263 86.0793 343.18 87.0899 346.643 89.055L349.604 83.8365C345.219 81.3485 340.257 80.0677 335.22 80.1249L335.288 86.1245ZM330.613 160.579C322.102 160.579 315.661 156.239 311.283 149.392C306.851 142.461 304.616 133.027 304.866 123.43C305.115 113.836 307.838 104.412 312.93 97.4702C317.957 90.6185 325.31 86.1247 335.254 86.1247V80.1247C323.211 80.1247 314.132 85.6877 308.092 93.9212C302.119 102.064 299.141 112.754 298.868 123.274C298.595 133.79 301.015 144.471 306.228 152.624C311.495 160.862 319.688 166.579 330.613 166.579V160.579ZM345.417 154.77C341.364 158.487 336.083 160.556 330.601 160.579L330.626 166.579C337.605 166.55 344.321 163.916 349.473 159.192L345.417 154.77ZM349.126 180.926C349.652 172.698 350.091 164.763 350.442 157.119L344.448 156.843C344.099 164.449 343.662 172.349 343.138 180.543L349.126 180.926ZM252.235 262.377C252.235 250.3 260.341 235.441 276.603 221.003C292.764 206.655 316.593 193.096 347.025 183.598L345.238 177.871C314.145 187.574 289.525 201.507 272.62 216.516C255.815 231.436 246.235 247.797 246.235 262.377H252.235ZM282.461 290.675C271.484 290.675 264.051 287.713 259.35 282.98C254.643 278.241 252.235 271.281 252.235 262.377H246.235C246.235 272.322 248.938 281.011 255.093 287.208C261.254 293.412 270.433 296.675 282.461 296.675V290.675ZM357.284 214.738C352.719 234.297 342.45 253.381 329.015 267.534C315.559 281.709 299.199 290.675 282.461 290.675V296.675C301.377 296.675 319.206 286.582 333.366 271.665C347.548 256.725 358.324 236.681 363.127 216.101L357.284 214.738ZM339.936 221.812C346.697 220.192 353.564 219.054 360.485 218.406L359.926 212.432C352.722 213.106 345.575 214.291 338.538 215.977L339.936 221.812ZM281.06 283.478C291.547 283.478 301.958 280.173 312.201 270.416C322.324 260.774 332.195 244.918 342.028 219.995L336.446 217.794C326.755 242.358 317.278 257.294 308.063 266.072C298.968 274.735 290.052 277.478 281.06 277.478V283.478ZM261.36 265.082C261.36 270.921 263.299 275.661 267 278.898C270.64 282.081 275.604 283.478 281.06 283.478V277.478C276.557 277.478 273.171 276.324 270.95 274.382C268.791 272.494 267.36 269.537 267.36 265.082H261.36ZM392.314 197.243C355.308 197.243 322.818 205.937 299.484 218.603C287.819 224.934 278.353 232.308 271.769 240.175C265.193 248.031 261.36 256.549 261.36 265.082H267.36C267.36 258.384 270.38 251.182 276.37 244.026C282.351 236.879 291.162 229.947 302.346 223.876C324.707 211.738 356.195 203.243 392.314 203.243V197.243ZM494.245 214.804C495.219 211.966 495.218 211.966 495.217 211.965C495.216 211.965 495.215 211.965 495.214 211.964C495.212 211.964 495.209 211.963 495.206 211.962C495.199 211.959 495.19 211.956 495.178 211.952C495.154 211.944 495.12 211.933 495.076 211.918C494.987 211.888 494.858 211.845 494.688 211.789C494.349 211.678 493.851 211.517 493.198 211.314C491.894 210.907 489.974 210.329 487.488 209.638C482.517 208.256 475.283 206.418 466.182 204.583C447.984 200.912 422.299 197.243 392.314 197.243V203.243C421.82 203.243 447.1 206.855 464.995 210.464C473.941 212.269 481.034 214.071 485.88 215.419C488.303 216.093 490.164 216.653 491.412 217.042C492.036 217.237 492.507 217.389 492.819 217.491C492.975 217.542 493.092 217.581 493.167 217.606C493.205 217.619 493.233 217.628 493.25 217.634C493.259 217.637 493.265 217.639 493.268 217.64C493.27 217.641 493.271 217.641 493.272 217.641C493.272 217.641 493.272 217.641 493.272 217.641C493.272 217.641 493.271 217.641 494.245 214.804ZM503 171.321C500.046 170.797 500.046 170.797 500.046 170.797C500.046 170.797 500.046 170.797 500.046 170.797C500.046 170.797 500.046 170.798 500.046 170.798C500.046 170.8 500.045 170.802 500.045 170.804C500.044 170.81 500.042 170.818 500.04 170.83C500.036 170.853 500.03 170.888 500.021 170.936C500.004 171.031 499.978 171.177 499.942 171.374C499.87 171.767 499.76 172.366 499.607 173.183C499.301 174.818 498.823 177.325 498.141 180.806C496.776 187.769 494.59 198.625 491.31 214.185L497.18 215.423C500.466 199.838 502.658 188.954 504.029 181.961C504.714 178.464 505.195 175.94 505.504 174.288C505.659 173.462 505.771 172.854 505.844 172.451C505.881 172.249 505.908 172.099 505.926 171.999C505.935 171.949 505.942 171.911 505.947 171.885C505.949 171.872 505.951 171.863 505.952 171.856C505.953 171.853 505.953 171.85 505.953 171.848C505.954 171.847 505.954 171.847 505.954 171.846C505.954 171.846 505.954 171.846 505.954 171.846C505.954 171.845 505.954 171.845 503 171.321ZM368.265 177.854C428.089 164.319 491.598 172.201 502.438 174.268L503.562 168.374C492.252 166.218 427.85 158.221 366.941 172.002L368.265 177.854ZM337.814 103.219C331.932 103.219 327.476 106.384 324.598 110.722C321.762 114.995 320.346 120.517 320.273 125.895C320.2 131.27 321.464 136.844 324.386 141.171C327.381 145.607 332.093 148.654 338.427 148.654V142.654C334.288 142.654 331.356 140.772 329.359 137.813C327.288 134.747 326.212 130.461 326.273 125.977C326.333 121.497 327.526 117.16 329.597 114.039C331.625 110.983 334.373 109.219 337.814 109.219V103.219ZM344.999 104.802C342.745 103.746 340.286 103.205 337.798 103.219L337.831 109.218C339.427 109.21 341.006 109.557 342.453 110.235L344.999 104.802ZM350.83 109.323C349.244 107.402 347.253 105.858 344.999 104.802L342.453 110.235C343.901 110.913 345.182 111.906 346.204 113.144L350.83 109.323ZM351.034 141.415C351.364 130.893 351.517 120.899 351.517 111.233H345.517C345.517 120.835 345.365 130.767 345.037 141.227L351.034 141.415ZM344.94 147.287C346.998 146.359 348.829 144.992 350.306 143.282L345.766 139.36C344.858 140.411 343.735 141.249 342.474 141.817L344.94 147.287ZM338.39 148.654C340.647 148.682 342.882 148.215 344.94 147.287L342.474 141.817C341.213 142.386 339.845 142.671 338.464 142.654L338.39 148.654ZM388.031 32.5829C386.911 35.0249 386.298 37.6701 386.229 40.3571L392.227 40.511C392.276 38.6345 392.704 36.788 393.485 35.0843L388.031 32.5829ZM392.746 26.1522C390.755 27.9526 389.151 30.1408 388.031 32.5829L393.485 35.0843C394.267 33.3806 395.385 31.8557 396.771 30.6023L392.746 26.1522ZM399.611 22.1127C397.073 22.9771 394.737 24.3518 392.746 26.1522L396.771 30.6023C398.157 29.3489 399.781 28.3931 401.545 27.7925L399.611 22.1127ZM407.51 21.1262C404.837 20.9125 402.15 21.2483 399.611 22.1127L401.545 27.7925C403.309 27.1918 405.176 26.9587 407.032 27.1071L407.51 21.1262ZM415.153 23.3549C412.783 22.0983 410.183 21.3398 407.51 21.1262L407.032 27.1071C408.888 27.2555 410.695 27.7823 412.343 28.6559L415.153 23.3549ZM421.295 28.4326C419.613 26.3393 417.523 24.6114 415.153 23.3548L412.343 28.6559C413.991 29.5296 415.445 30.732 416.617 32.1906L421.295 28.4326ZM424.937 35.5293C424.215 32.9406 422.976 30.5258 421.295 28.4326L416.617 32.1906C417.789 33.6492 418.654 35.3333 419.157 37.1404L424.937 35.5293ZM425.493 43.4913C425.848 40.827 425.659 38.118 424.937 35.5293L419.157 37.1404C419.661 38.9475 419.793 40.839 419.546 42.6994L425.493 43.4913ZM423.716 50.9465C424.836 48.5045 425.449 45.8593 425.518 43.1723L419.52 43.0184C419.472 44.8948 419.044 46.7413 418.263 48.445L423.716 50.9465ZM419.002 57.3771C420.992 55.5768 422.596 53.3886 423.716 50.9465L418.263 48.445C417.481 50.1488 416.363 51.6736 414.977 52.9271L419.002 57.3771ZM412.137 61.4166C414.675 60.5522 417.011 59.1775 419.002 57.3771L414.977 52.9271C413.591 54.1805 411.966 55.1363 410.202 55.7369L412.137 61.4166ZM404.238 62.4032C406.91 62.6168 409.598 62.2811 412.136 61.4167L410.202 55.7369C408.439 56.3375 406.572 56.5706 404.716 56.4223L404.238 62.4032ZM396.594 60.1745C398.964 61.431 401.565 62.1895 404.238 62.4032L404.716 56.4223C402.86 56.2739 401.053 55.7471 399.405 54.8735L396.594 60.1745ZM390.453 55.0967C392.135 57.19 394.224 58.918 396.594 60.1745L399.405 54.8734C397.757 53.9998 396.302 52.7973 395.131 51.3388L390.453 55.0967ZM386.811 48.0001C387.532 50.5888 388.771 53.0035 390.453 55.0967L395.131 51.3388C393.959 49.8801 393.094 48.196 392.59 46.389L386.811 48.0001ZM386.255 40.0381C385.9 42.7024 386.089 45.4114 386.811 48.0001L392.59 46.389C392.087 44.5819 391.954 42.6904 392.202 40.8299L386.255 40.0381ZM429.776 105.092C426.749 103.93 423.794 102.584 420.928 101.062L418.114 106.361C421.195 107.997 424.371 109.444 427.626 110.694L429.776 105.092ZM425.731 107.467L425.73 107.479L431.672 108.307L431.674 108.295L425.731 107.467ZM430.979 105.543C430.589 105.397 430.198 105.246 429.806 105.091L427.599 110.671C428.024 110.839 428.448 111.002 428.871 111.161L430.979 105.543ZM431.961 105.895C431.625 105.777 431.29 105.657 430.956 105.535L428.894 111.169C429.253 111.301 429.614 111.43 429.975 111.557L431.961 105.895ZM433.968 108.734V108.726H427.968V108.734H433.968ZM456.755 110.59C450.524 110.309 441.487 109.317 431.98 105.91L429.956 111.559C440.223 115.238 449.906 116.287 456.484 116.584L456.755 110.59ZM493.762 81.3211C493.762 90.4577 489.51 97.6773 482.766 102.7C475.958 107.77 466.582 110.597 456.623 110.587L456.617 116.587C467.636 116.598 478.331 113.484 486.35 107.512C494.432 101.493 499.762 92.5695 499.762 81.3211H493.762ZM474.087 62.7669C485.764 62.7669 493.762 70.6621 493.762 81.3211H499.762C499.762 67.0828 488.806 56.7669 474.087 56.7669V62.7669ZM435.304 98.7321C437.586 89.463 442.797 80.3995 449.75 73.6832C456.703 66.966 465.208 62.7669 474.087 62.7669V56.7669C463.267 56.7669 453.341 61.8713 445.581 69.3678C437.82 76.8652 432.032 86.9256 429.478 97.2973L435.304 98.7321ZM421.925 96.8831C425.003 98.3872 428.165 99.7102 431.396 100.845L433.385 95.1842C430.374 94.1267 427.427 92.894 424.559 91.4923L421.925 96.8831ZM419.521 103.711C422.323 104.783 422.323 104.783 422.323 104.783C422.323 104.783 422.323 104.783 422.323 104.783C422.323 104.783 422.323 104.782 422.323 104.782C422.324 104.781 422.324 104.779 422.325 104.778C422.326 104.774 422.328 104.768 422.331 104.761C422.337 104.746 422.345 104.724 422.357 104.695C422.379 104.637 422.411 104.552 422.453 104.442C422.537 104.224 422.657 103.91 422.804 103.528C423.098 102.764 423.496 101.728 423.916 100.643C424.77 98.4365 425.675 96.1226 425.997 95.3735L420.486 93.0019C420.108 93.8804 419.152 96.3282 418.321 98.477C417.898 99.5688 417.498 100.609 417.203 101.376C417.056 101.76 416.935 102.075 416.851 102.295C416.809 102.405 416.776 102.491 416.753 102.549C416.742 102.579 416.733 102.601 416.728 102.616C416.725 102.624 416.723 102.63 416.721 102.633C416.72 102.635 416.72 102.637 416.719 102.638C416.719 102.638 416.719 102.639 416.719 102.639C416.719 102.639 416.719 102.639 416.719 102.639C416.719 102.639 416.719 102.639 419.521 103.711ZM428.188 113.378C430.002 132.357 443.08 147.488 461.611 147.488V141.488C446.946 141.488 435.761 129.544 434.161 112.807L428.188 113.378ZM432.179 110.202L431.583 110.12L430.766 116.065L431.363 116.147L432.179 110.202ZM452.113 111.15C443.823 111.799 436.925 110.855 432.18 110.202L431.362 116.146C436.145 116.805 443.597 117.835 452.582 117.131L452.113 111.15ZM469.03 126.07C465.746 126.07 462.697 125.168 460.326 123.279C457.989 121.418 456.056 118.4 455.311 113.673L449.384 114.608C450.329 120.603 452.917 125.049 456.588 127.973C460.225 130.869 464.672 132.07 469.03 132.07V126.07ZM486.103 119.987C483.89 117.961 483.891 117.96 483.891 117.96C483.891 117.96 483.892 117.959 483.892 117.959C483.892 117.959 483.893 117.958 483.893 117.958C483.893 117.958 483.893 117.958 483.893 117.958C483.891 117.96 483.888 117.963 483.883 117.968C483.873 117.979 483.855 117.998 483.83 118.025C483.779 118.079 483.699 118.163 483.59 118.272C483.374 118.493 483.047 118.816 482.624 119.208C481.777 119.996 480.563 121.045 479.104 122.089C476.089 124.246 472.457 126.07 469.03 126.07V132.07C474.359 132.07 479.263 129.353 482.596 126.968C484.31 125.741 485.723 124.519 486.708 123.604C487.203 123.145 487.594 122.758 487.866 122.482C488.002 122.343 488.109 122.232 488.185 122.153C488.222 122.113 488.252 122.081 488.274 122.057C488.285 122.046 488.294 122.036 488.301 122.029C488.304 122.025 488.307 122.022 488.31 122.019C488.311 122.018 488.312 122.016 488.313 122.015C488.313 122.015 488.314 122.014 488.314 122.014C488.315 122.013 488.315 122.013 486.103 119.987ZM494.607 125.913L488.457 118.127L483.749 121.846L489.899 129.632L494.607 125.913ZM461.611 147.488C468.519 147.488 475.151 144.978 480.781 141.577C486.421 138.17 491.243 133.759 494.578 129.669L489.928 125.877C487.004 129.463 482.698 133.409 477.679 136.441C472.65 139.479 467.091 141.488 461.611 141.488V147.488ZM452.494 104.509C472.118 105.303 482.449 94.2164 482.449 83.9165H476.449C476.449 89.7602 470.101 99.2163 452.736 98.5142L452.494 104.509ZM482.449 83.8725C482.449 79.3492 480.718 75.6534 477.239 73.8769C473.925 72.1848 469.932 72.7192 466.362 74.4672C459.139 78.0045 451.976 87.1575 449.656 101.016L455.574 102.007C457.653 89.5831 463.907 82.3504 469.001 79.8558C471.59 78.5879 473.481 78.6948 474.511 79.2206C475.375 79.6621 476.449 80.8297 476.449 83.8725H482.449ZM482.449 83.9165V83.8725H476.449V83.9165H482.449ZM386.324 69.9671C382.867 83.304 381.186 97.0427 381.326 110.824L387.325 110.763C387.191 97.5101 388.808 84.298 392.132 71.4728L386.324 69.9671ZM389.549 67.6136L388.696 67.7676L389.761 73.6723L390.614 73.5184L389.549 67.6136ZM415.698 66.6712C407.889 70.0671 399.107 70.4416 391.04 67.7231L389.124 73.4089C398.601 76.6025 408.918 76.1623 418.091 72.1734L415.698 66.6712ZM409.979 116.556C409.979 103.914 413.35 87.6733 419.708 70.4619L414.08 68.3827C407.568 86.01 403.979 102.98 403.979 116.556H409.979ZM422.602 122.273C420.492 125.129 418.552 126.808 416.974 127.633C415.442 128.434 414.428 128.36 413.767 128.078C413.041 127.769 412.092 126.932 411.297 124.985C410.507 123.048 409.979 120.25 409.979 116.556H403.979C403.979 120.757 404.571 124.381 405.742 127.252C406.91 130.114 408.767 132.47 411.414 133.598C414.126 134.754 417.053 134.363 419.755 132.95C422.41 131.561 424.996 129.13 427.427 125.838L422.602 122.273ZM431.945 132.686C430.147 129.772 428.789 126.606 427.915 123.291L422.114 124.82C423.138 128.707 424.73 132.419 426.839 135.836L431.945 132.686ZM408.03 150.172C417.95 150.172 426.034 144.444 431.864 135.96L426.92 132.562C421.807 140.002 415.357 144.172 408.03 144.172V150.172ZM381.326 110.793C381.326 122.019 383.78 131.727 388.336 138.734C392.939 145.813 399.738 150.159 408.025 150.172L408.034 144.172C402.116 144.162 397.064 141.151 393.366 135.463C389.62 129.702 387.326 121.232 387.326 110.793H381.326Z" fill="black"/>
</svg>
