<svg width="120" height="120" viewBox="0 0 120 120" fill="none" xmlns="http://www.w3.org/2000/svg">
<path d="M28.1926 12.2551C29.1677 9.43203 32.0706 7.75601 35.003 8.32307L44.2034 10.1023C46.0128 10.4521 47.8826 9.95114 49.2746 8.74344L56.3528 2.60241C58.6088 0.645143 61.9608 0.645144 64.2168 2.60241L71.295 8.74343C72.687 9.95114 74.5568 10.4521 76.3661 10.1023L85.5666 8.32307C88.4989 7.75601 91.4019 9.43203 92.377 12.2551L95.4364 21.1124C96.038 22.8543 97.4068 24.2231 99.1487 24.8248L108.006 27.8842C110.829 28.8593 112.505 31.7622 111.938 34.6946L110.159 43.895C109.809 45.7044 110.31 47.5742 111.518 48.9662L117.659 56.0444C119.616 58.3004 119.616 61.6524 117.659 63.9084L111.518 70.9866C110.31 72.3786 109.809 74.2484 110.159 76.0577L111.938 85.2581C112.505 88.1905 110.829 91.0935 108.006 92.0686L99.1487 95.128C97.4068 95.7296 96.038 97.0984 95.4364 98.8403L92.377 107.698C91.4019 110.521 88.4989 112.197 85.5666 111.63L76.3661 109.85C74.5568 109.501 72.687 110.002 71.295 111.209L64.2168 117.35C61.9608 119.308 58.6088 119.308 56.3528 117.35L49.2746 111.209C47.8826 110.002 46.0128 109.501 44.2034 109.85L35.003 111.63C32.0706 112.197 29.1677 110.521 28.1926 107.698L25.1332 98.8403C24.5315 97.0984 23.1628 95.7296 21.4209 95.1279L12.5635 92.0686C9.74044 91.0935 8.06442 88.1905 8.63148 85.2581L10.4107 76.0577C10.7606 74.2484 10.2595 72.3786 9.05185 70.9866L2.91082 63.9084C0.953554 61.6524 0.953554 58.3004 2.91082 56.0444L9.05185 48.9662C10.2595 47.5742 10.7606 45.7044 10.4107 43.895L8.63148 34.6946C8.06442 31.7622 9.74044 28.8593 12.5635 27.8842L21.4209 24.8248C23.1628 24.2231 24.5315 22.8543 25.1332 21.1124L28.1926 12.2551Z" fill="#FFC300" stroke="black" stroke-width="1.5"/>
<circle cx="60" cy="60" r="46" fill="#94739D" stroke="black" stroke-width="1.5" stroke-linecap="round"/>
<path d="M79.1472 54.9508C83.0183 47.9051 77.0963 42.8926 76.734 42.7866C75.8227 49.0704 73.0703 55.6788 67.5278 59.316C67.5278 59.316 62.2213 57.5948 64.4154 72.4945C64.5385 72.2622 71.8363 71.5073 71.9509 71.265C74.6289 70.8508 76.5242 69.6987 74.8503 66.3098C80.3078 66.3694 81.7277 63.2128 79.3718 61.0162C86.7585 57.879 81.7943 53.7972 79.1472 54.9508Z" fill="#51CAE4"/>
<path d="M77.8719 55.5423C78.1048 55.3781 78.3478 55.2289 78.5996 55.0956C78.8571 54.961 79.1236 54.8443 79.3971 54.7464C79.9514 54.5582 80.5584 54.4367 81.2033 54.5203C81.3658 54.5407 81.5263 54.5744 81.6833 54.6209C81.8441 54.6712 81.9996 54.7368 82.1479 54.8168C82.302 54.8982 82.4459 54.9975 82.5768 55.1126C82.6432 55.1706 82.7065 55.2321 82.7665 55.2969C82.8258 55.3626 82.8813 55.4316 82.9329 55.5036C83.0375 55.6472 83.1238 55.8032 83.19 55.9681C83.2575 56.1287 83.3073 56.2962 83.3386 56.4675C83.3974 56.8005 83.3974 57.1411 83.3386 57.474C83.219 58.0978 82.9505 58.6835 82.5559 59.1813C82.1837 59.6528 81.7396 60.0628 81.2397 60.3961C80.9976 60.5586 80.7457 60.7062 80.4856 60.8381C80.227 60.9682 79.963 61.082 79.6967 61.1866C79.1653 61.3848 78.6159 61.5308 78.0561 61.6225C77.9965 61.6397 77.9324 61.6326 77.8781 61.6026C77.8237 61.5726 77.7834 61.5222 77.7662 61.4626C77.7489 61.4029 77.7561 61.3389 77.7861 61.2845C77.8161 61.2301 77.8664 61.1899 77.9261 61.1726V61.1726C78.4247 60.9597 78.9132 60.7421 79.3754 60.4874C79.8328 60.2412 80.2674 59.9547 80.6738 59.6311C81.0648 59.3207 81.4122 58.959 81.7066 58.5557C81.8452 58.3613 81.9644 58.1538 82.0627 57.9363C82.1579 57.7301 82.226 57.5126 82.2656 57.289C82.343 56.8554 82.2772 56.4304 82.0643 56.1075C81.8513 55.7846 81.4875 55.5555 81.0415 55.4633C80.5618 55.3738 80.0687 55.3838 79.593 55.4927C79.3383 55.543 79.0868 55.6078 78.8396 55.6871C78.7142 55.7281 78.588 55.7691 78.4641 55.8164C78.3403 55.8636 78.2149 55.9116 78.0871 55.9565H78.077C78.022 55.9849 77.958 55.9902 77.899 55.9713C77.8401 55.9524 77.791 55.9109 77.7627 55.8559C77.7344 55.8008 77.7291 55.7368 77.7479 55.6778C77.7668 55.6189 77.8083 55.5698 77.8634 55.5415L77.8719 55.5423Z" fill="black"/>
<path d="M79.1227 60.8041C79.6002 60.9646 80.0259 61.2504 80.3552 61.6318L80.4799 61.7866C80.517 61.8416 80.5519 61.8997 80.5875 61.957C80.6245 62.014 80.6566 62.0741 80.6835 62.1366L80.7648 62.3255C80.7888 62.3898 80.8058 62.4571 80.8252 62.5237L80.8523 62.6236C80.8608 62.6577 80.8639 62.6917 80.8701 62.7258L80.8987 62.9325C80.9033 63.0014 80.9026 63.0703 80.9033 63.14V63.2438C80.9033 63.2786 80.8964 63.3127 80.8933 63.3467L80.8693 63.5519C80.8561 63.6185 80.8391 63.6843 80.8236 63.7509L80.7988 63.85C80.7895 63.8833 80.7771 63.9143 80.7663 63.946L80.6982 64.1365C80.6734 64.1992 80.6417 64.2573 80.613 64.3177C80.5555 64.4368 80.4901 64.5519 80.4171 64.6622C80.384 64.7186 80.3468 64.7724 80.3057 64.8232L80.1864 64.9781C80.1028 65.0756 80.0153 65.1709 79.9263 65.2646C79.8373 65.3582 79.7405 65.4395 79.6422 65.5201C79.5438 65.6006 79.444 65.6795 79.3394 65.7523C78.9278 66.0326 78.4777 66.2517 78.0031 66.4027C77.5389 66.5466 77.0591 66.634 76.5739 66.6628C75.6288 66.717 74.6829 66.5684 73.7999 66.2269C73.7468 66.2067 73.7028 66.168 73.676 66.1179C73.6491 66.0678 73.6412 66.0097 73.6537 65.9543C73.6663 65.8989 73.6984 65.8498 73.7441 65.8161C73.7899 65.7824 73.8463 65.7664 73.9029 65.7709H73.9068C74.7855 65.8414 75.6449 65.8592 76.4686 65.7175C76.8746 65.6514 77.2734 65.5478 77.6602 65.4078C77.7531 65.3683 77.8467 65.3304 77.9404 65.2932C78.0341 65.256 78.1208 65.2065 78.2114 65.1639C78.302 65.1213 78.3848 65.0671 78.4723 65.0199C78.5598 64.9727 78.6372 64.9123 78.7208 64.8596C79.0395 64.6466 79.3187 64.3799 79.5462 64.0714C79.6009 63.9974 79.6505 63.9198 79.6948 63.8392C79.7157 63.7989 79.7412 63.7617 79.7606 63.7199L79.8148 63.5976C79.8241 63.5775 79.8349 63.5573 79.8427 63.5364L79.862 63.4737L79.9038 63.3483L79.9302 63.2221C79.9348 63.2004 79.941 63.1795 79.9449 63.1578L79.9495 63.0943C79.9704 62.9235 79.9634 62.7504 79.9286 62.5818C79.9094 62.496 79.8835 62.4119 79.8512 62.3302C79.8334 62.2891 79.8179 62.2465 79.8001 62.2047L79.7312 62.0847L79.6979 62.0228C79.6863 62.0027 79.6708 61.9848 79.6576 61.9655L79.5732 61.8486C79.516 61.7712 79.4432 61.7022 79.3805 61.624L79.1552 61.4165C79.0777 61.3523 78.9903 61.2888 78.9074 61.2207L78.8935 61.209C78.8494 61.1739 78.8193 61.1241 78.8087 61.0686C78.7982 61.0132 78.8078 60.9559 78.8359 60.9069C78.8639 60.858 78.9086 60.8207 78.9618 60.8018C79.015 60.783 79.0731 60.7838 79.1257 60.8041H79.1227Z" fill="black"/>
<path d="M66.3434 59.6745C66.5176 59.57 66.6995 59.45 66.8737 59.3292C67.0479 59.2084 67.2221 59.083 67.3932 58.9552C67.7347 58.6989 68.0699 58.4334 68.3997 58.1562C69.7014 57.0513 70.8729 55.8016 71.8914 54.4313C72.1449 54.0891 72.3872 53.7399 72.6184 53.3837C72.8507 53.0299 73.0729 52.6668 73.2835 52.2998C73.4941 51.9328 73.693 51.5573 73.8781 51.1763C74.0631 50.7954 74.2396 50.4098 74.3999 50.015C74.7269 49.2334 75.0036 48.4317 75.2283 47.6148C75.6718 45.9798 75.9233 44.2986 75.9777 42.6054C75.98 42.535 75.9962 42.4657 76.0253 42.4015C76.0545 42.3373 76.0959 42.2795 76.1474 42.2314C76.1989 42.1833 76.2594 42.1458 76.3254 42.1211C76.3914 42.0964 76.4616 42.0849 76.5321 42.0874C76.6318 42.0905 76.7287 42.1216 76.8116 42.1772H76.817C77.9176 42.9097 78.8644 43.8502 79.6042 44.9459C80.3401 46.0549 80.815 47.3163 80.9931 48.6352C81.0793 49.2874 81.098 49.9467 81.0489 50.6026C80.9974 51.2544 80.8802 51.8992 80.6989 52.5274C80.6083 52.8413 80.4989 53.1495 80.3714 53.4503C80.2461 53.753 80.1005 54.0468 79.9355 54.3298C79.7685 54.6171 79.5749 54.8879 79.3572 55.1389C79.2442 55.2672 79.121 55.3861 78.9887 55.4943C78.85 55.6097 78.696 55.7053 78.5311 55.7785C78.4757 55.8062 78.4115 55.8108 78.3527 55.7911C78.2939 55.7715 78.2453 55.7294 78.2175 55.6739C78.1898 55.6185 78.1853 55.5543 78.2049 55.4955C78.2245 55.4367 78.2666 55.3881 78.3221 55.3604L78.3306 55.355C78.5629 55.2055 78.7621 55.01 78.9159 54.7805C79.0872 54.5418 79.2359 54.2878 79.3603 54.0217C79.6152 53.4811 79.8079 52.9133 79.9348 52.3292C80.0658 51.7462 80.1394 51.1519 80.1546 50.5546C80.1744 49.9612 80.1329 49.3673 80.0308 48.7824C79.8349 47.6188 79.3882 46.5118 78.7216 45.5383C78.0643 44.5635 77.1878 43.7451 76.2108 43.0607L77.05 42.6364C77.0163 43.5242 76.9318 44.4093 76.7969 45.2874C76.7636 45.5073 76.7233 45.7256 76.6846 45.9447C76.6459 46.1638 76.5994 46.3806 76.5476 46.5974C76.4523 47.0318 76.337 47.4615 76.2154 47.8889C75.9647 48.7464 75.6591 49.5869 75.3003 50.4052C75.1222 50.8124 74.9287 51.2127 74.7235 51.606C74.5183 51.9994 74.3008 52.3865 74.0708 52.7674C73.8409 53.1483 73.6017 53.5192 73.3485 53.8831C73.0953 54.247 72.829 54.6001 72.5542 54.9469C71.4545 56.3299 70.1884 57.5719 68.7845 58.6447C68.4338 58.9111 68.0761 59.1674 67.7076 59.4089C67.5223 59.5297 67.3354 59.6469 67.147 59.7604C66.9558 59.8742 66.7684 59.9819 66.5633 60.0879C66.5092 60.1187 66.445 60.1268 66.385 60.1103C66.325 60.0938 66.2739 60.0542 66.2431 60.0001C66.2123 59.946 66.2043 59.8818 66.2208 59.8218C66.2373 59.7617 66.2769 59.7107 66.331 59.6799L66.3434 59.6745Z" fill="black"/>
<path d="M74.731 66.124C75.0499 66.2967 75.323 66.5431 75.5277 66.8425C75.7397 67.1546 75.8784 67.5106 75.9333 67.8838C75.9877 68.2542 75.9728 68.6315 75.8892 68.9964C75.8703 69.0868 75.8463 69.176 75.8172 69.2636C75.7886 69.3511 75.7615 69.4393 75.7243 69.5237C75.6904 69.6087 75.6521 69.6919 75.6097 69.773C75.5687 69.8551 75.5269 69.9364 75.4781 70.0138C75.1008 70.6511 74.5255 71.1475 73.8399 71.4276C73.499 71.5635 73.1353 71.6326 72.7683 71.6312C72.4129 71.6293 72.0616 71.5545 71.7363 71.4113C71.686 71.3892 71.6449 71.3503 71.62 71.3013C71.5951 71.2522 71.588 71.1961 71.5998 71.1424C71.6117 71.0887 71.6418 71.0408 71.6851 71.0068C71.7283 70.9728 71.782 70.9549 71.837 70.9561H71.8447C72.4011 70.9763 72.9523 70.8424 73.4373 70.5689C73.8957 70.2989 74.2785 69.9172 74.5498 69.4594C74.8258 69.0123 74.9761 68.499 74.9849 67.9737C74.9888 67.4572 74.8053 66.9532 74.4368 66.4894L74.4321 66.484C74.3982 66.4411 74.3801 66.3878 74.3808 66.3331C74.3816 66.2783 74.4011 66.2255 74.4361 66.1835C74.4712 66.1415 74.5196 66.1128 74.5733 66.1022C74.627 66.0917 74.6827 66.0999 74.731 66.1255V66.124Z" fill="black"/>
<path d="M71.2747 57.176C76.2034 39.7229 43.6546 41.1862 49.5835 58.2894L49.8769 71.9711C49.8769 71.9711 53.3779 78.9185 61.3353 78.4454C69.2927 77.9723 75.7597 70.6719 68.7198 65.9962C66.1107 60.0732 71.2747 57.176 71.2747 57.176Z" fill="#51CAE4"/>
<path d="M49.9121 71.6498C51.3971 69.2806 53.2196 66.2433 53.2359 66.2301C52.5623 66.1233 63.6116 61.9288 49.076 59.0404C47.3665 58.9212 43.4242 57.7095 39.91 49.7495C35.1347 56.4932 40.555 63.0441 42.7491 63.2376C37.2638 64.1729 41.5715 69.2272 45.1128 68.9268C43.9755 71.4965 47.1374 73.9718 49.9121 71.6498Z" fill="#51CAE4"/>
<path d="M44.3473 63.8338C43.8611 63.6789 43.3703 63.5767 42.8988 63.5969C42.447 63.6037 42.0064 63.7379 41.6275 63.984C41.2762 64.2141 41.0123 64.5555 40.8781 64.9534C40.8474 65.0492 40.8244 65.1473 40.8091 65.2468C40.7959 65.3461 40.7915 65.4464 40.796 65.5464C40.8039 65.7484 40.8477 65.9474 40.9253 66.1341C41.0991 66.536 41.3748 66.8856 41.725 67.1484C42.1064 67.4401 42.5281 67.6748 42.977 67.8452C43.4481 68.0301 43.934 68.1752 44.4294 68.2788C44.9311 68.3949 45.4475 68.4723 45.9701 68.5505C46.0242 68.5616 46.0728 68.5913 46.1073 68.6345C46.1418 68.6778 46.16 68.7317 46.1588 68.787C46.1576 68.8423 46.1371 68.8954 46.1008 68.9371C46.0644 68.9787 46.0146 69.0063 45.96 69.0151C45.4143 69.0696 44.8649 69.0768 44.3179 69.0367C43.7582 68.997 43.2043 68.8976 42.6657 68.7402C42.5287 68.7015 42.394 68.6512 42.2585 68.6039C42.123 68.5567 41.9898 68.4963 41.8574 68.4328C41.5882 68.3072 41.3313 68.1566 41.0902 67.983C40.8398 67.8022 40.6125 67.5913 40.4135 67.3551C40.2077 67.1079 40.0406 66.831 39.918 66.5336C39.7957 66.2262 39.7288 65.8996 39.7206 65.5689C39.7149 65.2364 39.7717 64.9057 39.8878 64.5941C40.1203 63.9809 40.5654 63.4717 41.1421 63.1594C41.2117 63.1199 41.2837 63.0866 41.355 63.0534C41.4262 63.0201 41.5005 62.9914 41.5756 62.9682L41.6871 62.931C41.7243 62.9194 41.7645 62.9101 41.7994 62.9001C41.8768 62.8776 41.9542 62.8652 42.027 62.8505C42.3269 62.7987 42.6327 62.7896 42.9351 62.8234C43.5108 62.894 44.0631 63.0936 44.5509 63.4072C44.5787 63.4202 44.6037 63.4386 44.6244 63.4612C44.6451 63.4839 44.6612 63.5104 44.6716 63.5393C44.6821 63.5682 44.6868 63.5988 44.6854 63.6295C44.684 63.6601 44.6766 63.6902 44.6636 63.718C44.6506 63.7459 44.6322 63.7708 44.6095 63.7915C44.5869 63.8123 44.5604 63.8283 44.5315 63.8388C44.5026 63.8492 44.472 63.8539 44.4413 63.8525C44.4106 63.8511 44.3805 63.8437 44.3527 63.8307L44.3473 63.8338Z" fill="black"/>
<path d="M45.4667 68.8122C45.37 68.9961 45.2921 69.1894 45.2344 69.389C45.1821 69.5755 45.156 69.7683 45.157 69.962C45.1612 70.3279 45.2798 70.6834 45.4961 70.9786C45.7149 71.2758 46.003 71.515 46.3353 71.6754C46.6729 71.8429 47.0426 71.9359 47.4193 71.9479C47.8005 71.9624 48.1808 71.9008 48.538 71.7668C48.909 71.6251 49.2551 71.4252 49.5631 71.1745C49.7231 71.0435 49.8756 70.9037 50.0198 70.7556C50.1654 70.6054 50.3032 70.4459 50.4379 70.2763C50.5726 70.1068 50.6988 69.9326 50.8196 69.7498C50.9404 69.5671 51.0581 69.379 51.1773 69.1885V69.1815C51.1897 69.1535 51.2074 69.1281 51.2296 69.1069C51.2517 69.0857 51.2778 69.0691 51.3064 69.058C51.335 69.0469 51.3655 69.0415 51.3961 69.0422C51.4268 69.0429 51.457 69.0496 51.485 69.0619C51.5131 69.0743 51.5385 69.092 51.5597 69.1142C51.5809 69.1363 51.5975 69.1624 51.6086 69.191C51.6197 69.2196 51.6251 69.2501 51.6244 69.2807C51.6237 69.3114 51.617 69.3416 51.6047 69.3697C51.5737 69.4835 51.5412 69.5965 51.5048 69.7096C51.4684 69.8226 51.4274 69.9341 51.3817 70.0448C51.2937 70.2683 51.1924 70.4862 51.0782 70.6975C50.9599 70.9122 50.828 71.1191 50.6833 71.3169C50.5351 71.5174 50.372 71.7066 50.1956 71.8829C49.8294 72.2465 49.3985 72.5386 48.9251 72.7439C48.682 72.8482 48.4284 72.9261 48.1687 72.9761C47.642 73.0759 47.0994 73.0542 46.5823 72.9126C46.3232 72.8411 46.0737 72.7387 45.8391 72.6076C45.6026 72.4767 45.3843 72.3156 45.1895 72.1283C44.9915 71.9393 44.822 71.7226 44.6863 71.4849C44.4081 71.005 44.3026 70.4443 44.3874 69.8962C44.475 69.3838 44.7167 68.9103 45.0803 68.5389C45.1196 68.4982 45.1721 68.4729 45.2284 68.4676C45.2847 68.4623 45.341 68.4773 45.3871 68.5101C45.4332 68.5428 45.4661 68.5909 45.4797 68.6458C45.4933 68.7007 45.4867 68.7587 45.4613 68.8091L45.4667 68.8122Z" fill="black"/>
<path d="M48.8223 59.6528L48.703 59.6203L48.5931 59.5886C48.5211 59.5669 48.4499 59.5444 48.3786 59.5212C48.2367 59.4742 48.0971 59.4247 47.9598 59.3726C47.6836 59.2693 47.4121 59.1553 47.1453 59.0303C46.6122 58.7834 46.095 58.5034 45.5969 58.1918C43.59 56.9378 41.9263 55.2044 40.7557 53.1476C40.1736 52.1236 39.7062 51.0385 39.3621 49.912V49.912L40.3825 50.0808C40.0319 50.5979 39.7136 51.1363 39.4295 51.6928C39.1513 52.2484 38.9318 52.8314 38.7745 53.4325C38.6163 54.033 38.5252 54.6492 38.5027 55.2698C38.4834 55.8925 38.5306 56.5154 38.6436 57.128C38.8794 58.369 39.3628 59.5498 40.0651 60.5997C40.4114 61.1254 40.8178 61.6089 41.276 62.0406C41.5002 62.2518 41.7439 62.4413 42.0037 62.6066C42.2372 62.7643 42.5008 62.8719 42.7779 62.9225H42.7872C42.8694 62.931 42.9448 62.9718 42.9968 63.0359C43.0489 63.1 43.0733 63.1822 43.0648 63.2643C43.0563 63.3465 43.0155 63.4218 42.9514 63.4739C42.8873 63.526 42.8051 63.5504 42.723 63.5419C42.5285 63.5243 42.3375 63.4795 42.1555 63.4087C41.9854 63.3446 41.8207 63.267 41.6631 63.1764C41.3593 63.0004 41.0726 62.7964 40.8068 62.5671C40.2857 62.1167 39.82 61.606 39.4194 61.0457C38.6124 59.9273 38.0394 58.6574 37.7347 57.3123C37.5833 56.6351 37.5055 55.9436 37.5024 55.2497C37.5034 54.5524 37.5813 53.8573 37.7347 53.177C37.8873 52.4976 38.1096 51.8357 38.3982 51.2019C38.4671 51.0416 38.5476 50.8922 38.6227 50.7319C38.6978 50.5717 38.7838 50.4222 38.8728 50.2767C38.9169 50.1993 38.9595 50.1265 39.0044 50.0529L39.1453 49.8354C39.1918 49.7579 39.2398 49.6906 39.2909 49.6209L39.4457 49.4119L39.4566 49.3964C39.5197 49.3104 39.6058 49.244 39.7049 49.2046C39.804 49.1652 39.9122 49.1544 40.0172 49.1735C40.1221 49.1927 40.2195 49.2409 40.2984 49.3128C40.3772 49.3846 40.4343 49.4772 40.463 49.5799C40.7609 50.6347 41.1745 51.6534 41.6964 52.6172C42.7454 54.5519 44.2586 56.1956 46.1001 57.4005C46.5594 57.7012 47.037 57.973 47.5301 58.2143C47.7763 58.3345 48.0261 58.4458 48.2795 58.548C48.4055 58.5996 48.5324 58.6476 48.6604 58.692L48.8509 58.757L48.9446 58.7865L49.0313 58.8112L49.0537 58.8182C49.1639 58.849 49.2573 58.9223 49.3134 59.022C49.3696 59.1217 49.3838 59.2396 49.353 59.3497C49.3222 59.4599 49.2489 59.5533 49.1492 59.6094C49.0495 59.6655 48.9316 59.6798 48.8215 59.649L48.8223 59.6528Z" fill="black"/>
<path d="M52.9196 75.8029C50.7193 71.265 53.5297 66.7605 55.1091 66.6226C54.914 66.3067 55.0542 66.3904 55.0542 66.3904C55.0542 66.3904 44.6951 64.8782 49.582 58.2902C50.3393 57.8173 51.2139 57.5657 52.1067 57.5639C51.0422 55.331 49.9776 49.2648 55.1091 47.6141C59.9728 46.0509 62.3248 51.387 61.9811 55.3418C63.1873 55.1475 63.8338 55.3976 63.7533 55.3488C63.6154 50.351 66.528 46.2421 69.6319 48.0384C72.4779 51.8105 71.3522 57.4253 71.3522 57.4253C71.3522 57.4253 76.2088 57.9201 74.854 62.5741C73.8583 65.9963 67.1528 65.7392 67.1528 65.7392C72.8898 65.9986 75.7722 78.375 59.3596 78.4369C54.0097 76.5624 52.9196 75.8029 52.9196 75.8029Z" fill="#FFFCD9"/>
<path d="M53.9966 58.6038C53.3417 58.3583 52.6596 58.2244 52.0061 58.2941C51.3627 58.3558 50.7521 58.6073 50.2518 59.0165C49.7569 59.4218 49.3799 59.9526 49.1601 60.5533C49.049 60.8492 48.9794 61.159 48.9534 61.4739C48.94 61.6284 48.9369 61.7836 48.9441 61.9385C48.9531 62.0946 48.9736 62.2499 49.0053 62.403C49.1317 63.0209 49.4314 63.5899 49.8693 64.0437C50.3314 64.5182 50.8819 64.8977 51.4897 65.1609C52.1248 65.4418 52.7897 65.6496 53.4717 65.7803C54.1726 65.9184 54.8809 66.0153 55.5931 66.0706V66.0706C55.6547 66.0706 55.7138 66.0951 55.7573 66.1387C55.8009 66.1822 55.8253 66.2413 55.8253 66.3029C55.8253 66.3645 55.8009 66.4236 55.7573 66.4671C55.7138 66.5107 55.6547 66.5352 55.5931 66.5352C54.8489 66.606 54.0997 66.606 53.3556 66.5352C52.5922 66.4677 51.8411 66.2992 51.122 66.0342C50.7526 65.897 50.3976 65.7238 50.0621 65.5171C49.7169 65.3065 49.3978 65.056 49.1113 64.7707C48.8191 64.478 48.5688 64.1463 48.3673 63.7851C48.1663 63.4176 48.0219 63.0219 47.9392 62.6113C47.7798 61.7923 47.8632 60.9446 48.1792 60.1724C48.3321 59.7898 48.5386 59.4309 48.7924 59.1063C49.0442 58.7804 49.3426 58.4935 49.6781 58.2546C49.7625 58.195 49.8461 58.1361 49.9359 58.085C50.0257 58.0339 50.1147 57.9836 50.2053 57.9364C50.2959 57.8891 50.3919 57.8504 50.4848 57.8078C50.5777 57.7653 50.6768 57.7304 50.7744 57.7049C51.1631 57.5837 51.568 57.5221 51.9752 57.5222C52.7634 57.5383 53.5328 57.7656 54.2034 58.1803C54.231 58.1936 54.2558 58.2123 54.2762 58.2353C54.2966 58.2582 54.3123 58.2849 54.3224 58.3139C54.3325 58.3429 54.3368 58.3737 54.3351 58.4043C54.3333 58.435 54.3255 58.465 54.3121 58.4927C54.2988 58.5203 54.2801 58.5451 54.2571 58.5655C54.2342 58.586 54.2075 58.6017 54.1785 58.6118C54.1495 58.6219 54.1187 58.6262 54.0881 58.6244C54.0574 58.6226 54.0274 58.6148 53.9997 58.6015L53.9966 58.6038Z" fill="black"/>
<path d="M52.1969 47.6133C51.8098 46.7152 51.6929 43.7537 52.6018 41.7887C54.0055 38.7521 56.301 41.4015 54.3655 43.7243C52.5848 45.862 52.8109 47.1155 52.8109 47.1155" fill="#51CAE4"/>
<path d="M69.249 57.8984C69.8959 57.4975 70.6349 57.2695 71.3951 57.2364C71.7894 57.2275 72.1827 57.2781 72.5619 57.3866C72.946 57.4972 73.3097 57.6693 73.6388 57.8961C74.3107 58.3543 74.8274 59.0061 75.1201 59.7649C75.4129 60.5237 75.4679 61.3536 75.2778 62.1444C75.1799 62.5398 75.0214 62.9177 74.8079 63.2647C74.5974 63.6053 74.3411 63.9154 74.0461 64.1861C73.4701 64.7001 72.7969 65.0934 72.0664 65.3428C71.8891 65.4024 71.711 65.4628 71.5314 65.5085C71.3518 65.5542 71.1714 65.5998 70.9894 65.6378C70.6298 65.7084 70.2667 65.7601 69.9017 65.7926C69.1822 65.854 68.4586 65.8491 67.7401 65.7779C67.6779 65.7779 67.6184 65.7533 67.5745 65.7093C67.5305 65.6654 67.5059 65.6058 67.5059 65.5437C67.5059 65.4816 67.5305 65.422 67.5745 65.3781C67.6184 65.3342 67.6779 65.3095 67.7401 65.3095C68.4281 65.2545 69.1125 65.1614 69.7902 65.0308C70.4505 64.908 71.096 64.7154 71.7157 64.4563C72.318 64.1938 72.877 63.857 73.3175 63.4227C73.5362 63.2102 73.7259 62.97 73.8819 62.708C74.0357 62.4527 74.1495 62.1755 74.2195 61.8858C74.3599 61.3016 74.3254 60.6891 74.1204 60.1244C73.9163 59.5492 73.5537 59.0435 73.0744 58.6657C72.5846 58.2818 71.9917 58.0522 71.3711 58.006C70.7401 57.9503 70.0828 58.0834 69.448 58.3157C69.3921 58.3428 69.3278 58.3466 69.2691 58.3263C69.2105 58.306 69.1623 58.2632 69.1352 58.2073C69.1081 58.1515 69.1043 58.0871 69.1246 58.0285C69.1449 57.9698 69.1877 57.9216 69.2436 57.8945L69.249 57.8984Z" fill="black"/>
<path d="M63.0527 67.2536C63.8099 66.5111 64.7297 65.8902 65.7896 65.5503C66.3256 65.3817 66.8853 65.3004 67.4472 65.3095C68.0189 65.3197 68.5843 65.4322 69.1164 65.6416C70.1946 66.0728 71.0884 66.867 71.6434 67.887C71.921 68.3917 72.1138 68.9387 72.214 69.5059C72.312 70.0716 72.3219 70.6491 72.2434 71.2178C72.1638 71.7794 72.0048 72.3268 71.7712 72.8437C71.5411 73.3537 71.2507 73.8343 70.9064 74.2753C70.5667 74.708 70.188 75.1086 69.7752 75.4723C69.3663 75.8277 68.931 76.1515 68.473 76.4409L68.13 76.6522C68.0147 76.7204 67.8978 76.7846 67.7801 76.8504L67.6051 76.948L67.4263 77.0386C67.3078 77.0997 67.1878 77.1586 67.0686 77.2174L66.7047 77.3808L66.5228 77.4582L66.3385 77.5357L65.97 77.6851C65.8461 77.7315 65.722 77.777 65.5976 77.8213C64.606 78.1722 63.5874 78.4409 62.5518 78.625C62.4914 78.6398 62.4277 78.63 62.3745 78.5978C62.3214 78.5655 62.2832 78.5135 62.2684 78.4531C62.2537 78.3928 62.2635 78.329 62.2957 78.2758C62.3279 78.2227 62.38 78.1845 62.4403 78.1698V78.1698C63.4172 77.872 64.3762 77.5187 65.3127 77.1114L65.6603 76.9565L66.0017 76.7916L66.172 76.7095L66.3393 76.6213L66.673 76.4447C67.1102 76.2043 67.5348 75.9415 67.945 75.6573C68.348 75.3716 68.733 75.0614 69.0978 74.7282C69.4531 74.397 69.7776 74.0342 70.0671 73.6443C70.3523 73.2625 70.5931 72.8495 70.7848 72.4132C70.9753 71.9856 71.1041 71.533 71.1673 71.0691C71.3008 70.1493 71.1427 69.2108 70.7151 68.3856C70.6097 68.1809 70.4878 67.9851 70.3505 67.8003C70.2777 67.7112 70.2104 67.6175 70.1306 67.5339C70.0919 67.4921 70.0532 67.4464 70.0145 67.4069L69.8914 67.2861C69.7236 67.1273 69.5423 66.9835 69.3494 66.8564C69.1592 66.726 68.9576 66.613 68.7471 66.5189C68.3215 66.33 67.8666 66.2158 67.4023 66.1813C66.928 66.1441 66.4509 66.1823 65.9886 66.2943C65.0471 66.5111 64.1614 67.0012 63.3562 67.6106C63.3091 67.651 63.2478 67.6711 63.1859 67.6664C63.124 67.6616 63.0665 67.6325 63.026 67.5854C62.9856 67.5383 62.9655 67.477 62.9702 67.4151C62.9749 67.3531 63.0041 67.2956 63.0512 67.2552L63.0527 67.2536Z" fill="black"/>
<path d="M62.4414 78.6297C61.4058 78.4454 60.3872 78.1763 59.3956 77.8253L59.0232 77.689L58.6547 77.5396L58.4704 77.4621L58.2885 77.3847L57.9246 77.2206C57.8046 77.1625 57.6846 77.1029 57.5662 77.0425L57.3873 76.9519L57.2123 76.8536C57.0962 76.7878 56.9801 76.7243 56.8624 76.6561L56.5194 76.4448C56.4041 76.3766 56.2949 76.2953 56.1826 76.221L56.0146 76.1072C55.9597 76.0685 55.9062 76.0298 55.8513 75.9872C55.7437 75.9043 55.6337 75.8262 55.53 75.7379L55.2203 75.4754C54.8065 75.1124 54.4271 74.7119 54.0868 74.2792C53.7433 73.8376 53.4531 73.3571 53.222 72.8476C52.9888 72.3306 52.8301 71.7832 52.7505 71.2217C52.672 70.653 52.682 70.0755 52.7799 69.5098C52.8798 68.9426 53.0728 68.3958 53.3513 67.8916C53.9056 66.8713 54.7993 66.077 55.8776 65.6463C56.4096 65.4365 56.975 65.324 57.5468 65.3142C58.1087 65.3048 58.6684 65.3861 59.2044 65.555C60.2643 65.8925 61.1841 66.5135 61.9413 67.2583C61.9884 67.2988 62.0175 67.3563 62.0222 67.4182C62.0269 67.4801 62.0069 67.5414 61.9664 67.5885C61.926 67.6357 61.8685 67.6648 61.8065 67.6695C61.7446 67.6742 61.6833 67.6541 61.6362 67.6137C61.2382 67.3104 60.815 67.0418 60.3711 66.8108C59.9377 66.5853 59.4783 66.414 59.0031 66.3006C58.5409 66.1879 58.0637 66.1495 57.5894 66.1868C57.1249 66.2218 56.6698 66.3359 56.2438 66.5243C56.0334 66.6188 55.8318 66.7318 55.6415 66.8619C55.4487 66.9892 55.2674 67.133 55.0995 67.2916L54.9764 67.4124C54.9346 67.4526 54.899 67.4976 54.8595 67.5401C54.7821 67.623 54.7124 67.7167 54.6404 67.8065C54.5026 67.9909 54.3803 68.1864 54.275 68.391C53.8474 69.2165 53.6895 70.1554 53.8236 71.0754C53.8868 71.5392 54.0155 71.9918 54.2061 72.4195C54.3977 72.8557 54.6385 73.2688 54.9238 73.6505C55.2131 74.0407 55.5376 74.4035 55.8931 74.7345L56.1687 74.9791C56.2593 75.0612 56.3592 75.134 56.4536 75.2114C56.5016 75.2501 56.5481 75.2888 56.5968 75.3283L56.7455 75.4398C56.8461 75.5126 56.9414 75.5946 57.0459 75.6597C57.457 75.9442 57.8823 76.2075 58.3202 76.4486L58.6539 76.6252L58.8212 76.7134L58.9915 76.7955L59.3329 76.9604L59.6805 77.1153C60.6165 77.5247 61.5753 77.8799 62.5521 78.1791V78.1791C62.6125 78.1939 62.6645 78.232 62.6967 78.2852C62.729 78.3383 62.7388 78.4021 62.724 78.4625C62.7092 78.5228 62.671 78.5749 62.6179 78.6071C62.5648 78.6393 62.501 78.6491 62.4406 78.6343L62.4414 78.6297Z" fill="black"/>
<path d="M49.3642 58.3661C49.2218 57.9619 49.0662 57.5608 48.9555 57.1435L48.8656 56.8338C48.8378 56.7293 48.8176 56.6232 48.7929 56.5179L48.7224 56.2013L48.6876 56.0464L48.662 55.8861C48.5042 55.0251 48.4607 54.147 48.5327 53.2746C48.6764 51.4898 49.381 49.7963 50.5457 48.4363L50.7633 48.1839L50.8182 48.1212L50.8763 48.0616L50.9901 47.9393L51.2224 47.7016C51.2998 47.6241 51.3857 47.5514 51.4678 47.477C51.5499 47.4027 51.6319 47.3276 51.7155 47.2556L51.9749 47.0489C52.0624 46.9807 52.1468 46.9087 52.2366 46.8452L52.5068 46.654C53.2299 46.1512 54.0037 45.7256 54.8155 45.3842C55.6233 45.0466 56.46 44.7828 57.3154 44.596C59.0229 44.2145 60.7817 44.1184 62.5205 44.3119C63.3914 44.4041 64.252 44.5757 65.0917 44.8244C65.937 45.0741 66.7527 45.4149 67.5243 45.841C68.3033 46.2694 69.0195 46.8033 69.6526 47.4275C70.9389 48.6803 71.7749 50.3234 72.0302 52.1008C72.1551 52.9679 72.1637 53.8477 72.0557 54.717L72.0395 54.8788L72.0132 55.0391L71.9613 55.3589C71.9427 55.4657 71.9288 55.5726 71.9071 55.6786L71.8359 55.9938C71.7484 56.4165 71.6168 56.8261 71.4983 57.2372C71.4835 57.2974 71.4454 57.3492 71.3924 57.3813C71.3395 57.4134 71.2759 57.4231 71.2157 57.4083C71.1556 57.3935 71.1037 57.3555 71.0716 57.3025C71.0396 57.2495 71.0298 57.1859 71.0446 57.1257V57.1102C71.1298 56.703 71.2281 56.2996 71.2815 55.8892L71.3311 55.5795C71.3458 55.4773 71.3528 55.3744 71.3644 55.2698L71.3953 54.9601L71.4108 54.8053L71.417 54.6504C71.4224 54.446 71.4364 54.2409 71.4371 54.0365L71.4294 53.4364L71.3729 52.8294C71.3442 52.6289 71.3078 52.4307 71.2761 52.2309C71.1276 51.4423 70.8539 50.6824 70.4655 49.9802C70.077 49.2839 69.5822 48.6526 68.9991 48.1088C68.4107 47.5653 67.7544 47.1003 67.0466 46.7252C66.3327 46.347 65.5799 46.0474 64.8013 45.8317C61.6345 44.9714 58.2747 45.155 55.2204 46.3551C54.4693 46.6547 53.7515 47.032 53.0789 47.4809L52.8289 47.6505C52.746 47.7078 52.6694 47.772 52.5889 47.8316L52.3496 48.0151L52.1212 48.211C52.0438 48.2768 51.9664 48.3395 51.8936 48.4077L51.6784 48.6159L51.57 48.7205L51.5158 48.7723L51.4655 48.8281L51.2642 49.0495C50.1832 50.2474 49.4971 51.7491 49.2992 53.3505C49.2799 53.5518 49.2535 53.7523 49.2388 53.9544L49.2179 54.5637L49.2388 55.1754C49.2528 55.379 49.2775 55.5826 49.2946 55.787L49.3093 55.9419L49.334 56.0967L49.3828 56.401C49.3999 56.5032 49.4122 56.6054 49.4331 56.7061L49.5005 57.0088C49.5779 57.4153 49.6987 57.8125 49.8102 58.2143L49.8141 58.229C49.8324 58.2882 49.8266 58.3522 49.7978 58.407C49.7689 58.4618 49.7195 58.5029 49.6604 58.5213C49.6012 58.5397 49.5372 58.5338 49.4824 58.505C49.4276 58.4762 49.3865 58.4267 49.3681 58.3676L49.3642 58.3661Z" fill="black"/>
<path d="M51.9823 47.707C51.8278 47.3844 51.7184 47.042 51.6571 46.6896C51.6386 46.6044 51.6262 46.5201 51.6122 46.4341C51.5983 46.3482 51.5851 46.2638 51.5758 46.1786L51.5456 45.9223L51.5232 45.6661C51.4977 45.3238 51.4953 44.9808 51.5 44.6371C51.5094 44.2921 51.5365 43.9479 51.5813 43.6058C51.6669 42.9023 51.8507 42.2143 52.1271 41.5618C52.279 41.2122 52.4789 40.8854 52.7209 40.5909C52.7532 40.5509 52.7878 40.5129 52.8247 40.477L52.9354 40.3663C52.9756 40.3307 53.0198 40.2959 53.0616 40.2618C53.1039 40.2251 53.1492 40.192 53.1971 40.1627C53.4013 40.0211 53.636 39.9296 53.8822 39.8956C54.1534 39.8606 54.4288 39.9069 54.6735 40.0288C54.8991 40.1418 55.093 40.3092 55.2379 40.5158C55.3678 40.6995 55.467 40.9032 55.5313 41.1189C55.5476 41.1708 55.5584 41.2227 55.5716 41.2738L55.5894 41.3512L55.601 41.4286C55.6087 41.4805 55.6165 41.5323 55.6219 41.5835L55.6296 41.7383C55.6405 42.1387 55.5686 42.5369 55.4183 42.9082C55.2775 43.2622 55.0824 43.5921 54.8399 43.8861C54.7153 44.0409 54.6208 44.1439 54.5148 44.2678C54.4087 44.3916 54.3142 44.5124 54.2136 44.6348L54.1362 44.7269L54.0673 44.8221L53.9279 45.0126C53.8815 45.0769 53.8412 45.1434 53.7971 45.2085C53.7529 45.2735 53.7096 45.3386 53.6709 45.4059C53.5057 45.6678 53.3645 45.944 53.2489 46.2313C53.1914 46.3716 53.1435 46.5157 53.1057 46.6625L53.0801 46.7709C53.0716 46.8073 53.067 46.8429 53.06 46.8793C53.053 46.9157 53.0507 46.9498 53.0461 46.9854C53.0414 47.021 53.0414 47.0628 53.0383 47.0721L53.0205 47.1557C53.0093 47.2061 52.9813 47.2511 52.941 47.2834C52.9008 47.3157 52.8507 47.3333 52.7991 47.3333C52.7475 47.3333 52.6974 47.3157 52.6572 47.2834C52.6169 47.2511 52.5889 47.2061 52.5777 47.1557C52.5667 47.1028 52.5584 47.0493 52.5529 46.9954C52.549 46.9474 52.5452 46.8994 52.5444 46.853C52.5436 46.8065 52.5444 46.7601 52.5444 46.7136L52.5514 46.5766C52.5682 46.3972 52.5975 46.2192 52.6388 46.0439C52.6597 45.9572 52.6791 45.8689 52.7077 45.7861C52.7364 45.7032 52.7588 45.615 52.7921 45.5337L52.8858 45.2867L52.9919 45.0459C53.026 44.9638 53.0693 44.891 53.1088 44.8136C53.1483 44.7362 53.1862 44.6588 53.2319 44.5813L53.3635 44.356L53.4293 44.2438L53.5005 44.1346C53.595 43.9906 53.6879 43.8435 53.7924 43.7072C53.8969 43.5709 54.0061 43.4184 54.082 43.31C54.2467 43.0811 54.3771 42.8294 54.4691 42.5629C54.5561 42.3145 54.5932 42.0514 54.5783 41.7886L54.5705 41.6957L54.555 41.6059L54.5481 41.561L54.5364 41.5184C54.5279 41.4905 54.5225 41.4611 54.5132 41.434C54.4808 41.3332 54.4321 41.2382 54.3692 41.153C54.3242 41.0871 54.2632 41.0338 54.1919 40.9981C54.1385 40.9717 54.0782 40.9625 54.0193 40.9718C53.8946 40.9826 53.698 41.1003 53.5315 41.2985C53.3508 41.5139 53.1989 41.7517 53.0794 42.0062C52.8228 42.5668 52.6348 43.1564 52.5196 43.7622C52.3926 44.386 52.3165 45.0191 52.292 45.6552C52.2719 45.975 52.2788 46.294 52.292 46.6114L52.3059 46.8483L52.3307 47.0806C52.3377 47.158 52.3539 47.2316 52.3648 47.3082C52.3703 47.3445 52.3781 47.3805 52.388 47.4159L52.4128 47.5219L52.419 47.5498C52.4333 47.6059 52.4261 47.6654 52.3988 47.7165C52.3716 47.7676 52.3262 47.8066 52.2716 47.826C52.2171 47.8454 52.1572 47.8437 52.1038 47.8213C52.0505 47.7988 52.0074 47.7572 51.9831 47.7047L51.9823 47.707Z" fill="black"/>
<path d="M55.824 57.3642C55.9605 57.2681 56.1088 57.19 56.2653 57.1319C56.4197 57.074 56.5794 57.0315 56.7422 57.005C57.0743 56.9505 57.4138 56.9613 57.7417 57.0367C58.0712 57.1133 58.3819 57.2555 58.6553 57.4548C58.9213 57.6492 59.1434 57.8975 59.3072 58.1834C59.3219 58.2104 59.3272 58.2415 59.3222 58.2718C59.3172 58.3021 59.3022 58.3299 59.2796 58.3507C59.257 58.3715 59.2281 58.3842 59.1974 58.3867C59.1668 58.3892 59.1362 58.3814 59.1105 58.3645V58.3645C58.8738 58.2006 58.6268 58.0519 58.3712 57.9194C58.1275 57.7973 57.8702 57.7045 57.6047 57.6429C57.3374 57.5822 57.0643 57.5508 56.7902 57.5493C56.6508 57.5493 56.5092 57.5531 56.3659 57.5632C56.2227 57.5733 56.0756 57.5918 55.9378 57.6081H55.9215C55.8917 57.6114 55.8616 57.6047 55.836 57.5891C55.8104 57.5735 55.7906 57.5499 55.7797 57.5219C55.7689 57.494 55.7676 57.4632 55.776 57.4344C55.7844 57.4056 55.8021 57.3804 55.8263 57.3627L55.824 57.3642Z" fill="black"/>
<path d="M68.9805 56.8872C68.8435 56.9105 68.6948 56.9329 68.5563 56.9647C68.4177 56.9964 68.2791 57.0289 68.1459 57.0707C67.8833 57.1495 67.6299 57.2565 67.3903 57.3897C67.1532 57.5242 66.9326 57.6858 66.733 57.8713C66.5253 58.071 66.3303 58.2836 66.1492 58.5077V58.5077C66.1377 58.5217 66.1236 58.5332 66.1076 58.5416C66.0916 58.5501 66.0741 58.5552 66.0561 58.5569C66.0382 58.5586 66.02 58.5566 66.0028 58.5513C65.9855 58.5459 65.9695 58.5371 65.9557 58.5255C65.9365 58.5092 65.922 58.488 65.914 58.4642C65.906 58.4403 65.9046 58.4147 65.91 58.3901C65.9868 58.0698 66.1297 57.7691 66.3296 57.5074C66.5356 57.239 66.7937 57.0149 67.0883 56.8485C67.3819 56.6847 67.7046 56.5795 68.0383 56.5388C68.2021 56.5184 68.3676 56.5143 68.5323 56.5264C68.6983 56.5375 68.8622 56.5698 69.02 56.6224C69.0483 56.6325 69.0725 56.6517 69.0887 56.6769C69.105 56.7022 69.1125 56.7321 69.11 56.762C69.1076 56.7919 69.0953 56.8202 69.0751 56.8425C69.0549 56.8647 69.0279 56.8796 68.9983 56.8849L68.9805 56.8872Z" fill="black"/>
<path d="M65.2926 58.4505C64.2606 53.7918 62.0231 54.6566 60.94 57.3448C60.5529 58.3003 59.9049 58.9824 59.356 58.7826C61.1072 60.8801 60.4399 63.9461 62.3243 63.9461C64.2598 63.9461 63.9378 57.9658 65.0031 58.0672C65.1454 58.1529 65.2491 58.2902 65.2926 58.4505V58.4505Z" fill="#FFC300"/>
<path d="M59.402 58.6572C59.4808 58.6716 59.5617 58.6692 59.6393 58.6499C59.717 58.6307 59.7897 58.5952 59.8526 58.5457C59.9987 58.4382 60.1261 58.3074 60.2297 58.1585C60.3409 58.0044 60.438 57.8407 60.52 57.6692C60.5618 57.5825 60.5974 57.4942 60.6361 57.4052C60.6547 57.3611 60.6725 57.3162 60.6888 57.2705L60.7438 57.1241C60.8955 56.7217 61.0943 56.3386 61.336 55.9829C61.4609 55.7992 61.6027 55.6276 61.7595 55.4703C61.9227 55.3042 62.1086 55.1619 62.3115 55.0476C62.5309 54.9234 62.776 54.8516 63.0277 54.8378C63.2866 54.8282 63.5433 54.8884 63.7709 55.012C63.9802 55.1289 64.1671 55.282 64.323 55.4641C64.4691 55.6333 64.5968 55.8176 64.7039 56.0139C64.9056 56.39 65.0646 56.7876 65.1777 57.1992C65.2893 57.6005 65.3716 58.0094 65.4239 58.4226C65.4272 58.4553 65.4184 58.4881 65.3992 58.5148C65.38 58.5416 65.3516 58.5603 65.3195 58.5676C65.2874 58.5748 65.2537 58.57 65.2249 58.5542C65.1961 58.5383 65.174 58.5124 65.163 58.4814C65.036 58.0943 64.9106 57.7118 64.7588 57.3425C64.6861 57.1574 64.604 56.9755 64.5188 56.8005C64.4342 56.6263 64.3399 56.457 64.2363 56.2934C64.1357 56.1376 64.022 55.9907 63.8964 55.8544C63.7817 55.728 63.6453 55.6231 63.4938 55.5447C63.2104 55.4007 62.9054 55.4231 62.6088 55.588C62.3123 55.7529 62.0483 56.0255 61.8207 56.3274C61.5926 56.6428 61.3963 56.9799 61.2346 57.334L61.1727 57.4702C61.151 57.5198 61.1278 57.5686 61.1045 57.6173C61.0573 57.7149 61.0047 57.8093 60.9497 57.903C60.8382 58.0922 60.7085 58.2701 60.5626 58.4342C60.4123 58.6063 60.2328 58.7505 60.0323 58.86C59.9229 58.9164 59.8044 58.9531 59.6823 58.9684C59.5551 58.9825 59.4264 58.963 59.3091 58.9119C59.2776 58.8989 59.2522 58.8745 59.2381 58.8434C59.224 58.8124 59.2222 58.7772 59.2332 58.7449C59.2441 58.7126 59.267 58.6858 59.2971 58.6698C59.3271 58.6537 59.3622 58.6498 59.3951 58.6587L59.402 58.6572Z" fill="black"/>
<path d="M61.1069 59.8805L63.3351 60.1902C63.3351 60.1902 63.1478 62.5129 62.3542 62.578C61.5606 62.643 61.1069 59.8805 61.1069 59.8805Z" fill="#EB5D72"/>
<path d="M59.4285 58.6146C59.8992 58.7161 60.3868 58.7094 60.8546 58.5953C61.3192 58.4853 61.7837 58.2964 62.2598 58.0959C62.5006 57.9968 62.7445 57.8922 63.0031 57.797C63.271 57.6927 63.5484 57.6149 63.8315 57.5647C63.9084 57.5524 63.9859 57.5441 64.0637 57.54L64.1822 57.5345C64.2225 57.5345 64.2643 57.5345 64.3045 57.5407C64.3881 57.546 64.4712 57.5576 64.5531 57.5756C64.5941 57.5849 64.6359 57.5996 64.6762 57.6127C64.7179 57.6241 64.7584 57.6397 64.7969 57.6592L64.9123 57.718C64.9488 57.74 64.9839 57.764 65.0176 57.79C65.0849 57.839 65.1466 57.895 65.2018 57.9573C65.2528 58.0179 65.3003 58.0812 65.3443 58.147C65.3807 58.2143 65.4148 58.2809 65.4465 58.3483C65.4644 58.3863 65.4687 58.4293 65.4588 58.4702C65.4488 58.511 65.4252 58.5473 65.3919 58.5728C65.3585 58.5984 65.3174 58.6118 65.2754 58.6108C65.2334 58.6098 65.1929 58.5945 65.1608 58.5674L65.1376 58.5473C65.0904 58.5078 65.0486 58.4698 65.0052 58.428C64.9618 58.3862 64.9169 58.3583 64.8697 58.3336C64.8262 58.3074 64.7803 58.2854 64.7327 58.2678C64.7094 58.2608 64.6885 58.2492 64.6653 58.2438L64.5956 58.229C64.5728 58.2238 64.5494 58.221 64.526 58.2205C64.502 58.2205 64.4795 58.2151 64.4555 58.2151C64.4058 58.2155 64.3562 58.2188 64.3069 58.2252L64.2294 58.2352L64.152 58.2523C64.1009 58.2608 64.0452 58.2817 63.9917 58.2949C63.7601 58.3702 63.5331 58.4591 63.312 58.5612C63.0797 58.6642 62.8382 58.7741 62.5896 58.8794C62.0926 59.0869 61.553 59.2758 60.9692 59.3323C60.6746 59.3611 60.3773 59.3451 60.0874 59.2851C59.7994 59.2248 59.5254 59.1105 59.2799 58.9483C59.2437 58.9242 59.2171 58.8882 59.2046 58.8466C59.1921 58.8049 59.1946 58.7602 59.2116 58.7202C59.2286 58.6802 59.259 58.6473 59.2976 58.6273C59.3362 58.6074 59.3806 58.6015 59.4231 58.6107L59.4285 58.6146Z" fill="black"/>
<path d="M59.3562 58.6494C59.4102 58.6475 59.4637 58.66 59.5111 58.6858C59.5472 58.7052 59.5808 58.7292 59.611 58.757C59.6599 58.8044 59.7042 58.8562 59.7433 58.9119C59.8119 59.0123 59.8735 59.1173 59.9276 59.2262C60.0352 59.4368 60.1219 59.6505 60.2094 59.8627C60.379 60.2885 60.5354 60.7143 60.6941 61.1348C60.8528 61.5552 61.0169 61.9709 61.2058 62.3666C61.3011 62.5632 61.4009 62.7537 61.5109 62.9349C61.6137 63.1073 61.7366 63.2669 61.8771 63.4103C61.984 63.528 62.1269 63.607 62.2835 63.6348C62.3541 63.6411 62.4252 63.6321 62.492 63.6085C62.5588 63.5848 62.6198 63.5471 62.6707 63.4978C62.8085 63.3673 62.9218 63.2131 63.0051 63.0425C63.1011 62.8522 63.1854 62.6562 63.2575 62.4556C63.3349 62.2504 63.3984 62.0391 63.4611 61.8246C63.5238 61.6101 63.5866 61.3949 63.6454 61.1766C63.7693 60.7414 63.8846 60.2993 64.0464 59.8658C64.0574 59.8333 64.0803 59.8063 64.1105 59.7902C64.1408 59.7741 64.176 59.7703 64.209 59.7794C64.2421 59.7885 64.2703 59.8099 64.288 59.8392C64.3057 59.8686 64.3115 59.9035 64.3042 59.937V59.937C64.1432 60.8189 64.0464 61.724 63.7801 62.6267C63.7133 62.8582 63.6282 63.084 63.5254 63.3019C63.4176 63.5436 63.2649 63.7627 63.0756 63.9476C62.9631 64.0517 62.8317 64.1332 62.6885 64.1876C62.5381 64.243 62.3772 64.2637 62.2177 64.248C62.0628 64.2316 61.9129 64.1836 61.7772 64.1071C61.6548 64.0379 61.5423 63.9524 61.4427 63.8531C61.2644 63.6731 61.1103 63.4706 60.9844 63.2508C60.8638 63.045 60.756 62.8319 60.6616 62.6128C60.4787 62.1876 60.3195 61.7525 60.1846 61.3097C60.0445 60.8738 59.9245 60.4356 59.7975 60.0051C59.7348 59.7891 59.6675 59.5754 59.5939 59.3702C59.559 59.2706 59.5176 59.1734 59.47 59.0791C59.4499 59.0379 59.4258 58.9988 59.398 58.9622C59.3886 58.9496 59.378 58.938 59.3663 58.9274C59.3578 58.9196 59.3562 58.9189 59.357 58.9158C59.3386 58.9172 59.3201 58.9148 59.3027 58.9087C59.2853 58.9026 59.2693 58.893 59.2558 58.8805C59.2423 58.8679 59.2315 58.8527 59.2241 58.8358C59.2167 58.8189 59.2129 58.8007 59.2129 58.7822C59.2129 58.7638 59.2167 58.7455 59.2241 58.7286C59.2315 58.7117 59.2423 58.6965 59.2558 58.684C59.2693 58.6714 59.2853 58.6618 59.3027 58.6557C59.3201 58.6497 59.3386 58.6472 59.357 58.6486L59.3562 58.6494Z" fill="black"/>
<path d="M60.3261 58.9073C60.44 58.9296 60.5473 58.9778 60.6396 59.0482C60.7252 59.1144 60.8031 59.1899 60.8719 59.2735C61.0029 59.4338 61.1175 59.6068 61.2141 59.7899C61.3998 60.145 61.5635 60.5111 61.7042 60.8863L61.9163 61.436C61.9867 61.6171 62.0564 61.7975 62.1354 61.9663C62.1725 62.0475 62.2142 62.1266 62.26 62.2032C62.2798 62.236 62.3015 62.2676 62.3251 62.2977C62.3389 62.3158 62.355 62.3319 62.3731 62.3457C62.3731 62.3457 62.3731 62.3457 62.3638 62.3457C62.3516 62.3424 62.3388 62.3424 62.3266 62.3457C62.3042 62.3542 62.3181 62.3519 62.3344 62.331C62.3792 62.2695 62.4156 62.2023 62.4428 62.1312C62.5114 61.9569 62.5708 61.7791 62.6208 61.5986C62.6735 61.4135 62.723 61.2238 62.7757 61.0341C62.8717 60.654 62.9739 60.2707 63.0854 59.889C63.1969 59.5015 63.3404 59.124 63.5143 58.7602C63.6048 58.5729 63.717 58.397 63.8487 58.236C63.9843 58.0601 64.1717 57.9312 64.3845 57.8675C64.4091 57.862 64.4348 57.8659 64.4566 57.8785C64.4785 57.8911 64.4948 57.9114 64.5024 57.9354C64.5099 57.9594 64.5082 57.9854 64.4976 58.0082C64.487 58.0311 64.4682 58.0491 64.4449 58.0587C64.2852 58.1303 64.1504 58.2478 64.0578 58.3963C63.9546 58.5512 63.8679 58.7165 63.7992 58.8895C63.6598 59.2483 63.5457 59.6164 63.4578 59.9912C63.361 60.3675 63.2828 60.7515 63.1938 61.1356C63.1496 61.3283 63.1047 61.5227 63.0544 61.7155C63.0056 61.9164 62.9432 62.1137 62.8678 62.3062C62.8244 62.4189 62.7655 62.5249 62.6928 62.6213C62.6356 62.6961 62.5579 62.7526 62.4691 62.7839C62.4096 62.802 62.3468 62.8059 62.2856 62.7956C62.2342 62.7853 62.1849 62.7661 62.14 62.739C62.0757 62.6991 62.0187 62.6486 61.9713 62.5896C61.933 62.5432 61.8984 62.4941 61.8675 62.4425C61.813 62.3496 61.7639 62.2537 61.7204 62.1552C61.5516 61.7782 61.4324 61.4027 61.3047 61.031C61.1769 60.6594 61.0538 60.2924 60.9044 59.9417C60.8324 59.7687 60.7459 59.6022 60.6458 59.4438C60.5467 59.2936 60.4283 59.1543 60.2796 59.1001H60.2742C60.2505 59.0914 60.2309 59.0742 60.2193 59.0518C60.2077 59.0294 60.2049 59.0034 60.2115 58.9791C60.2182 58.9547 60.2337 58.9338 60.255 58.9203C60.2764 58.9069 60.302 58.9019 60.3268 58.9065L60.3261 58.9073Z" fill="black"/>
<path d="M53.2552 75.9949C53.4139 76.1498 53.5076 76.2373 53.5076 76.2373C53.5076 76.2373 47.3379 76.9178 47.4153 78.1729C49.3315 79.3993 52.8487 78.1729 52.8487 78.1729C52.8487 78.1729 50.996 80.3214 52.7132 80.8441C54.4304 81.3667 55.7443 77.4381 55.7443 77.4381C55.7443 77.4381 53.8808 76.324 53.2552 75.9949Z" fill="#51CAE4"/>
<path d="M60.7109 59.0048L63.9379 57.9658C63.5514 58.9561 63.2453 59.976 63.0227 61.0155C62.2764 59.978 61.2839 60.2699 61.2839 60.2699L60.7109 59.0048Z" fill="black"/>
<path d="M57.7733 54.6056L58.7093 54.2223C58.8475 54.1654 58.9604 54.0605 59.0272 53.9269C59.0941 53.7933 59.1104 53.64 59.0732 53.4953C58.6815 51.9367 57.867 50.8505 57.0835 50.9558C56.1629 51.0797 55.6349 52.8024 55.9043 54.8038C56.0391 55.8049 56.3472 56.6852 56.7374 57.3007C57.1547 57.4494 57.2414 57.4339 57.7013 57.372C57.9529 57.3379 58.532 58.0169 58.7171 57.7715C58.9733 57.43 59.1576 56.9105 59.2466 56.2842C59.2651 56.1582 59.2444 56.0296 59.1871 55.9158C59.1299 55.8021 59.0391 55.7087 58.9269 55.6485L57.7524 55.0206C57.7148 54.9994 57.6839 54.9681 57.6631 54.9303C57.6423 54.8925 57.6324 54.8497 57.6346 54.8066C57.6368 54.7635 57.6509 54.7219 57.6754 54.6864C57.6999 54.6509 57.7338 54.6229 57.7733 54.6056V54.6056Z" fill="black"/>
<path d="M67.4359 54.4429L68.3294 54.2223C68.466 54.183 68.585 54.098 68.6663 53.9814C68.7477 53.8648 68.7864 53.7237 68.7761 53.582C68.6987 52.0226 68.1622 50.8504 67.4514 50.828C66.6153 50.8016 65.8534 52.3765 65.7482 54.3384C65.6963 55.3209 65.8178 56.2152 66.0578 56.8679C66.2978 57.5206 66.3102 57.759 66.7283 57.7722C67.0148 57.3851 67.4251 57.3634 67.6334 57.1528C67.9191 56.8656 68.2659 56.871 68.4525 56.2841C68.4916 56.1689 68.4959 56.0448 68.4649 55.9273C68.4339 55.8097 68.369 55.7038 68.2783 55.6229L67.3492 54.8339C67.3196 54.8064 67.2977 54.7715 67.2857 54.7329C67.2737 54.6942 67.272 54.6531 67.2807 54.6136C67.2895 54.5741 67.3084 54.5376 67.3357 54.5076C67.3629 54.4777 67.3974 54.4554 67.4359 54.4429Z" fill="black"/>
<path d="M49.9671 71.5747C50.0322 71.7017 50.1073 71.8442 50.1862 71.9766C50.2652 72.109 50.345 72.2437 50.4293 72.3745C50.5989 72.6362 50.777 72.891 50.9659 73.1372C52.0927 74.6079 53.547 75.7956 55.2132 76.6058C55.4919 76.7335 55.7683 76.869 56.0564 76.9759C56.3389 77.099 56.6339 77.1904 56.9242 77.2941C57.5148 77.4843 58.1162 77.6394 58.7251 77.7587C59.9476 78.0056 61.2026 78.1164 62.4831 78.1698C62.5136 78.168 62.5442 78.1723 62.573 78.1823C62.6019 78.1923 62.6285 78.2079 62.6513 78.2282C62.6742 78.2485 62.6928 78.2731 62.7061 78.3006C62.7194 78.3281 62.7272 78.358 62.7289 78.3885C62.7307 78.419 62.7265 78.4496 62.7164 78.4784C62.7064 78.5073 62.6908 78.5339 62.6705 78.5567C62.6502 78.5795 62.6256 78.5981 62.5981 78.6115C62.5706 78.6248 62.5407 78.6325 62.5102 78.6343C61.2074 78.838 59.8825 78.8583 58.5741 78.6947C58.4092 78.6715 58.2443 78.6552 58.0802 78.6266L57.5893 78.5337C57.508 78.5174 57.4252 78.505 57.3439 78.4849L57.1015 78.4237C56.9397 78.3819 56.7764 78.3463 56.6161 78.2975C55.972 78.1079 55.3439 77.8673 54.7379 77.5783C53.5239 76.9877 52.4323 76.1734 51.5202 75.1781C51.0705 74.6814 50.6707 74.1417 50.3264 73.5669C50.1583 73.2785 50.0048 72.9818 49.8665 72.678C49.7999 72.5232 49.7356 72.3683 49.6768 72.2135C49.6489 72.1361 49.6211 72.0586 49.5955 71.975C49.57 71.8914 49.5467 71.8202 49.5235 71.7257C49.5015 71.6679 49.5034 71.6037 49.5288 71.5473C49.5541 71.4909 49.6008 71.4469 49.6586 71.4249C49.7164 71.4029 49.7806 71.4048 49.837 71.4302C49.8934 71.4555 49.9374 71.5022 49.9594 71.56L49.9671 71.5747Z" fill="black"/>
<path d="M53.5842 76.4587C53.0881 76.7041 52.5728 76.9087 52.0435 77.0703C51.7748 77.1478 51.5015 77.219 51.2236 77.274C50.9457 77.3289 50.6646 77.3684 50.3944 77.3978C50.2605 77.4133 50.1281 77.428 50.0073 77.4459C49.9438 77.4528 49.8858 77.4637 49.8246 77.4729L49.6357 77.5062C49.3841 77.5542 49.1363 77.6054 48.9025 77.6743C48.6834 77.7314 48.4716 77.8137 48.2715 77.9197C48.2058 77.9537 48.1458 77.9976 48.0934 78.0498C48.0811 78.0637 48.0803 78.0699 48.0865 78.0567C48.0955 78.0336 48.0982 78.0085 48.0942 77.984C48.0903 77.9584 48.0818 77.9483 48.0865 77.9545C48.0972 77.9717 48.1105 77.9871 48.126 78.0002C48.1901 78.0557 48.2608 78.103 48.3365 78.1411C48.5361 78.2403 48.7473 78.3142 48.9652 78.361C49.4435 78.4648 49.9337 78.5031 50.4223 78.4748C51.4446 78.415 52.4438 78.1462 53.3581 77.6851V77.6851C53.4103 77.6513 53.4737 77.6396 53.5345 77.6526C53.5952 77.6656 53.6483 77.7022 53.6821 77.7544C53.7159 77.8065 53.7276 77.87 53.7146 77.9308C53.7016 77.9915 53.665 78.0446 53.6128 78.0784C52.7231 78.8041 51.6494 79.2686 50.5113 79.4202C49.9268 79.5034 49.3328 79.493 48.7515 79.3892C48.4398 79.334 48.137 79.2371 47.8511 79.1012C47.6845 79.0201 47.5302 78.9158 47.3928 78.7915C47.3076 78.7143 47.2329 78.6264 47.1706 78.5298C47.0919 78.4075 47.0407 78.2696 47.0204 78.1256C46.9984 77.9671 47.0184 77.8056 47.0784 77.6572C47.1281 77.5349 47.1992 77.4225 47.2883 77.3251C47.4222 77.1824 47.5793 77.0633 47.7528 76.9728C48.0315 76.8304 48.3266 76.7228 48.6315 76.6522C48.9122 76.5843 49.1965 76.5326 49.4832 76.4974L49.6937 76.4734C49.7712 76.4672 49.8424 76.4595 49.9128 76.4556C50.0576 76.4463 50.1931 76.4432 50.3278 76.4386C50.5957 76.43 50.8496 76.4215 51.1059 76.4006C51.3622 76.3797 51.6184 76.3503 51.8755 76.31C52.3911 76.2326 52.9083 76.1219 53.434 76.0119C53.4926 75.9914 53.557 75.995 53.613 76.0219C53.6689 76.0489 53.7119 76.097 53.7324 76.1556C53.753 76.2142 53.7494 76.2786 53.7224 76.3346C53.6955 76.3905 53.6474 76.4335 53.5888 76.454L53.5842 76.4587Z" fill="black"/>
<path d="M53.7418 77.4226C53.7811 77.6424 53.784 77.8671 53.7503 78.0877C53.7136 78.3191 53.6349 78.5419 53.518 78.745C53.2858 79.1531 52.9389 79.4473 52.702 79.6981C52.6499 79.751 52.6025 79.8082 52.5603 79.8693C52.5361 79.903 52.5192 79.9415 52.5108 79.9823C52.5087 80.0056 52.5116 80.0291 52.5193 80.0512C52.5232 80.0659 52.5317 80.086 52.5402 80.1077C52.549 80.1301 52.5599 80.1517 52.5727 80.172C52.6213 80.2362 52.6883 80.284 52.7647 80.309C52.8761 80.349 52.9943 80.3661 53.1124 80.3594C53.4001 80.3446 53.679 80.255 53.9214 80.0992C54.1834 79.9334 54.407 79.7135 54.5772 79.4543C54.7605 79.1723 54.8975 78.8628 54.9829 78.5375C55.0743 78.1821 55.1352 77.8194 55.1648 77.4536V77.449C55.1704 77.3941 55.1949 77.343 55.2341 77.3042C55.2733 77.2655 55.3247 77.2416 55.3795 77.2365C55.4344 77.2315 55.4893 77.2457 55.5349 77.2767C55.5804 77.3076 55.6138 77.3535 55.6293 77.4064C55.7448 77.812 55.7916 78.2341 55.7679 78.6552C55.7435 79.1017 55.6276 79.5384 55.4273 79.9382C55.2135 80.3599 54.8972 80.7212 54.5075 80.9888C54.1 81.2714 53.6175 81.4261 53.1216 81.4332C52.8488 81.4352 52.579 81.377 52.3312 81.2629C52.1946 81.1984 52.0689 81.113 51.9588 81.0097C51.8421 80.8994 51.7473 80.7681 51.6793 80.6226C51.6486 80.5561 51.6227 80.4876 51.6019 80.4174C51.5782 80.3438 51.5617 80.2681 51.5523 80.1913C51.5293 80.0204 51.5468 79.8464 51.6034 79.6834C51.6555 79.5385 51.7343 79.4045 51.8357 79.2886C51.9156 79.198 52.0026 79.1138 52.0958 79.0369C52.2646 78.8976 52.4179 78.7884 52.5603 78.6777C52.692 78.576 52.8132 78.4614 52.9219 78.3355C53.0236 78.2144 53.1054 78.078 53.1642 77.9313C53.2237 77.7724 53.262 77.6063 53.278 77.4373V77.4381C53.286 77.3833 53.313 77.3331 53.3543 77.2962C53.3956 77.2593 53.4485 77.2381 53.5038 77.2362C53.5592 77.2344 53.6134 77.252 53.657 77.2861C53.7007 77.3202 53.7309 77.3685 53.7426 77.4226H53.7418Z" fill="black"/>
<path d="M44.9997 34.9933L44.9771 34.945C45.0285 34.8032 45.1942 34.1253 45.2456 33.9835L45.3697 33.6194L45.6595 33.4839C46.1474 33.6207 46.6499 33.5623 47.0943 33.3545L47.4324 33.1964C47.4678 33.121 47.6158 32.934 47.6415 32.8632L47.6673 32.7923L47.5724 32.5894C47.1387 31.6619 44.2727 33.061 43.2427 30.8583L43.1071 30.5685C43.1617 30.3075 43.0004 30.0886 43.0602 29.8134C43.1693 29.2915 43.3222 28.7372 43.7471 28.3619C43.7954 28.3393 44.0144 28.1781 44.0627 28.1555L44.1947 28.0349L44.5811 27.8542C44.9289 27.6916 46.8998 26.9465 47.198 27.5841L47.2432 27.6808C47.1917 27.8225 47.0744 28.4779 47.0229 28.6197C46.9684 28.8806 46.9878 29.0481 46.7463 29.1611C46.5434 29.256 46.3276 29.298 46.1632 29.1983L45.4096 29.3741C45.242 29.3936 45.1135 29.748 45.1812 29.8929L45.2309 29.9992C46.6598 30.6379 48.4953 29.603 49.3852 31.5062L49.4078 31.5545C49.453 31.6511 49.6125 32.1181 49.6577 32.2147C49.6288 32.4048 49.6966 32.5497 49.7206 32.7269C49.7112 33.0845 49.5583 33.6387 49.3266 33.9236C49.1785 34.1106 48.7279 34.5568 48.6796 34.5794L47.4623 35.1486C47.0179 35.3564 45.2255 35.4764 44.9997 34.9933Z" fill="black"/>
<path d="M50.5506 31.6372C50.5153 31.4812 50.3195 30.8585 50.2841 30.7025L50.2724 30.6505C49.9731 29.3295 49.3204 26.2077 49.3204 26.2077L49.4008 26.0801L51.1899 25.6748L51.3174 25.7552L52.3568 30.3422C52.693 30.8128 52.7141 31.147 53.4526 30.9797C54.2327 30.8029 53.928 30.4236 54.0806 29.8423L53.5079 27.3147L53.4078 27.1625C53.396 27.1105 53.4349 26.9923 53.4349 26.9923L53.3406 26.5762C53.2675 26.2538 53.1462 26.0079 53.0755 25.6959C53.052 25.5919 52.9789 25.2694 53.1453 25.2317L54.8303 24.8499C54.8823 24.8381 55.0619 24.9068 55.0737 24.9588L56.2073 29.9618C56.1292 30.0998 56.1666 30.7475 56.1641 30.9777C55.9757 32.1248 54.8516 32.7623 53.7907 33.0027C52.7401 33.2407 51.6473 33.0509 50.9024 32.2246C50.7489 32.0297 50.742 31.7579 50.5506 31.6372Z" fill="black"/>
<path d="M58.0614 31.7934L58.0622 31.6868C58.0635 31.5161 58.1235 30.6527 58.1248 30.4927L58.1789 30.3865L58.1793 30.3332C58.1797 30.2798 58.1268 30.2261 58.1272 30.1728L58.1277 30.1195L58.1818 30.0132L58.1293 29.9062L58.1302 29.7889C58.131 29.6822 58.1314 29.6289 58.1856 29.5227L58.1956 28.2322C58.1998 27.6883 58.2731 25.0972 58.2773 24.5533C58.2773 24.5533 58.3318 24.3938 58.3852 24.3942L61.2006 24.4159C62.1711 24.4234 63.0853 24.8144 63.3978 25.7874C63.5028 26.0015 63.4452 26.545 63.444 26.705L63.4391 27.3448C63.4361 27.7288 63.167 28.0466 63.0045 28.376C62.1899 28.903 61.5385 29.0046 60.5151 28.9434C60.4085 28.9426 60.3009 29.0591 60.3001 29.1657L60.2839 31.2666C60.3364 31.3737 60.3355 31.4803 60.3342 31.651C60.3334 31.7576 60.3309 32.0776 60.107 32.0758L58.2726 32.0617C58.166 32.0608 58.0606 31.9001 58.0614 31.7934ZM60.3184 26.7875C60.318 26.8408 60.3156 27.1607 60.4222 27.1616L61.1261 27.167C61.3927 27.1691 61.5014 26.9033 61.503 26.69C61.506 26.306 61.2944 26.0911 60.9104 26.0881C60.3239 26.0836 60.3226 26.2436 60.3184 26.7875Z" fill="black"/>
<path d="M64.396 32.1138C64.4539 31.8535 64.6614 30.676 64.7193 30.4157L65.9173 25.0337L66.1082 24.9123C66.1082 24.9123 68.3892 25.3653 69.3365 25.5762L70.44 25.8218C70.5545 25.8473 70.6354 25.9746 70.6123 26.0787L70.318 27.4008C70.2717 27.609 69.9894 27.6008 69.8333 27.566C69.6771 27.5313 69.5846 27.456 69.4284 27.4213C69.2619 27.3842 69.0941 27.4015 68.938 27.3668C68.8859 27.3552 68.6373 27.2452 68.5852 27.2336L68.4707 27.2081C68.3666 27.1849 67.7188 27.15 67.6043 27.1245C67.5522 27.1129 67.4747 27.2159 67.4631 27.2679L67.3357 27.8405L67.405 28.0198L69.6224 28.5134L69.6605 28.5874C69.7588 28.8824 69.6256 29.2352 69.5538 29.5579L69.4495 30.0264C69.3743 30.1189 69.2447 30.2102 69.1811 30.2507L67.8069 29.9448C67.5987 29.8985 67.0042 29.8208 67.0042 29.8208L66.8653 29.9538L66.724 30.5888C66.724 30.5888 66.7528 30.7045 66.7933 30.7681C66.7817 30.8202 66.8846 30.8977 66.8846 30.8977L69.3623 31.4492C69.4664 31.4723 69.2126 32.8581 69.1894 32.9622C69.1315 33.2224 69.0042 33.3034 68.7335 33.2431L64.5695 32.3163C64.5174 32.3047 64.3844 32.1658 64.396 32.1138Z" fill="black"/>
<path d="M73.5765 33.7659C73.5877 33.3459 73.6017 32.8209 73.5033 32.4077L73.4529 32.2656L73.4047 32.2426L73.3107 32.3159L72.3102 34.4146C72.3102 34.4146 71.9889 34.3205 71.8926 34.2746L70.4293 33.577C70.333 33.5311 70.356 33.483 70.3789 33.4349L70.4018 33.3867C70.7277 32.7032 71.5881 31.0222 71.5881 31.0222L71.7051 30.9007L73.729 26.6552C73.9215 26.747 74.9264 27.1669 75.119 27.2587L76.7267 28.0251C76.8733 28.2132 77.1236 28.3325 77.3184 28.5435C77.8367 29.2159 77.7746 29.718 77.7124 30.4681L77.2489 31.4404C77.0081 31.5738 76.9415 31.8374 76.6824 32.0092L76.1802 32.1952C76.0284 32.241 75.6456 32.1766 75.5538 32.3692L75.5308 32.4173C75.5583 32.6076 75.6249 33.3601 75.6523 33.5504C75.7048 34.0598 75.9316 35.7156 75.8122 35.9659C75.7663 36.0622 75.7434 36.1103 75.6242 36.1126L75.3354 35.9749C74.8925 35.7638 74.5556 35.6032 74.0394 35.298C73.5232 34.9929 73.5922 34.6004 73.6062 34.0754C73.6269 33.9081 73.675 33.931 73.5765 33.7659ZM75.0635 29.3826C75.0635 29.3826 74.871 29.2908 74.848 29.3389L74.2652 30.5616C74.2193 30.6578 74.46 30.7726 74.5081 30.7955C74.7969 30.9332 75.2582 30.8577 75.4234 30.5112C75.6529 30.0298 75.5545 29.6166 75.0635 29.3826Z" fill="black"/>
<path d="M83.689 77.589L83.847 77.7323C83.9339 77.8111 84.0129 77.8827 84.0561 77.9939L84.8108 78.6063L84.9293 78.7138C85.5298 79.2582 88.4097 81.7978 89.0102 82.3423L89.0497 82.3781C89.1287 82.4498 89.2509 82.6326 89.1792 82.7116L86.1703 86.0297L85.9766 86.0845L84.7758 84.9955C84.7363 84.9597 84.7719 84.7617 84.8077 84.7222L86.3265 83.0473L86.3155 82.8213L85.715 82.2768L85.6397 82.2805C85.4454 82.3202 85.3021 82.4782 85.1588 82.6362L83.7403 84.2005C83.7403 84.2005 83.5933 84.2832 83.5538 84.2474L82.3925 83.1943L82.3814 82.9683L84.1581 81.009L84.1508 80.8583L83.7083 80.4571C83.3133 80.0989 82.9141 79.8089 82.5191 79.4507L82.2347 79.1928C82.1952 79.1569 82.1915 79.0816 82.195 78.9984L82.5173 78.6429C82.5532 78.6034 82.8506 78.3548 82.8864 78.3153C82.9222 78.2758 83.2409 77.8449 83.2767 77.8054L83.3556 77.7185C83.463 77.6 83.5383 77.5963 83.689 77.589Z" fill="black"/>
<path d="M77.2292 83.3408C78.8175 82.9838 79.2691 82.8704 80.7987 83.5847C81.0869 83.7241 81.2225 84.0188 81.4747 84.1053C81.5347 84.1935 81.9444 84.7017 82.0043 84.7899C83.2209 86.5807 82.8928 88.2992 81.4659 89.8617L80.3985 90.5869C80.2132 90.7128 79.7846 90.7461 79.6382 90.9101C77.9458 91.2088 76.4778 90.775 75.4709 89.293C74.2603 87.511 74.4292 85.1786 76.3523 83.872L76.3964 83.8421C76.5288 83.7522 77.0968 83.4307 77.2292 83.3408ZM79.9967 85.5736C79.6833 85.245 79.2272 85.181 78.7834 85.173C78.3632 85.1619 77.791 85.3444 77.4013 85.7767C77.2259 86.0119 76.9302 86.3547 76.8611 86.9173C76.8398 87.1897 76.9815 87.4931 76.9691 87.7594L77.4545 88.474L77.5586 88.5322L77.6926 88.6346C78.6279 89.0435 78.8343 88.9678 79.7189 88.6376L79.763 88.6076C80.6628 87.9963 80.8478 86.8263 80.2365 85.9264L79.9967 85.5736Z" fill="black"/>
<path d="M72.4069 86.4178C72.4567 86.3985 72.5256 86.429 72.5946 86.4595C72.8293 87.0663 74.0293 90.0212 74.2602 90.618L74.6141 91.5331L74.7023 91.6134L75.264 93.0656L75.2646 93.3627L73.504 94.0436L73.4157 93.9634C73.4157 93.9634 72.9159 92.8189 72.7235 92.3215L71.5155 89.1982C71.546 89.1292 71.5268 89.0795 71.5037 89.0198C71.4652 88.9203 71.4155 88.9396 71.2868 88.9321C70.5906 89.2015 69.5952 89.6436 68.8008 89.8365L68.1391 88.1256C68.1006 88.0262 68.4089 87.9069 68.5084 87.8684L68.6079 87.83L68.7763 87.822C68.826 87.8028 69.1152 87.6338 69.1649 87.6145L69.2146 87.5953C70.3187 87.1683 71.2929 86.8487 72.4069 86.4178Z" fill="black"/>
<path d="M67.2302 88.2535C67.2826 88.2439 67.3447 88.2867 67.4068 88.3295C67.5246 88.9693 68.1541 92.0958 68.27 92.7251L68.4475 93.6901L68.5193 93.7853L68.8011 95.3167L68.7464 95.6087L66.8899 95.9504L66.8181 95.8551C66.8181 95.8551 66.5399 94.6376 66.4433 94.1131L65.8372 90.8196C65.88 90.7575 65.8704 90.7051 65.8588 90.6422C65.8395 90.5373 65.7871 90.5469 65.662 90.5157C64.9278 90.6508 63.8676 90.9002 63.0511 90.942L62.7191 89.1379C62.6998 89.033 63.025 88.9732 63.1299 88.9539L63.2348 88.9346L63.4018 88.9581C63.4542 88.9484 63.7697 88.8361 63.8221 88.8265L63.8746 88.8168C65.0388 88.6026 66.0554 88.4697 67.2302 88.2535Z" fill="black"/>
<path d="M59.5695 88.9519C61.0552 89.6173 61.4848 89.7969 62.2819 91.2851C62.4291 91.5694 62.3613 91.8866 62.5114 92.1069C62.5066 92.2134 62.5303 92.8658 62.5255 92.9723C62.4272 95.1351 61.1351 96.3147 59.0567 96.7114L57.7675 96.6528C57.5438 96.6426 57.1806 96.4126 56.9651 96.4562C55.4309 95.6818 54.5151 94.4552 54.5965 92.6653C54.6943 90.5132 56.2265 88.7466 58.5491 88.8521L58.6024 88.8546C58.7622 88.8618 59.4096 88.9446 59.5695 88.9519ZM60.4484 92.3975C60.3942 91.9466 60.0673 91.6222 59.7167 91.35C59.3869 91.0895 58.8193 90.8929 58.2484 91.0057C57.967 91.089 57.5249 91.1863 57.1326 91.5955C56.9525 91.8009 56.8842 92.1287 56.7147 92.3345L56.6755 93.1975L56.7239 93.3065L56.7699 93.4687C57.274 94.3564 57.4847 94.4193 58.3908 94.6847L58.444 94.6871C59.5307 94.7365 60.3797 93.9103 60.4291 92.8236L60.4484 92.3975Z" fill="black"/>
<path d="M52.5196 93.9053C52.5139 94.0738 52.4415 94.9116 52.4357 95.0801C52.4391 95.3772 52.509 95.8014 52.3939 96.1113C52.3382 96.2613 52.251 96.3426 52.0511 96.2683L50.4815 95.6851C50.3816 95.6479 50.3873 95.4794 50.3459 95.4071C50.3645 95.3572 50.3425 95.1101 50.3611 95.0601C50.3912 94.673 50.3749 94.2574 50.405 93.8704C50.4688 93.0863 50.4227 92.2613 50.6364 91.533L50.5736 91.3959L49.8205 92.504C49.5234 92.5074 48.2522 94.8567 47.8923 94.7229L46.6327 94.2548C46.5827 94.2363 46.4327 94.1805 46.4199 94.062C46.3437 93.6241 46.6819 90.2341 46.6319 90.2155L46.5819 90.1969C46.4353 90.4383 46.2982 90.5011 46.1553 90.7325C45.6916 91.368 45.2365 91.9497 44.7728 92.5852C44.5614 92.848 44.3348 93.4578 43.8749 93.2869C43.775 93.2498 43.725 93.2312 43.6936 93.1626L43.3437 93.0326C43.1437 92.9583 42.9152 92.9303 42.7653 92.8746L42.7153 92.856C42.6653 92.8374 42.4525 92.6446 42.4025 92.626L42.4582 92.476C42.4954 92.3761 43.9736 90.3882 44.1022 90.3791C44.5902 89.5251 45.3133 88.8039 45.9427 88.0594C46.067 87.878 47.2058 86.3442 47.2558 86.3628L48.8253 86.9461L48.8567 87.0146C48.9238 87.324 48.8086 87.6339 48.7472 87.9524C48.7414 88.1209 48.7634 88.368 48.7576 88.5365C48.7124 89.2706 48.74 90.1456 48.5799 90.8825L48.6799 90.9197C48.8784 90.5384 51.0175 87.8745 51.136 87.8616C51.6145 87.9825 51.8644 88.0754 52.2743 88.2277C52.4742 88.302 52.6742 88.3763 52.7184 88.5634C52.7718 88.8791 52.6789 89.129 52.646 89.4012C52.6251 89.9168 52.5196 93.9053 52.5196 93.9053Z" fill="black"/>
<path d="M44.5295 84.9582C44.3714 85.1729 43.706 86.1663 43.5479 86.381L40.2781 90.8206L40.0544 90.8545C40.0544 90.8545 38.1508 89.5187 37.3693 88.9432L36.4591 88.2728C36.3646 88.2032 36.342 88.0541 36.4052 87.9682L37.2085 86.8776C37.335 86.7059 37.5898 86.8274 37.7187 86.9223C37.8475 87.0171 37.9017 87.1233 38.0305 87.2182C38.1679 87.3194 38.3284 87.3713 38.4572 87.4662C38.5001 87.4978 38.6832 87.6988 38.7261 87.7305L38.8206 87.8C38.9064 87.8633 39.4849 88.1569 39.5794 88.2265C39.6223 88.2581 39.7348 88.1952 39.7664 88.1523L40.1143 87.68L40.1233 87.488L38.2942 86.1408L38.2892 86.0577C38.3185 85.7481 38.5828 85.4792 38.7789 85.213L39.0635 84.8266C39.1696 84.7723 39.3251 84.7411 39.3997 84.7298L40.5332 85.5646C40.7049 85.6911 41.2174 86.0024 41.2174 86.0024L41.3982 85.9368L41.784 85.413C41.784 85.413 41.8043 85.2955 41.793 85.2209C41.8246 85.178 41.7618 85.0655 41.7618 85.0655L39.718 83.5602C39.6321 83.497 40.424 82.3318 40.4873 82.246C40.6454 82.0313 40.7945 82.0086 41.0178 82.1731L44.4527 84.7029C44.4956 84.7345 44.5612 84.9153 44.5295 84.9582Z" fill="black"/>
<path d="M36.7056 79.6606C36.5259 80.0404 36.3012 80.515 36.2244 80.9328L36.2131 81.0832L36.2479 81.1236L36.3635 81.0945L38.126 79.5782C38.126 79.5782 38.3821 79.7941 38.4516 79.8749L39.5088 81.1038C39.5784 81.1846 39.538 81.2194 39.4975 81.2542L39.4571 81.289C38.8831 81.7828 37.4173 82.9735 37.4173 82.9735L37.2613 83.0374L33.6958 86.1047C33.5567 85.943 32.8069 85.1531 32.6678 84.9914L31.5062 83.6413C31.448 83.41 31.2671 83.1998 31.1741 82.9281C30.9713 82.1037 31.2308 81.6695 31.5905 81.0083L32.4071 80.3058C32.6812 80.281 32.8485 80.0667 33.155 80.0141L33.6895 80.0467C33.8468 80.066 34.1711 80.2795 34.3328 80.1403L34.3732 80.1056C34.4249 79.9204 34.6677 79.2051 34.7194 79.0199C34.877 78.5326 35.338 76.9261 35.5482 76.7453C35.629 76.6758 35.6695 76.641 35.7794 76.687L35.9881 76.9296C36.3081 77.3015 36.5515 77.5845 36.9006 78.072C37.2496 78.5595 37.0281 78.8908 36.8034 79.3654C36.7169 79.5102 36.6822 79.4698 36.7056 79.6606ZM33.5758 83.0707C33.5758 83.0707 33.7149 83.2324 33.7553 83.1976L34.7821 82.3143C34.863 82.2447 34.6891 82.0426 34.6543 82.0022C34.4456 81.7596 33.9931 81.6425 33.7021 81.8929C33.2978 82.2406 33.2211 82.6584 33.5758 83.0707Z" fill="black"/>
<path d="M29.7372 75.2074C26.3817 68.4337 25.3957 60.7301 26.9371 53.3297C28.4785 45.9293 32.4581 39.2599 38.2389 34.3892" stroke="black" stroke-width="1.5" stroke-linecap="round"/>
<path d="M90.2635 75.2061C93.6187 68.4323 94.6043 60.7287 93.0626 53.3283C91.5209 45.9279 87.541 39.2587 81.76 34.3882" stroke="black" stroke-width="1.5" stroke-linecap="round"/>
</svg>
