<svg width="24" height="24" viewBox="0 0 24 24" fill="none" xmlns="http://www.w3.org/2000/svg">
<path d="M22.859 15.413L19.253 18.054L20.617 22.309C20.676 22.446 20.617 22.593 20.5 22.681C20.442 22.73 20.373 22.749 20.305 22.749C20.227 22.749 20.159 22.729 20.1 22.681L16.494 20.059L12.888 22.681C12.829 22.73 12.761 22.749 12.683 22.749C12.615 22.749 12.546 22.729 12.488 22.681C12.361 22.593 12.303 22.446 12.361 22.309L13.726 18.054L10.129 15.413C10.012 15.335 9.963 15.168 10.002 15.032C10.051 14.885 10.177 14.797 10.333 14.797H14.787L16.161 10.542C16.21 10.395 16.346 10.317 16.492 10.317C16.628 10.317 16.775 10.395 16.823 10.542L18.197 14.797H22.651C22.797 14.797 22.943 14.885 22.982 15.032C23.024 15.169 22.986 15.335 22.859 15.413V15.413ZM9.696 22.402H3.617C2.795 22.402 2.043 22.043 1.555 21.416C1.052 20.771 0.881 19.93 1.083 19.109C1.7 16.623 3.492 14.6 6.001 13.557C6.604 13.305 7.3 13.593 7.55 14.201C7.801 14.808 7.513 15.504 6.908 15.755C5.102 16.506 3.817 17.938 3.384 19.683C3.359 19.786 3.373 19.885 3.423 19.949C3.438 19.968 3.479 20.021 3.617 20.021H9.696C10.351 20.021 10.882 20.554 10.882 21.211C10.882 21.868 10.351 22.402 9.696 22.402V22.402ZM9.893 12.218C8.454 12.218 6.838 12.051 5.765 10.821C4.871 9.795 4.575 8.255 4.862 6.112C5.264 3.113 7.192 1.25 9.893 1.25C12.594 1.25 14.523 3.113 14.924 6.111C15.211 8.253 14.916 9.794 14.022 10.819C12.949 12.052 11.333 12.218 9.893 12.218V12.218ZM9.893 3.63C7.987 3.63 7.383 5.151 7.213 6.429C7.028 7.811 7.145 8.788 7.551 9.254C7.903 9.658 8.626 9.838 9.894 9.838C11.163 9.838 11.886 9.658 12.238 9.254C12.643 8.788 12.76 7.811 12.575 6.429C12.403 5.152 11.799 3.63 9.893 3.63V3.63Z" fill="black"/>
</svg>
